<?xml version="1.0" standalone="no"?>
<!DOCTYPE svg PUBLIC "-//W3C//DTD SVG 1.1//EN" "http://www.w3.org/Graphics/SVG/1.1/DTD/svg11.dtd" >
<svg xmlns="http://www.w3.org/2000/svg" xmlns:xlink="http://www.w3.org/1999/xlink" version="1.1">
<metadata>
Created by FontForge 20170731 at Mon Jan 21 15:49:47 2019
 By Aleksey,,,
Copyright (c) 2018 by Cosimo Lorenzo Pancini, Francesco Canovaro. All rights reserved. |DCNT
</metadata>
<defs>
<font id="CocogooseClassic-Black" horiz-adv-x="0" >
  <font-face 
    font-family="Cocogoose Classic Black"
    font-weight="900"
    font-stretch="normal"
    units-per-em="2048"
    panose-1="2 11 0 3 2 2 0 0 0 2"
    ascent="1508"
    descent="-540"
    x-height="876"
    cap-height="1460"
    bbox="-1526 -647 2767.07 2300"
    underline-thickness="98"
    underline-position="-245"
    unicode-range="U+000D-FB02"
  />
<missing-glyph horiz-adv-x="1105" 
d="M553 57q-135 -3 -251.5 66.5t-182.5 185.5t-64 245q0 138 68 253q67 114 182 181q115 66 248 66q135 3 251.5 -68t182 -187.5t63.5 -244.5q0 -172 -102.5 -302.5t-261.5 -176.5q-60 -18 -133 -18zM553 1013q-125 2 -232 -62t-167 -171t-58 -226q-2 -119 59 -226.5
t168.5 -172t229.5 -61.5q90 -2 175.5 35t148 99.5t99.5 148.5t35 177q1 158 -97 280.5t-241 160.5q-54 18 -120 18zM825 861h-550q120 107 278 107q157 0 272 -107zM871 291h-548l536 540q105 -129 105 -277q0 -147 -93 -263zM780 816l-536 -538q-103 119 -103 276
q0 146 92 262h547zM278 246h551q-124 -105 -276 -105q-151 0 -275 105z" />
    <glyph glyph-name="f_f" unicode="ff" horiz-adv-x="1480" 
d="M1623 1406q0 -7 -4 -18l-111 -277q-9 -23 -28 -23q-5 0 -17 5q-29 17 -72 17q-57 0 -90 -38t-33 -105v-89h139q18 0 28.5 -10.5t10.5 -28.5v-256q0 -39 -39 -39h-139v-505q0 -39 -39 -39h-317q-39 0 -39 39v465h-336v-465q0 -16 -11.5 -27.5t-27.5 -11.5h-317
q-16 0 -27.5 11.5t-11.5 27.5v465h-79q-16 0 -27 11.5t-11 27.5v296q0 16 11 27.5t27 11.5h79v83q0 248 147 390.5t404 142.5q180 0 333 -126q134 126 361 126q125 0 218 -57q18 -12 18 -31zM537 967v-89h336v83q0 8 2 58q-57 53 -93 72q-35 19 -91 19q-72 0 -113 -38
t-41 -105z" />
    <glyph glyph-name="f_f_i" unicode="ffi" horiz-adv-x="2015" 
d="M1944 839v-800q0 -39 -38 -39h-317q-39 0 -39 39v465h-282v-465q0 -39 -39 -39h-317q-39 0 -39 39v465h-336v-465q0 -16 -11.5 -27.5t-27.5 -11.5h-317q-16 0 -27.5 11.5t-11.5 27.5v465h-79q-16 0 -27 11.5t-11 27.5v296q0 16 11 27.5t27 11.5h79v83q0 248 147 390.5
t404 142.5q185 0 339 -131q146 131 392 131q113 0 222 -55q110 -54 190 -149q16 -19 16 -38q0 -17 -12 -29l-218 -210q-13 -13 -29 -13q-22 0 -40 23q-13 18 -26 33q-42 54 -105 54q-72 0 -113 -38t-41 -105v-89h638q38 0 38 -39zM537 878h336v83q0 8 2 58q-57 53 -93 72
q-35 19 -91 19q-72 0 -113 -38t-41 -105v-89z" />
    <glyph glyph-name="f_i" unicode="fi" horiz-adv-x="1284" 
d="M1213 839v-800q0 -39 -38 -39h-317q-39 0 -39 39v465h-282v-465q0 -39 -39 -39h-317q-39 0 -39 39v465h-79q-38 0 -38 39v296q0 39 38 39h79v83q0 248 147 390.5t404 142.5q113 0 222 -55q110 -54 190 -149q16 -19 16 -38q0 -17 -12 -29l-218 -210q-13 -13 -29 -13
q-22 0 -40 23q-13 18 -26 33q-42 54 -105 54q-72 0 -113 -38t-41 -105v-89h638q38 0 38 -39z" />
    <glyph glyph-name="f_b.liga" unicode="fb" horiz-adv-x="1821" 
d="M1799 436q2 -204 -109 -338.5t-282 -131.5q-169 0 -258 138l-43 -65q-1 -2 -5.5 -9t-7.5 -11.5t-8 -10t-11 -7.5t-12 -1h-191q-39 0 -39 39v1003q-56 68 -142 68q-64 0 -109 -42t-45 -101v-89h139q18 0 28.5 -10.5t10.5 -28.5v-256q0 -39 -39 -39h-139v-505
q0 -39 -39 -39h-317q-39 0 -39 39v505h-79q-38 0 -38 39v256q0 39 38 39h79v83q-1 122 38 224t108 169.5t162.5 104t200.5 35.5q80 0 160 -32t146 -90l23 50q16 39 49 39h159q39 0 39 -39v-568q77 56 181 56q171 3 282 -132.5t109 -341.5zM1429 438q0 43 -29 72t-71 29
t-71.5 -29t-29.5 -72q0 -42 29.5 -71.5t71.5 -29.5t71 29.5t29 71.5z" />
    <glyph glyph-name="f_f_b.liga" unicode="ffb" horiz-adv-x="2552" 
d="M2530 436q2 -204 -109 -338.5t-282 -131.5q-169 0 -258 138l-43 -65q-1 -2 -5.5 -9t-7.5 -11.5t-8 -10t-11 -7.5t-12 -1h-191q-39 0 -39 39v1003q-56 68 -142 68q-64 0 -109 -42t-45 -101v-89h139q18 0 28.5 -10.5t10.5 -28.5v-256q0 -39 -39 -39h-139v-505
q0 -39 -39 -39h-317q-39 0 -39 39v465h-336v-465q0 -16 -11.5 -27.5t-27.5 -11.5h-317q-16 0 -27.5 11.5t-11.5 27.5v465h-79q-16 0 -27 11.5t-11 27.5v296q0 16 11 27.5t27 11.5h79v83q0 248 147 390.5t404 142.5q183 0 337 -129q140 129 352 129q80 0 160 -32t146 -90
l23 50q17 39 49 39h159q39 0 39 -39v-568q77 56 181 56q171 3 282 -132.5t109 -341.5zM537 967v-89h336v83q0 8 2 58q-57 53 -93 72q-35 19 -91 19q-72 0 -113 -38t-41 -105zM2160 438q0 43 -29 72t-71 29t-71.5 -29t-29.5 -72q0 -42 29.5 -71.5t71.5 -29.5t71 29.5t29 71.5
z" />
    <glyph glyph-name="f_f_h.liga" unicode="ffh" horiz-adv-x="2543" 
d="M2481 477v-434q0 -41 -41 -41h-312q-41 0 -41 41v437q0 24 -18 39t-43 15t-43.5 -15t-24.5 -42v-438q0 -39 -39 -39h-316q-39 0 -39 39v1003q-56 68 -142 68q-64 0 -109 -42t-45 -101v-89h139q18 0 28.5 -10.5t10.5 -28.5v-256q0 -39 -39 -39h-139v-505q0 -39 -39 -39
h-317q-39 0 -39 39v465h-336v-465q0 -16 -11.5 -27.5t-27.5 -11.5h-317q-16 0 -27.5 11.5t-11.5 27.5v465h-79q-16 0 -27 11.5t-11 27.5v296q0 16 11 27.5t27 11.5h79v83q0 248 147 390.5t404 142.5q183 0 337 -129q140 129 352 129q80 0 160 -32t146 -90l23 50q17 39 49 39
h159q39 0 39 -39v-564q82 52 180 52q175 0 259 -107.5t84 -325.5zM537 967v-89h336v83q0 8 2 58q-57 53 -93 72q-35 19 -91 19q-72 0 -113 -38t-41 -105z" />
    <glyph glyph-name="f_f_ij.liga" unicode="ff&#x133;" horiz-adv-x="2540" 
d="M1539 504h-271v-465q0 -39 -39 -39h-317q-39 0 -39 39v465h-336v-465q0 -16 -11.5 -27.5t-27.5 -11.5h-317q-16 0 -27.5 11.5t-11.5 27.5v465h-79q-16 0 -27 11.5t-11 27.5v296q0 16 11 27.5t27 11.5h79v83q0 248 147 390.5t404 142.5q185 0 339 -131q146 131 392 131
q113 0 222 -55q110 -54 190 -149q16 -19 16 -38q0 -17 -12 -29l-218 -210q-13 -13 -29 -13q-22 0 -40 23q-13 18 -26 33q-42 54 -105 54q-72 0 -113 -38t-41 -105v-89h626q39 0 39 -39v-800q0 -39 -39 -39h-316q-39 0 -39 39v465zM2046 1254q0 94 66.5 160.5t160.5 66.5
q92 0 159 -67.5t67 -159.5t-67 -159t-159 -67q-94 0 -160.5 66.5t-66.5 159.5zM537 878h336v83q0 8 2 58q-57 53 -93 72q-35 19 -91 19q-72 0 -113 -38t-41 -105v-89zM2469 839v-1007q0 -210 -125 -330t-343 -120t-343 119t-125 327v21q0 19 11 29.5t30 10.5h312
q41 0 41 -41v-16q0 -32 20 -50t54 -18t53.5 19t19.5 53v203h1v800q0 39 39 39h316q39 0 39 -39z" />
    <glyph glyph-name="f_f_j.liga" unicode="ffj" horiz-adv-x="2004" 
d="M1933 839v-845q0 -228 -126 -343t-373 -115h-12q-41 0 -41 41v261q0 41 41 41h10q55 0 81 19t26 61v545h-271v-465q0 -39 -39 -39h-317q-39 0 -39 39v465h-336v-465q0 -16 -11.5 -27.5t-27.5 -11.5h-317q-16 0 -27.5 11.5t-11.5 27.5v465h-79q-16 0 -27 11.5t-11 27.5
v296q0 16 11 27.5t27 11.5h79v83q0 248 147 390.5t404 142.5q185 0 339 -131q146 131 392 131q113 0 222 -55q110 -54 190 -149q16 -19 16 -38q0 -17 -12 -29l-218 -210q-13 -13 -29 -13q-22 0 -40 23q-13 18 -26 33q-42 54 -105 54q-72 0 -113 -38t-41 -105v-89h626
q39 0 39 -39zM537 878h336v83q0 8 2 58q-57 53 -93 72q-35 19 -91 19q-72 0 -113 -38t-41 -105v-89z" />
    <glyph glyph-name="f_f_k.liga" unicode="ffk" horiz-adv-x="2559" 
d="M2555 31q0 -14 -9.5 -22.5t-25.5 -8.5h-354q-36 0 -54 39l-118 226l-36 -41v-185q0 -39 -39 -39h-316q-39 0 -39 39v1003q-56 68 -142 68q-64 0 -109 -42t-45 -101v-89h139q18 0 28.5 -10.5t10.5 -28.5v-256q0 -39 -39 -39h-139v-505q0 -39 -39 -39h-317q-39 0 -39 39
v465h-336v-465q0 -16 -11.5 -27.5t-27.5 -11.5h-317q-16 0 -27.5 11.5t-11.5 27.5v465h-79q-16 0 -27 11.5t-11 27.5v296q0 16 11 27.5t27 11.5h79v83q0 248 147 390.5t404 142.5q183 0 337 -129q140 129 352 129q80 0 160 -32t146 -90l23 50q17 39 49 39h159q39 0 39 -39
v-779l150 207q14 18 28 23t43 5h338q38 0 38 -29q0 -15 -10 -28l-268 -308l269 -452q9 -17 9 -30zM537 967v-89h336v83q0 8 2 58q-57 53 -93 72q-35 19 -91 19q-72 0 -113 -38t-41 -105z" />
    <glyph glyph-name="f_f_l.liga" unicode="ffl" horiz-adv-x="2032" 
d="M1958 1422v-1383q0 -39 -39 -39h-316q-39 0 -39 39v1003q-56 68 -142 68q-64 0 -109 -42t-45 -101v-89h139q18 0 28.5 -10.5t10.5 -28.5v-256q0 -39 -39 -39h-139v-505q0 -39 -39 -39h-317q-39 0 -39 39v465h-336v-465q0 -16 -11.5 -27.5t-27.5 -11.5h-317
q-16 0 -27.5 11.5t-11.5 27.5v465h-79q-16 0 -27 11.5t-11 27.5v296q0 16 11 27.5t27 11.5h79v83q0 248 147 390.5t404 142.5q183 0 337 -129q140 129 352 129q80 0 160 -32t146 -90l23 50q17 39 49 39h159q39 0 39 -39zM537 967v-89h336v83q0 8 2 58q-57 53 -93 72
q-35 19 -91 19q-72 0 -113 -38t-41 -105z" />
    <glyph glyph-name="f_h.liga" unicode="fh" horiz-adv-x="1812" 
d="M1750 477v-434q0 -41 -41 -41h-312q-41 0 -41 41v437q0 24 -18 39t-43 15t-43.5 -15t-24.5 -42v-438q0 -39 -39 -39h-316q-39 0 -39 39v1003q-56 68 -142 68q-64 0 -109 -42t-45 -101v-89h139q18 0 28.5 -10.5t10.5 -28.5v-256q0 -39 -39 -39h-139v-505q0 -39 -39 -39
h-317q-39 0 -39 39v505h-79q-38 0 -38 39v256q0 39 38 39h79v83q-1 122 38 224t108 169.5t162.5 104t200.5 35.5q80 0 160 -32t146 -90l23 50q16 39 49 39h159q39 0 39 -39v-564q82 52 180 52q175 0 259 -107.5t84 -325.5z" />
    <glyph glyph-name="f_ij.liga" unicode="f&#x133;" horiz-adv-x="1809" 
d="M808 504h-271v-465q0 -39 -39 -39h-317q-39 0 -39 39v465h-79q-38 0 -38 39v296q0 39 38 39h79v83q0 248 147 390.5t404 142.5q113 0 222 -55q110 -54 190 -149q16 -19 16 -38q0 -17 -12 -29l-218 -210q-13 -13 -29 -13q-22 0 -40 23q-13 18 -26 33q-42 54 -105 54
q-72 0 -113 -38t-41 -105v-89h626q39 0 39 -39v-800q0 -39 -39 -39h-316q-39 0 -39 39v465zM1315 1254q0 94 66.5 160.5t160.5 66.5q92 0 159 -67.5t67 -159.5t-67 -159t-159 -67q-94 0 -160.5 66.5t-66.5 159.5zM1738 839v-1007q0 -210 -125 -330t-343 -120t-343 119
t-125 327v21q0 19 11 29.5t30 10.5h312q41 0 41 -41v-16q0 -32 20 -50t54 -18t53.5 19t19.5 53v203h1v800q0 39 39 39h316q39 0 39 -39z" />
    <glyph glyph-name="f_j.liga" unicode="fj" horiz-adv-x="1273" 
d="M1202 839v-845q0 -228 -126 -343t-373 -115h-12q-41 0 -41 41v261q0 41 41 41h10q55 0 81 19t26 61v545h-271v-465q0 -39 -39 -39h-317q-39 0 -39 39v465h-79q-38 0 -38 39v296q0 39 38 39h79v83q0 248 147 390.5t404 142.5q113 0 222 -55q110 -54 190 -149
q16 -19 16 -38q0 -17 -12 -29l-218 -210q-13 -13 -29 -13q-22 0 -40 23q-13 18 -26 33q-42 54 -105 54q-72 0 -113 -38t-41 -105v-89h626q39 0 39 -39z" />
    <glyph glyph-name="f_k.liga" unicode="fk" horiz-adv-x="1828" 
d="M1824 31q0 -14 -9.5 -22.5t-25.5 -8.5h-354q-36 0 -54 39l-118 226l-36 -41v-185q0 -39 -39 -39h-316q-39 0 -39 39v1003q-56 68 -142 68q-64 0 -109 -42t-45 -101v-89h139q18 0 28.5 -10.5t10.5 -28.5v-256q0 -39 -39 -39h-139v-505q0 -39 -39 -39h-317q-39 0 -39 39
v505h-79q-38 0 -38 39v256q0 39 38 39h79v83q-1 122 38 224t108 169.5t162.5 104t200.5 35.5q80 0 160 -32t146 -90l23 50q16 39 49 39h159q39 0 39 -39v-779l150 207q14 18 28 23t43 5h338q38 0 38 -29q0 -15 -10 -28l-268 -308l269 -452q9 -17 9 -30z" />
    <glyph glyph-name="f_l.liga" unicode="fl" horiz-adv-x="1301" 
d="M1227 1422v-1383q0 -39 -39 -39h-316q-39 0 -39 39v1003q-56 68 -142 68q-64 0 -109 -42t-45 -101v-89h139q18 0 28.5 -10.5t10.5 -28.5v-256q0 -39 -39 -39h-139v-505q0 -39 -39 -39h-317q-39 0 -39 39v505h-79q-38 0 -38 39v256q0 39 38 39h79v83q-1 122 38 224
t108 169.5t162.5 104t200.5 35.5q80 0 160 -32t146 -90l23 50q16 39 49 39h159q39 0 39 -39z" />
    <glyph glyph-name="f_t.liga" unicode="ft" horiz-adv-x="1442" 
d="M1421 839v-256q0 -39 -38 -39h-139v-505q0 -39 -39 -39h-316q-39 0 -39 39v465h-313v-465q0 -39 -39 -39h-317q-39 0 -39 39v465h-79q-38 0 -38 39v296q0 39 38 39h79v83q0 248 137 390.5t377 142.5q125 0 218 -57q18 -12 18 -31q0 -7 -4 -18l-110 -277q-9 -23 -28 -23
q-10 0 -18 5q-29 17 -72 17q-57 0 -90 -38t-33 -105v-89h312v153q0 35 33 47l314 124q7 4 18 4q29 0 29 -37v-291h140q38 0 38 -39z" />
    <glyph glyph-name=".notdef" horiz-adv-x="1105" 
d="M553 57q-135 -3 -251.5 66.5t-182.5 185.5t-64 245q0 138 68 253q67 114 182 181q115 66 248 66q135 3 251.5 -68t182 -187.5t63.5 -244.5q0 -172 -102.5 -302.5t-261.5 -176.5q-60 -18 -133 -18zM553 1013q-125 2 -232 -62t-167 -171t-58 -226q-2 -119 59 -226.5
t168.5 -172t229.5 -61.5q90 -2 175.5 35t148 99.5t99.5 148.5t35 177q1 158 -97 280.5t-241 160.5q-54 18 -120 18zM825 861h-550q120 107 278 107q157 0 272 -107zM871 291h-548l536 540q105 -129 105 -277q0 -147 -93 -263zM780 816l-536 -538q-103 119 -103 276
q0 146 92 262h547zM278 246h551q-124 -105 -276 -105q-151 0 -275 105z" />
    <glyph glyph-name=".null" 
 />
    <glyph glyph-name="nonmarkingreturn" horiz-adv-x="682" 
 />
    <glyph glyph-name="CR" unicode="&#xd;" horiz-adv-x="614" 
 />
    <glyph glyph-name="space" unicode=" " horiz-adv-x="538" 
 />
    <glyph glyph-name="exclam" unicode="!" horiz-adv-x="610" 
d="M120 526l-30 906q-1 20 10.5 31.5t32.5 11.5h343q21 0 32.5 -11.5t10.5 -31.5l-30 -906q-2 -43 -44 -43h-281q-42 0 -44 43zM81 189q0 92 65.5 157t157.5 65q89 2 156 -65.5t65 -156.5q0 -91 -65.5 -156.5t-155.5 -65.5q-92 0 -157.5 65.5t-65.5 156.5z" />
    <glyph glyph-name="quotedbl" unicode="&#x22;" horiz-adv-x="854" 
d="M84 932l-9 484q0 44 43 44h196q22 0 30 -11t8 -33l-10 -489q0 -21 -8 -29.5t-27 -8.5h-190q-20 0 -26 9.5t-7 33.5zM511 932l-9 484q0 44 43 44h196q22 0 30 -11t8 -33l-10 -489q0 -21 -8 -29.5t-27 -8.5h-190q-20 0 -26 9.5t-7 33.5z" />
    <glyph glyph-name="numbersign" unicode="#" horiz-adv-x="1236" 
d="M1204 1060l-30 -196q-6 -40 -42 -40h-130l-31 -199h121q20 0 31 -11.5t8 -29.5l-30 -196q-6 -40 -42 -40h-130l-47 -305q-4 -19 -15.5 -31t-27.5 -12h-202q-36 0 -36 34l1 9l47 305h-177l-47 -305q-4 -20 -15.5 -31.5t-27.5 -11.5h-202q-36 0 -36 34l1 9l47 305h-123
q-13 0 -27 13t-12 27l30 194q7 43 42 43h132l31 199h-123q-13 0 -27 13t-12 27l30 194q7 43 42 43h132l49 316q7 44 43 44h200q17 0 27.5 -10t10.5 -26l-1 -8l-49 -316h177l49 316q7 44 43 44h200q17 0 27.5 -10t10.5 -26l-1 -8l-49 -316h121q20 0 31 -11.5t8 -29.5z
M691 625l31 199h-177l-31 -199h177z" />
    <glyph glyph-name="dollar" unicode="$" horiz-adv-x="1261" 
d="M735 -35v-85q0 -20 -11 -32.5t-28 -13.5h-76q-18 1 -28.5 13.5t-10.5 32.5v85q-140 11 -272 43q-133 34 -219 87q-27 17 -27 45q0 20 12 43l131 270q17 33 54 33q14 0 34 -7q171 -61 287 -71v152q-9 3 -18.5 6t-12.5 4h-2q-128 39 -208.5 77.5t-134.5 91.5t-76.5 119
t-24.5 162q-1 99 38 183.5t106.5 142t152.5 93t180 45.5v139q0 20 10.5 33t28.5 13h76q17 0 28 -13t11 -33v-138q126 -14 232 -56q113 -45 173 -82q39 -25 39 -55q0 -16 -14 -46l-131 -277q-13 -28 -43 -28q-23 0 -59 17q-118 56 -197 76v-148l40 -12q150 -43 241 -87
q92 -44 148 -125q58 -82 58 -219q2 -197 -136 -328.5t-351 -149.5zM581 948v98q-45 -12 -45 -50q0 -22 45 -48zM765 455q0 30 -30 47v-91q30 15 30 44z" />
    <glyph glyph-name="percent" unicode="%" horiz-adv-x="1924" 
d="M363 57l1064 1432q17 21 40 21q17 0 30 -10l53 -40q14 -11 14 -28q0 -16 -11 -32l-1065 -1431q-17 -23 -39 -23q-14 0 -31 11l-53 40q-14 11 -14 28q0 15 12 32zM492 1495q114 2 212.5 -55t156 -155.5t55.5 -212.5q2 -113 -55.5 -211.5t-156 -156t-212.5 -55.5
q-113 -2 -211 55.5t-154.5 156t-54.5 211.5q-1 85 32 164t90 136t135 90.5t163 32.5zM493 935q57 0 97.5 40t40.5 97t-40.5 97t-97.5 40t-97 -40t-40 -97t40 -97t97 -40zM1469 809q114 2 212.5 -55t156 -155.5t55.5 -212.5q2 -113 -55.5 -211.5t-156 -156t-212.5 -55.5
q-113 -2 -211 55.5t-154.5 156t-54.5 211.5q-1 85 32 164t90 136t135 90.5t163 32.5zM1470 249q57 0 97.5 40t40.5 97t-40.5 97t-97.5 40t-97 -40t-40 -97t40 -97t97 -40z" />
    <glyph glyph-name="ampersand" unicode="&#x26;" horiz-adv-x="1651" 
d="M1650 740q0 -16 -5 -33q-41 -126 -140 -205.5t-218 -79.5h-17q-26 -204 -187 -330.5t-395 -124.5q-267 -3 -439 146t-169 379q0 171 154 277q-105 119 -105 281q-3 196 140 321.5t364 123.5q218 2 358 -123.5t138 -321.5q0 -31 -21.5 -50t-55.5 -19l-247 -2
q-31 0 -50.5 20t-19.5 51q0 39 -29 63.5t-75 24.5q-48 0 -78 -25t-30 -65q0 -44 24.5 -74t64.5 -34q32 -4 51 -24.5t16 -48.5l-24 -223q-3 -23 -19.5 -37t-41.5 -14q-9 0 -12 1l-10 1q-3 1 -16 1q-82 0 -82 -103q0 -58 59.5 -93.5t154.5 -35.5q90 0 146 39t56 103v10
q-31 -1 -83 -14q-10 -2 -23 -2q-33 0 -52 20.5t-17 54.5l17 227q2 28 19.5 49t43.5 29q46 13 103 13q22 0 29 -1q69 -8 155 -45q88 -39 154 -39q46 0 59 39q14 42 62 42q15 0 35 -7l218 -79q40 -14 40 -63z" />
    <glyph glyph-name="quotesingle" unicode="'" horiz-adv-x="427" 
d="M84 932l-9 484q0 44 43 44h196q22 0 30 -11t8 -33l-10 -489q0 -21 -8 -29.5t-27 -8.5h-190q-20 0 -26 9.5t-7 33.5z" />
    <glyph glyph-name="parenleft" unicode="(" horiz-adv-x="778" 
d="M789 -107q0 -9 -1 -12l-27 -261q-3 -28 -42 -28q-222 3 -357.5 109t-201.5 340.5t-68 624.5q0 6 1 7q-1 1 -1 7q0 1072 627 1073q39 0 42 -28l27 -261q1 -3 1 -11q0 -39 -48 -39q-249 0 -249 -738v-3v-3q0 -380 60.5 -559.5t188.5 -179.5q48 0 48 -38z" />
    <glyph glyph-name="parenright" unicode=")" horiz-adv-x="778" 
d="M685 673q1 -1 1 -7q-2 -390 -68.5 -624.5t-201.5 -340.5t-357 -109q-39 0 -42 28l-27 261q-1 3 -1 12q0 38 48 38q128 0 188.5 179.5t60.5 559.5v3v3q0 738 -249 738q-48 0 -48 39q0 8 1 11l27 261q3 28 42 28q627 0 627 -1073q0 -6 -1 -7z" />
    <glyph glyph-name="asterisk" unicode="*" horiz-adv-x="966" 
d="M881 1163v-222q0 -15 -9.5 -24t-24.5 -9l-9 1l-150 25l93 -117q12 -13 12 -27q0 -17 -17 -26l-190 -109q-12 -5 -18 -5q-24 0 -32 25l-53 129l-53 -127q-11 -27 -34 -27q-7 0 -14 4l-193 112q-17 9 -17 26q0 13 11 27l94 116l-146 -23q-2 -1 -9 -1q-34 0 -34 32l1 220
q0 17 11.5 26.5t30.5 7.5l137 -19l-84 110q-10 13 -10 28q0 16 14 24l194 112q12 5 17 5q24 0 32 -26l54 -142l55 141q9 26 30 26q10 0 18 -5l189 -111q18 -9 18 -28q0 -15 -10 -25l-87 -111l140 18q19 2 31 -6.5t12 -24.5z" />
    <glyph glyph-name="plus" unicode="+" horiz-adv-x="882" 
d="M836 578v-185q0 -20 -13.5 -33t-34.5 -13h-208v-212q0 -18 -13.5 -31.5t-32.5 -13.5h-183q-20 0 -34 13.5t-14 33.5v210h-212q-18 0 -31.5 13.5t-13.5 32.5v182q0 21 13.5 35t33.5 14h210v211q0 20 13 32.5t33 12.5h185q20 0 33 -13.5t13 -33.5v-209h211q20 0 32.5 -13
t12.5 -33z" />
    <glyph glyph-name="comma" unicode="," horiz-adv-x="620" 
d="M301 410q97 2 167.5 -78.5t68.5 -190.5q0 -140 -38.5 -245.5t-119.5 -192.5q-14 -14 -36 -14q-20 0 -34 11l-89 69q-12 11 -12 27q0 22 19 44q28 30 47 64t19 54q0 8 -4.5 14t-10.5 6h-17q-74 0 -126 61t-52 149q0 92 63.5 157t154.5 65z" />
    <glyph glyph-name="hyphen" unicode="-" horiz-adv-x="876" 
d="M109 314v252q0 25 15 41t35 16h557q51 0 51 -53v-256q0 -23 -16 -36.5t-41 -13.5h-551q-20 0 -35 14t-15 36z" />
    <glyph glyph-name="period" unicode="." horiz-adv-x="610" 
d="M83 188q0 92 65.5 157t157.5 65q89 2 156 -65.5t65 -156.5q0 -91 -65.5 -156.5t-155.5 -65.5q-92 0 -157.5 65.5t-65.5 156.5z" />
    <glyph glyph-name="slash" unicode="/" horiz-adv-x="1078" 
d="M386 0h-347q-29 0 -29 22q0 6 5 21l617 1373q20 44 62 44h344q30 0 30 -22q0 -10 -5 -22l-615 -1373q-18 -43 -62 -43z" />
    <glyph glyph-name="zero" unicode="0" horiz-adv-x="1409" 
d="M705 1489q304 3 482 -203t176 -558q2 -352 -176 -558t-482 -203q-305 -3 -483 203t-176 558q-2 352 176 558t483 203zM706 361q122 0 192 98.5t70 269.5q0 170 -70 268t-192 98t-192 -98t-70 -268q0 -172 70 -270t192 -98z" />
    <glyph glyph-name="one" unicode="1" horiz-adv-x="781" 
d="M679 1389v-1309q0 -35 -22.5 -57t-59.5 -22h-232q-37 0 -58.5 21t-21.5 56v916l-159 -70q-14 -7 -30 -7q-21 0 -34.5 15t-13.5 39v283q0 59 34 77l196 97q67 34 122 34h213q66 0 66 -73z" />
    <glyph glyph-name="two" unicode="2" horiz-adv-x="1171" 
d="M1116 339v-272q0 -31 -17.5 -48.5t-48.5 -17.5h-930q-37 0 -58 16.5t-21 44.5v197q0 48 17 68l543 525q65 63 65 122q0 49 -29 76.5t-81 27.5q-36 0 -70 -24t-57 -66q-15 -27 -41 -27q-21 0 -43 16l-241 162q-22 15 -22 40q0 15 11 35q79 127 203 201q124 73 260 73
q236 2 378.5 -141.5t140.5 -372.5q0 -117 -47 -225q-46 -103 -130 -172l-205 -166h351q34 0 53 -19t19 -53z" />
    <glyph glyph-name="three" unicode="3" horiz-adv-x="1116" 
d="M1066 430q0 -214 -139 -339t-375 -125q-313 0 -493 192q-33 34 -33 70q0 25 17 39l202 166q23 20 47 20q23 0 40 -20q58 -72 205 -72q63 0 99 27.5t36 74.5q0 112 -129 112h-120q-30 0 -47 16t-17 45v222q0 30 15.5 47.5t42.5 17.5h100q44 0 69 22t25 62t-26 63.5
t-71 23.5q-73 0 -121 -62q-18 -23 -41 -23q-19 0 -38 16l-210 173q-17 14 -17 35q0 20 13 39q70 100 180 159q110 58 235 58q226 0 355 -118t129 -325q0 -198 -125 -284q93 -35 142.5 -120.5t49.5 -211.5z" />
    <glyph glyph-name="four" unicode="4" horiz-adv-x="1278" 
d="M1231 523v-250q0 -83 -68 -83h-98v-137q0 -53 -51 -53h-287q-30 0 -43 13t-13 42v134h-565q-28 0 -52 18.5t-24 42.5v263q0 32 21 69l523 832q16 25 32.5 35t45.5 10h348q65 0 65 -68v-806h102q29 0 46.5 -17t17.5 -45zM513 584h158v248z" />
    <glyph glyph-name="five" unicode="5" horiz-adv-x="1177" 
d="M1142 482q0 -141 -71 -260q-70 -118 -192 -187q-121 -69 -268 -69q-144 -2 -300 73.5t-223 183.5q-11 17 -11 39q0 41 32 68l181 157q16 15 40 15q37 0 63 -32q38 -47 103 -80q62 -30 112 -30q65 0 102.5 33t37.5 89t-32.5 91t-79.5 35q-53 0 -73 -4q-23 -3 -41 -10
q-15 -6 -25 -12q-25 -14 -59 -14h-231q-35 0 -59 26.5t-21 60.5l74 735q3 30 23 50t46 20h720q34 0 57.5 -22.5t23.5 -54.5v-230q0 -35 -21 -58.5t-52 -23.5h-434l-16 -102q66 32 120 32q142 2 251.5 -67.5t166.5 -187.5t56 -264z" />
    <glyph glyph-name="six" unicode="6" horiz-adv-x="1204" 
d="M1152 519q0 -149 -74 -276q-74 -125 -201 -198q-127 -72 -280 -72q-114 -2 -217.5 41.5t-179 119.5t-119 185t-41.5 231q0 275 103 488q104 215 277 375q24 20 56 34t56 14h335q83 0 83 -37q0 -22 -34 -49q-95 -75 -191 -176q-98 -104 -158 -190q71 23 135 23
q121 2 225.5 -67t165.5 -188.5t59 -257.5zM758 525q0 65 -48 111.5t-116 46.5q-66 0 -113 -46.5t-47 -111.5t47 -111.5t113 -46.5q68 0 116 46.5t48 111.5z" />
    <glyph glyph-name="seven" unicode="7" horiz-adv-x="1163" 
d="M125 1461h914q29 0 45 -16t16 -44v-220q0 -68 -19 -105l-501 -1031q-24 -45 -74 -45h-302q-53 0 -53 38q0 14 10 35l469 994h-504q-31 0 -49 17.5t-18 48.5v263q0 31 17.5 48t48.5 17z" />
    <glyph glyph-name="eight" unicode="8" horiz-adv-x="1239" 
d="M624 -34q-264 0 -415 121t-151 333q0 114 52.5 202.5t151.5 143.5q-132 101 -132 280q0 207 131.5 325t362.5 118q232 0 365 -115.5t133 -316.5q0 -186 -137 -291q99 -55 151.5 -143.5t52.5 -202.5q0 -212 -150.5 -333t-414.5 -121zM536 1017q0 -39 23 -61.5t65 -22.5
q41 0 64.5 22.5t23.5 61.5q0 41 -23.5 64t-64.5 23q-42 0 -65 -23t-23 -64zM759 468q0 58 -34 93t-93 35q-66 0 -102 -34t-36 -94q0 -54 34 -85.5t96 -31.5q63 0 99 31.5t36 85.5z" />
    <glyph glyph-name="nine" unicode="9" horiz-adv-x="1174" 
d="M1144 911q0 -275 -103 -488q-104 -215 -277 -375q-24 -20 -56 -34t-56 -14h-335q-83 0 -83 37q0 22 34 49q100 80 190 175q95 99 159 191q-71 -23 -135 -23q-121 -2 -226 67t-165.5 188.5t-58.5 257.5q0 151 73 275q73 126 201 198q127 73 281 73q114 2 217.5 -41.5
t179 -119.5t119 -185t41.5 -231zM750 936q0 65 -47 111.5t-113 46.5q-68 0 -116 -46.5t-48 -111.5t48 -111.5t116 -46.5q66 0 113 46.5t47 111.5z" />
    <glyph glyph-name="colon" unicode=":" horiz-adv-x="610" 
d="M83 694q0 92 65.5 157t157.5 65q89 2 156 -65.5t65 -156.5q0 -91 -65.5 -156.5t-155.5 -65.5q-92 0 -157.5 65.5t-65.5 156.5zM83 188q0 92 65.5 157t157.5 65q89 2 156 -65.5t65 -156.5q0 -91 -65.5 -156.5t-155.5 -65.5q-92 0 -157.5 65.5t-65.5 156.5z" />
    <glyph glyph-name="semicolon" unicode=";" horiz-adv-x="627" 
d="M308 398q97 2 167.5 -78.5t68.5 -190.5q0 -140 -38.5 -245.5t-119.5 -192.5q-14 -14 -36 -14q-20 0 -34 11l-89 69q-12 11 -12 27q0 22 19 44q28 30 47 64t19 54q0 8 -4.5 14t-10.5 6h-17q-74 0 -126 61t-52 149q0 92 63.5 157t154.5 65zM83 694q0 92 65.5 157t157.5 65
q89 2 156 -65.5t65 -156.5q0 -91 -65.5 -156.5t-155.5 -65.5q-92 0 -157.5 65.5t-65.5 156.5z" />
    <glyph glyph-name="less" unicode="&#x3c;" horiz-adv-x="882" 
d="M791 656l-365 -140l365 -141q20 -7 32.5 -22t12.5 -32v-189q0 -50 -43 -50q-17 0 -38 9l-672 296q-16 7 -26.5 23t-10.5 33v145q0 17 10.5 33t26.5 23l672 296q21 9 38 9q43 0 43 -50v-189q0 -17 -12.5 -32t-32.5 -22z" />
    <glyph glyph-name="equal" unicode="=" horiz-adv-x="882" 
d="M46 620v182q0 21 13.5 35t33.5 14h698q20 0 32.5 -13t12.5 -33v-185q0 -20 -13.5 -33t-34.5 -13h-697q-18 0 -31.5 13.5t-13.5 32.5zM46 167v182q0 21 13.5 35t33.5 14h698q20 0 32.5 -13t12.5 -33v-185q0 -20 -13.5 -33t-34.5 -13h-697q-18 0 -31.5 13.5t-13.5 32.5z
" />
    <glyph glyph-name="greater" unicode="&#x3e;" horiz-adv-x="882" 
d="M836 588v-145q0 -17 -10.5 -33t-26.5 -23l-672 -296q-21 -9 -38 -9q-43 0 -43 50v189q0 17 12.5 32t32.5 22l365 141l-365 140q-20 7 -32.5 22t-12.5 32v189q0 50 43 50q17 0 38 -9l672 -296q16 -7 26.5 -23t10.5 -33z" />
    <glyph glyph-name="question" unicode="?" horiz-adv-x="1039" 
d="M695 596l-5 -73q-2 -17 -17 -28.5t-36 -11.5l-262 -2q-23 0 -40 12.5t-18 30.5l-8 102l-1 18q0 82 49 167.5t114 115.5q72 33 102 56.5t30 54.5q0 24 -20.5 41t-50.5 17q-26 0 -43.5 -17.5t-17.5 -43.5q0 -21 -17.5 -39t-40.5 -18h-297q-21 0 -37 17t-16 38
q-3 208 132.5 335.5t336.5 125.5q126 2 235 -59.5t172 -167.5t61 -229q0 -75 -43 -154q-43 -78 -139 -133q-56 -32 -89.5 -75t-33.5 -80zM289 187q0 92 65.5 157t157.5 65q89 2 156 -65.5t65 -156.5q0 -91 -65.5 -156.5t-155.5 -65.5q-92 0 -157.5 65.5t-65.5 156.5z" />
    <glyph glyph-name="at" unicode="@" horiz-adv-x="1854" 
d="M1808 483q0 -233 -117 -367.5t-312 -134.5q-119 0 -202.5 41.5t-113.5 113.5q-80 -117 -221 -117q-148 0 -241 113t-93 289q-2 175 93 291t241 114q120 0 197 -87l27 35q7 13 26 13h196q36 0 36 -35v-394q0 -45 22.5 -75.5t53.5 -30.5q63 0 98.5 59.5t35.5 171.5
q3 159 -79.5 288t-222.5 199t-304 68q-166 0 -305 -82q-138 -80 -221 -220q-81 -140 -81 -304q-3 -258 160 -424t416 -163q75 0 147 19q3 1 10 1q25 0 30 -25l46 -208q4 -12 -3 -22t-19 -13q-102 -27 -211 -27q-239 0 -433 108t-306 304t-112 450q0 240 118 442t321 321
q202 118 443 118q243 0 443 -106q203 -107 319 -296q118 -188 118 -428zM996 422q0 37 -25 62t-61 25t-61 -25t-25 -62q0 -36 25 -61t61 -25t61 25t25 61z" />
    <glyph glyph-name="A" unicode="A" horiz-adv-x="1474" 
d="M1469 39q0 -18 -13 -29t-37 -11h-350q-26 0 -47 15.5t-29 40.5l-43 138h-426l-43 -137q-7 -24 -28.5 -40t-48.5 -16h-350q-49 0 -49 41q0 14 5 26l518 1337q11 26 33 41.5t47 15.5h260q25 0 46.5 -15.5t31.5 -41.5l517 -1338q6 -14 6 -27zM636 555h201l-101 323z" />
    <glyph glyph-name="B" unicode="B" horiz-adv-x="1306" 
d="M1260 453q0 -213 -141.5 -333t-394.5 -120h-578q-20 0 -32 11.5t-12 32.5v1373q0 21 12 32.5t32 11.5h536q242 0 378 -116t136 -321q0 -77 -32 -143t-89 -105q87 -46 136 -131.5t49 -191.5zM673 1067h-130v-159h130q40 0 62 21t22 59q0 37 -22 58t-62 21zM819 499
q0 46 -27.5 71.5t-77.5 25.5h-171v-201h171q49 0 77 27.5t28 76.5z" />
    <glyph glyph-name="C" unicode="C" horiz-adv-x="1318" 
d="M1042 480q29 0 45 -22l184 -284q6 -9 6 -20q0 -31 -34 -55q-82 -57 -203 -95q-124 -39 -223 -39q-212 0 -390 101q-176 102 -279 277q-102 175 -102 385t102 386q104 176 279 276q177 102 390 102q96 0 224 -41q122 -39 211 -100q26 -20 26 -48q0 -17 -8 -28l-187 -281
q-14 -20 -41 -20q-24 0 -45 15q-35 26 -88 44q-51 19 -92 19q-136 3 -235 -94t-96 -230q-3 -132 96 -228t235 -94q40 0 88 16q51 16 86 41q26 17 51 17z" />
    <glyph glyph-name="D" unicode="D" horiz-adv-x="1420" 
d="M102 61v1338q0 25 18.5 43.5t43.5 18.5h481q213 0 379 -93q166 -91 258 -259q92 -167 92 -380q0 -212 -92 -379q-92 -166 -258 -258t-379 -92h-481q-25 0 -43.5 18.5t-18.5 42.5zM543 418h102q122 -3 205.5 89.5t81.5 221.5q0 138 -81 229.5t-206 90.5l-102 -1v-630z" />
    <glyph glyph-name="E" unicode="E" horiz-adv-x="1277" 
d="M102 61v1337q0 30 16.5 46.5t45.5 16.5h951q29 0 45.5 -17t16.5 -46v-292q0 -29 -16.5 -46t-45.5 -17h-572v-154h416q32 0 50 -17t18 -47v-199q0 -29 -18 -46t-50 -17h-416v-146h567q40 0 63 -22t23 -59v-275q0 -28 -17 -44.5t-45 -16.5h-970q-29 0 -45.5 16.5
t-16.5 44.5z" />
    <glyph glyph-name="F" unicode="F" horiz-adv-x="1175" 
d="M102 61v1338q0 29 16.5 45.5t45.5 16.5h908q29 0 45.5 -16.5t16.5 -46.5v-293q0 -29 -16.5 -45.5t-45.5 -16.5h-528v-233h398q29 0 45.5 -16.5t16.5 -45.5v-219q0 -29 -16.5 -45.5t-45.5 -16.5h-398v-406q0 -28 -16.5 -44.5t-45.5 -16.5h-318q-29 0 -45.5 16.5
t-16.5 44.5z" />
    <glyph glyph-name="G" unicode="G" horiz-adv-x="1375" 
d="M885 416v204q0 26 17.5 43.5t43.5 17.5h318q25 0 42.5 -18t17.5 -43v-475q0 -18 -9.5 -36t-23.5 -26q-80 -48 -219 -83q-135 -34 -254 -34q-212 0 -390 101q-177 102 -280 277q-102 176 -102 385t102 385q104 176 279 276q178 101 390 101q112 0 235 -40q126 -39 198 -97
q25 -20 25 -50q0 -17 -10 -33l-182 -273q-14 -25 -44 -25q-21 0 -39 15q-31 26 -85 45q-51 19 -97 19q-136 2 -235 -94t-96 -229q-3 -133 96 -229t235 -94q21 0 67 10z" />
    <glyph glyph-name="H" unicode="H" horiz-adv-x="1497" 
d="M1395 1416v-1372q0 -21 -12 -32.5t-32 -11.5h-353q-20 0 -32 12t-12 32v493h-411v-493q0 -20 -12 -32t-32 -12h-353q-20 0 -32 11.5t-12 32.5v1372q0 21 12 32.5t32 11.5h353q20 0 32 -12t12 -32v-495h411v495q0 20 12 32t32 12h353q20 0 32 -11.5t12 -32.5z" />
    <glyph glyph-name="I" unicode="I" horiz-adv-x="644" 
d="M542 1417v-1373q0 -44 -44 -44h-352q-44 0 -44 44v1373q0 44 44 44h352q44 0 44 -44z" />
    <glyph glyph-name="J" unicode="J" horiz-adv-x="1061" 
d="M533 456v960q0 45 51 45h337q53 0 53 -45v-960q2 -223 -136 -358t-365 -133q-247 0 -391 186q-22 25 -22 50q0 21 17 36l224 204q19 18 41 18q25 0 43 -23q32 -41 88 -41q25 0 42.5 18.5t17.5 42.5z" />
    <glyph glyph-name="K" unicode="K" horiz-adv-x="1535" 
d="M1527 33q0 -33 -41 -33h-416q-37 0 -59 25l-296 473l-172 -211v-243q0 -21 -12 -32.5t-32 -11.5h-353q-20 0 -32 11.5t-12 32.5v1373q0 21 12 32.5t32 11.5h353q20 0 32 -11.5t12 -32.5v-526l377 528q18 24 37 32.5t53 8.5h404q41 0 41 -36q0 -21 -16 -40l-433 -530
l506 -780q15 -23 15 -41z" />
    <glyph glyph-name="L" unicode="L" horiz-adv-x="1146" 
d="M1086 374v-330q0 -44 -44 -44h-896q-20 0 -32 11.5t-12 32.5v1372q0 21 12 32.5t32 11.5h353q20 0 32 -11.5t12 -32.5v-998h499q21 0 32.5 -12t11.5 -32z" />
    <glyph glyph-name="M" unicode="M" horiz-adv-x="1896" 
d="M1784 0h-331q-29 0 -43.5 14t-17.5 45l-71 656l-141 -667q-9 -34 -23.5 -47t-43.5 -13h-331q-28 0 -42.5 12.5t-23.5 47.5l-141 665l-71 -654q-6 -59 -62 -59h-330q-33 0 -50 16t-13 46l171 1339q8 60 62 60h423q57 0 71 -59l172 -787l171 787q14 59 72 59h423
q54 0 61 -60l171 -1339q4 -30 -12.5 -46t-49.5 -16z" />
    <glyph glyph-name="N" unicode="N" horiz-adv-x="1552" 
d="M1450 1416v-1372q0 -21 -12 -32.5t-32 -11.5h-336q-57 0 -89 53l-438 702v-711q0 -21 -12 -32.5t-32 -11.5h-353q-20 0 -32 11.5t-12 32.5v1372q0 21 12 32.5t32 11.5h365q51 0 87 -54l412 -645v655q0 44 44 44h352q21 0 32.5 -12t11.5 -32z" />
    <glyph glyph-name="O" unicode="O" horiz-adv-x="1618" 
d="M809 1491q209 0 385 -102q176 -101 276 -276q102 -174 102 -385q0 -210 -102 -385q-100 -174 -276 -276q-175 -101 -385 -101t-386 101q-174 102 -276 276q-101 176 -101 385q0 210 101 385q102 176 277 276q175 102 385 102zM809 407q133 -2 229 94t94 227
q2 133 -94 229t-229 94q-133 2 -229 -94t-94 -229q-2 -131 94 -227t229 -94z" />
    <glyph glyph-name="P" unicode="P" horiz-adv-x="1235" 
d="M1205 942q3 -231 -148 -374t-388 -141h-126v-366q0 -28 -17.5 -44.5t-47.5 -16.5h-315q-61 0 -61 61v1336q0 28 17 45.5t44 17.5h160h157h189q237 3 388 -140.5t148 -377.5zM765 944q0 55 -37 92q-38 38 -90 38h-95v-260h95q53 0 90 37t37 93z" />
    <glyph glyph-name="Q" unicode="Q" horiz-adv-x="1618" 
d="M1014 -7v-293q0 -28 -15 -43.5t-43 -15.5h-294q-28 0 -43 15.5t-15 43.5v293q-243 61 -402 268.5t-156 466.5q0 210 101 385q102 176 277 276q175 102 385 102q209 0 385 -102q176 -101 276 -276q102 -174 102 -385q3 -259 -156 -466.5t-402 -268.5zM1132 728
q2 133 -94 229t-229 94q-133 2 -229 -94t-94 -229q-2 -131 94 -227t229 -94q133 -2 229 94t94 227z" />
    <glyph glyph-name="R" unicode="R" horiz-adv-x="1321" 
d="M1287 45q0 -19 -13 -32t-33 -13h-359q-26 0 -40 10t-31 42l-199 386h-69v-377q0 -28 -17.5 -44.5t-47.5 -16.5h-315q-61 0 -61 61v1338q0 27 17 44.5t44 17.5h82h235h221q156 2 279 -61.5t192 -183t67 -273.5q0 -128 -55.5 -234.5t-155.5 -175.5l253 -463q6 -12 6 -25z
M671 1075h-128v-280h128q54 0 91 45t37 105q0 58 -36 94t-92 36z" />
    <glyph glyph-name="S" unicode="S" horiz-adv-x="1261" 
d="M63 140q0 20 12 43l131 270q17 33 54 33q14 0 34 -7q119 -42 204 -59q88 -18 192 -18q34 0 54.5 15t20.5 38q-2 15 -7 24.5t-16 19t-38 20t-61 22t-95 29.5q-128 39 -208.5 77.5t-134.5 91.5t-76.5 119t-24.5 162q0 150 81 256t209 159q128 54 266 54q140 0 271 -48
q129 -46 209 -94q39 -25 39 -55q0 -16 -14 -46l-131 -277q-13 -28 -43 -28q-23 0 -59 17q-96 47 -168.5 69t-153.5 22q-34 0 -54 -15t-20 -38q0 -51 239 -122q150 -43 241 -87q92 -44 148 -125q58 -82 58 -219q2 -141 -71.5 -252.5t-200.5 -170.5t-282 -58q-146 0 -312 36
q-163 34 -266 97q-27 17 -27 45z" />
    <glyph glyph-name="T" unicode="T" horiz-adv-x="1205" 
d="M47 1105v293q0 30 16.5 46.5t45.5 16.5h988q28 0 44.5 -17t16.5 -46v-293q0 -29 -16.5 -46t-44.5 -17h-276v-996q0 -61 -62 -61h-316q-29 0 -45.5 16t-16.5 45v996h-272q-29 0 -45.5 16.5t-16.5 46.5z" />
    <glyph glyph-name="U" unicode="U" horiz-adv-x="1376" 
d="M511 1413v-800q0 -102 38 -160q37 -57 139 -57t139 57q38 58 38 160v800q0 21 13 34t34 13h342q23 0 37 -13t14 -34v-795q0 -318 -158 -485t-459 -167q-617 0 -617 651v796q0 21 11 34t30 13h355q20 0 32 -13t12 -34z" />
    <glyph glyph-name="V" unicode="V" horiz-adv-x="1454" 
d="M1459 1421q0 -12 -6 -27l-519 -1338q-10 -26 -32 -41.5t-47 -15.5h-260q-26 0 -48 16.5t-31 40.5l-516 1338q-5 12 -5 26q0 40 49 40h350q27 0 48 -15.5t29 -41.5l253 -748l259 750q9 26 30 41t46 15h350q24 0 37 -11t13 -29z" />
    <glyph glyph-name="W" unicode="W" horiz-adv-x="2108" 
d="M2113 1421q0 -12 -6 -27l-519 -1338q-10 -25 -32 -41t-47 -16h-260q-25 0 -47.5 16t-31.5 41l-109 327l-127 -327q-10 -26 -32 -41.5t-47 -15.5h-260q-26 0 -48 16.5t-31 40.5l-516 1338q-5 12 -5 26q0 40 49 40h350q27 0 48 -15.5t29 -41.5l253 -748l259 750q9 26 30 41
t46 15h350q24 0 37 -11t13 -29q0 -12 -6 -27l-174 -449l100 -292l257 752q9 25 30 40.5t47 15.5h349q51 0 51 -40z" />
    <glyph glyph-name="X" unicode="X" horiz-adv-x="1484" 
d="M1476 34q0 -34 -52 -34h-400q-21 0 -43.5 14.5t-36.5 38.5l-203 358l-201 -358q-14 -24 -36.5 -38.5t-43.5 -14.5h-401q-51 0 -51 33q0 14 14 37l445 683l-414 636q-15 23 -15 40q0 32 47 32h407q21 0 43.5 -15.5t35.5 -39.5l171 -309l170 309q14 23 37.5 39t42.5 16h407
q46 0 46 -32q0 -17 -14 -39l-394 -636l425 -684q14 -23 14 -36z" />
    <glyph glyph-name="Y" unicode="Y" horiz-adv-x="1392" 
d="M1397 1419q0 -13 -6 -29l-475 -845v-484q0 -28 -16 -44.5t-45 -16.5h-317q-29 0 -46 16.5t-17 44.5v486l-474 843q-6 16 -6 29q0 41 51 41h371q21 0 42.5 -16t34.5 -41l201 -399l203 401q27 55 78 55h370q51 0 51 -41z" />
    <glyph glyph-name="Z" unicode="Z" horiz-adv-x="1408" 
d="M1347 382v-327q0 -26 -15.5 -41t-41.5 -15h-1163q-27 0 -42 15.5t-15 40.5v221q0 46 22 73l561 673h-518q-27 0 -42 15t-15 42v325q0 26 15 41.5t42 15.5h1114q28 0 43.5 -15.5t15.5 -41.5v-214q0 -40 -19 -58l-577 -694h578q26 0 41.5 -15t15.5 -41z" />
    <glyph glyph-name="bracketleft" unicode="[" horiz-adv-x="638" 
d="M502 -42h118q29 0 29 -31v-273q0 -31 -32 -31h-474q-41 0 -41 43v2038q0 43 41 43h474q32 0 32 -31v-273q0 -31 -29 -31h-118v-1454z" />
    <glyph glyph-name="backslash" unicode="\" horiz-adv-x="1078" 
d="M630 43l-615 1373q-5 12 -5 22q0 22 30 22h344q42 0 62 -44l617 -1373q5 -15 5 -21q0 -22 -29 -22h-347q-44 0 -62 43z" />
    <glyph glyph-name="bracketright" unicode="]" horiz-adv-x="638" 
d="M536 1704v-2038q0 -43 -41 -43h-474q-32 0 -32 31v273q0 31 29 31h118v1454h-118q-29 0 -29 31v273q0 31 32 31h474q41 0 41 -43z" />
    <glyph glyph-name="asciicircum" unicode="^" horiz-adv-x="1086" 
d="M30 911q0 30 43 76l381 437q40 47 89 47q20 0 45 -13t44 -34l382 -437q42 -48 42 -76q0 -29 -45 -29h-293q-42 0 -81 39l-93 136l-101 -134q-30 -41 -74 -41h-293q-46 0 -46 29z" />
    <glyph glyph-name="underscore" unicode="_" horiz-adv-x="1078" 
d="M-31 -337v213q0 15 9.5 24t24.5 9h1073q15 0 24 -8.5t9 -22.5v-215q0 -14 -9.5 -22.5t-25.5 -8.5h-1073q-14 0 -23 9t-9 22z" />
    <glyph glyph-name="grave" unicode="`" horiz-adv-x="614" 
d="M316 1011l-265 163q-25 14 -25 44q0 22 15 42l66 83q17 21 38 21q23 0 54 -23l248 -189q21 -16 21 -37q0 -18 -19 -46l-42 -58q-15 -21 -37 -21t-54 21z" />
    <glyph glyph-name="a" unicode="a" horiz-adv-x="1009" 
d="M947 562v-517q0 -21 -11 -33t-30 -12l-189 2q-20 0 -31 17l-39 61q-45 -51 -126 -83q-78 -31 -155 -31q-157 0 -244 75t-87 213q0 245 327 246l201 1v31q0 27 -27 42.5t-73 15.5q-132 0 -225 -34q-15 -6 -27 -6q-20 0 -31 23l-75 186q-6 15 -6 26q0 25 33 41
q63 32 170 59q104 26 181 26q216 0 340 -93.5t124 -255.5zM563 347h-79q-38 0 -56 -16t-18 -42t16 -41t45 -15q47 0 69 25.5t23 88.5z" />
    <glyph glyph-name="b" unicode="b" horiz-adv-x="1048" 
d="M1026 436q2 -204 -109 -338.5t-282 -131.5q-162 0 -253 129l-50 -77q-10 -16 -30 -16h-189q-19 0 -30.5 11.5t-11.5 30.5v1376q0 19 11.5 30.5t30.5 11.5h314q17 0 28 -11.5t11 -30.5l-3 -560q74 50 172 50q171 3 282 -132.5t109 -341.5zM656 438q0 43 -29 72t-71 29
t-71.5 -29t-29.5 -72q0 -42 29.5 -71.5t71.5 -29.5t71 29.5t29 71.5z" />
    <glyph glyph-name="c" unicode="c" horiz-adv-x="842" 
d="M621 380q19 0 33 -20l159 -230q9 -14 9 -27q0 -19 -18 -32q-131 -106 -297 -106q-129 -3 -242 61t-179.5 174.5t-63.5 235.5q0 128 65 238q64 108 176 172t244 64q169 0 297 -101q18 -14 18 -31q0 -12 -9 -26l-157 -240q-11 -20 -31 -20q-12 0 -27 9l-8 5q-9 5 -16 9
q-40 24 -61 24q-41 0 -64.5 -26.5t-23.5 -74.5q0 -47 23.5 -74t64.5 -27q25 0 60 23q7 4 15 9l9 5q13 6 24 6z" />
    <glyph glyph-name="d" unicode="d" horiz-adv-x="1048" 
d="M977 1420v-1376q0 -19 -11.5 -30.5t-30.5 -11.5h-189q-20 0 -30 16l-50 77q-91 -129 -253 -129q-171 -3 -282 131.5t-109 338.5q-2 206 109 341.5t282 132.5q98 0 172 -50l-3 560q0 19 11 30.5t28 11.5h314q19 0 30.5 -11.5t11.5 -30.5zM593 438q0 43 -29.5 72t-71.5 29
t-71 -29t-29 -72q0 -42 29 -71.5t71 -29.5t71.5 29.5t29.5 71.5z" />
    <glyph glyph-name="e" unicode="e" horiz-adv-x="977" 
d="M843 354h-4h-462q10 -41 48 -66.5t91 -25.5q80 0 135 35q13 8 25 8q18 0 34 -21q32 -48 110 -158q10 -13 10 -28q0 -18 -18 -31q-132 -102 -305 -102q-129 -3 -242 61t-179.5 174.5t-63.5 235.5q-2 127 63 237.5t177.5 174.5t241.5 62q196 3 324.5 -115t126.5 -294
q0 -65 -28 -104t-84 -43zM379 510h231q-8 42 -39.5 67.5t-75.5 25.5q-41 0 -73 -26.5t-43 -66.5z" />
    <glyph glyph-name="f" unicode="f" horiz-adv-x="749" 
d="M892 1406q0 -7 -4 -18l-111 -277q-9 -23 -28 -23q-5 0 -17 5q-29 17 -72 17q-57 0 -90 -38t-33 -105v-89h139q18 0 28.5 -10.5t10.5 -28.5v-256q0 -39 -39 -39h-139v-505q0 -39 -39 -39h-317q-39 0 -39 39v505h-79q-38 0 -38 39v256q0 39 38 39h79v83q0 248 137 390.5
t377 142.5q125 0 218 -57q18 -12 18 -31z" />
    <glyph glyph-name="g" unicode="g" horiz-adv-x="971" 
d="M971 827v-187q0 -24 -14 -38.5t-36 -12.5l-77 8q41 -55 41 -144q3 -148 -116 -252.5t-295 -101.5q-65 0 -130 20q-15 -4 -24 -14.5t-9 -22.5q0 -10 13 -20t29 -10l212 1q175 0 281.5 -82.5t106.5 -222.5q0 -172 -116 -274.5t-324 -102.5q-110 0 -235 20q-127 20 -196 50
q-28 13 -28 42q0 10 3 19l72 220q8 23 39 23q10 0 18 -2q120 -31 166 -37q56 -9 117 -9q140 0 140 42q0 32 -60 32h-200q-164 0 -249 75.5t-85 214.5q0 135 118 221q-62 100 -62 222q-2 180 112.5 295.5t292.5 113.5q82 0 175 -35h270q22 0 36 -14.5t14 -36.5zM565 507
q0 35 -26 61t-61 26q-36 0 -62 -26t-26 -61t26 -61t62 -26t61.5 25.5t25.5 61.5z" />
    <glyph glyph-name="h" unicode="h" horiz-adv-x="1052" 
d="M990 477v-434q0 -41 -41 -41h-312q-41 0 -41 41v437q0 24 -18 39t-43 15q-31 0 -50.5 -20.5t-19.5 -58.5v-416q0 -39 -39 -39h-316q-39 0 -39 39v1383q0 39 39 39h316q39 0 39 -39v-566q83 54 182 54q175 0 259 -107.5t84 -325.5z" />
    <glyph glyph-name="i" unicode="i" horiz-adv-x="536" 
d="M42 1254q0 94 66.5 160.5t160.5 66.5q92 0 159 -67.5t67 -159.5t-67 -159t-159 -67q-94 0 -160.5 66.5t-66.5 159.5zM465 839v-800q0 -39 -39 -39h-316q-39 0 -39 39v800q0 39 39 39h316q39 0 39 -39z" />
    <glyph glyph-name="j" unicode="j" horiz-adv-x="536" 
d="M42 1254q0 94 66.5 160.5t160.5 66.5q92 0 159 -67.5t67 -159.5t-67 -159t-159 -67q-94 0 -160.5 66.5t-66.5 159.5zM465 839v-845q0 -228 -126 -343t-373 -115h-12q-41 0 -41 41v261q0 41 41 41h10q55 0 81 19t26 61v880q0 39 39 39h316q39 0 39 -39z" />
    <glyph glyph-name="k" unicode="k" horiz-adv-x="1068" 
d="M1064 31q0 -14 -9.5 -22.5t-25.5 -8.5h-354q-36 0 -54 39l-118 226l-38 -43v-183q0 -39 -39 -39h-316q-39 0 -39 39v1383q0 39 39 39h316q39 0 39 -39v-782l152 210q14 18 28 23t43 5h338q38 0 38 -29q0 -15 -10 -28l-268 -308l269 -452q9 -17 9 -30z" />
    <glyph glyph-name="l" unicode="l" horiz-adv-x="536" 
d="M465 1422v-1383q0 -39 -39 -39h-316q-39 0 -39 39v1383q0 39 39 39h316q39 0 39 -39z" />
    <glyph glyph-name="m" unicode="m" horiz-adv-x="1585" 
d="M1523 477v-434q0 -41 -41 -41h-313q-41 0 -41 41v437q0 24 -17 39t-39 15q-34 0 -57.5 -18t-23.5 -48v-425q0 -41 -41 -41h-312q-41 0 -41 41v437q0 23 -17 38.5t-39 15.5q-31 0 -53 -23.5t-22 -55.5v-412q0 -41 -41 -41h-313q-41 0 -41 41v794q0 19 11.5 30.5t30.5 11.5
h182q27 0 44 -25l50 -78q53 65 120.5 99.5t138.5 34.5q176 0 263 -117q47 56 120 86q72 31 149 31q170 0 256.5 -109.5t86.5 -323.5z" />
    <glyph glyph-name="n" unicode="n" horiz-adv-x="1053" 
d="M991 477v-434q0 -41 -41 -41h-312q-41 0 -41 41v437q0 24 -18 39t-43 15q-31 0 -50.5 -20.5t-19.5 -58.5v-412q0 -41 -41 -41h-313q-41 0 -41 41v794q0 19 11.5 30.5t30.5 11.5h182q27 0 44 -25l45 -70q108 126 264 126q175 0 259 -107.5t84 -325.5z" />
    <glyph glyph-name="o" unicode="o" horiz-adv-x="1011" 
d="M507 910q127 2 240 -63t179 -175.5t63 -235.5q3 -124 -63.5 -234.5t-179 -174.5t-239.5 -62q-129 -3 -242 61t-179.5 174.5t-63.5 235.5q0 128 65 238q64 108 176 172t244 64zM505 337q42 0 71 29.5t29 71.5q0 43 -29 72t-71 29t-71.5 -29t-29.5 -72q0 -42 29.5 -71.5
t71.5 -29.5z" />
    <glyph glyph-name="p" unicode="p" horiz-adv-x="1047" 
d="M1025 441q2 -206 -109 -341.5t-282 -132.5q-98 0 -172 50l3 -396q0 -19 -10.5 -30.5t-28.5 -11.5h-313q-19 0 -30.5 11.5t-11.5 30.5v1213q0 19 11.5 30.5t30.5 11.5h188q17 0 30 -17l50 -77q91 129 253 129q171 3 282 -131.5t109 -338.5zM655 439q0 43 -29 72.5
t-71 29.5t-71.5 -29.5t-29.5 -72.5q0 -42 29.5 -71t71.5 -29t71 29t29 71z" />
    <glyph glyph-name="q" unicode="q" horiz-adv-x="1047" 
d="M976 834v-1213q0 -19 -11.5 -30.5t-30.5 -11.5h-313q-18 0 -28.5 11.5t-10.5 30.5l3 396q-74 -50 -172 -50q-172 -3 -282.5 132.5t-108.5 341.5q-2 205 108.5 338.5t282.5 131.5q162 0 253 -129l50 77q13 17 29 17h189q19 0 30.5 -11.5t11.5 -30.5zM593 439
q0 43 -29.5 72.5t-71.5 29.5q-43 0 -72 -29.5t-29 -72.5q0 -42 29 -71t72 -29q42 0 71.5 29t29.5 71z" />
    <glyph glyph-name="r" unicode="r" horiz-adv-x="876" 
d="M877 792q0 -17 -10 -30l-141 -222q-10 -18 -34 -18q-11 0 -15 4l-4 4q-36 36 -98 36q-47 0 -78 -31t-31 -77v-415q0 -41 -41 -41h-313q-41 0 -41 41v794q0 19 11.5 30.5t30.5 11.5h182q27 0 44 -25l52 -80q51 63 117 99.5t130 36.5q73 0 133.5 -24t95.5 -69q10 -9 10 -25
z" />
    <glyph glyph-name="s" unicode="s" horiz-adv-x="874" 
d="M427 570q0 -23 62 -41q137 -36 205 -65q78 -32 117.5 -83.5t39.5 -131.5q0 -130 -113.5 -206.5t-310.5 -76.5q-114 0 -222 28q-109 29 -171 76q-25 18 -25 43q0 19 13 38l118 183q13 19 42 19q24 0 51 -12q129 -57 195 -57q34 0 34 22q0 15 -19 27t-69 26
q-104 29 -172 59q-137 64 -137 218q0 122 101 201t285 79q90 0 186 -26t158 -70q42 -30 42 -52q0 -17 -18 -44l-96 -145q-17 -27 -52 -27q-19 0 -40 8q-94 39 -169 39q-35 0 -35 -29z" />
    <glyph glyph-name="t" unicode="t" horiz-adv-x="724" 
d="M13 583v256q0 18 10.5 28.5t28.5 10.5h79v153q0 35 33 47l314 124q7 4 18 4q29 0 29 -37v-291h140q38 0 38 -39v-256q0 -39 -38 -39h-139v-505q0 -39 -39 -39h-316q-39 0 -39 39v505h-80q-39 0 -39 39z" />
    <glyph glyph-name="u" unicode="u" horiz-adv-x="1053" 
d="M982 835v-794q0 -19 -11.5 -30.5t-30.5 -11.5h-182q-27 0 -44 25l-45 70q-108 -126 -264 -126q-175 0 -259 107.5t-84 325.5v434q0 41 41 41h312q41 0 41 -41v-437q0 -24 18 -39t43 -15q31 0 50.5 20.5t19.5 58.5v412q0 41 41 41h313q41 0 41 -41z" />
    <glyph glyph-name="v" unicode="v" horiz-adv-x="975" 
d="M982 843q0 -10 -5 -22l-313 -783q-7 -17 -25 -27.5t-40 -10.5h-222q-22 0 -40 10.5t-25 27.5l-313 783q-5 12 -5 22q0 15 10 25t23 10h336q19 0 35 -10.5t20 -27.5l70 -326l70 326q4 17 20 27.5t35 10.5h336q13 0 23 -10t10 -25z" />
    <glyph glyph-name="w" unicode="w" horiz-adv-x="1503" 
d="M1510 843q0 -7 -5 -22l-313 -783q-7 -17 -25 -27.5t-40 -10.5h-199q-22 0 -40 10.5t-25 27.5l-97 235l-91 -235q-6 -17 -24.5 -27.5t-40.5 -10.5h-223q-22 0 -39.5 10.5t-24.5 27.5l-324 783q-5 15 -5 22q0 15 10 25t24 10h335q19 0 35 -10.5t20 -27.5l78 -327l73 327
q4 17 20 27.5t35 10.5h325q14 0 23.5 -10t9.5 -25q0 -13 -4 -22l-55 -143l63 -143l100 304q15 39 53 39h338q14 0 23.5 -9.5t9.5 -25.5z" />
    <glyph glyph-name="x" unicode="x" horiz-adv-x="1035" 
d="M1031 42q0 -42 -67 -42h-319q-23 0 -42.5 13.5t-29.5 35.5l-55 134l-56 -134q-10 -22 -29.5 -35.5t-42.5 -13.5h-318q-67 0 -67 42q0 24 27 62l254 362l-243 342q-17 23 -17 40q0 30 50 30h316q43 0 71 -47l55 -113l54 113q28 47 71 47h316q51 0 51 -30q0 -16 -18 -40
l-243 -342l255 -362q27 -36 27 -62z" />
    <glyph glyph-name="y" unicode="y" horiz-adv-x="975" 
d="M982 843q0 -10 -5 -22l-313 -783l-1 -1l-173 -423q-14 -36 -52 -36h-283q-59 0 -59 40q0 14 9 35l181 450l-287 718q-5 12 -5 22q0 15 10 25t23 10h336q19 0 35 -10.5t20 -27.5l70 -326l70 326q4 17 20 27.5t35 10.5h336q13 0 23 -10t10 -25z" />
    <glyph glyph-name="z" unicode="z" horiz-adv-x="897" 
d="M849 313v-268q0 -20 -11.5 -32.5t-30.5 -12.5h-682q-30 0 -51.5 17.5t-21.5 44.5v160q0 27 4 40.5t19 31.5l255 226h-218q-17 0 -29.5 13.5t-12.5 30.5v267q0 20 12 33.5t30 13.5h683q43 0 43 -42l4 -192q0 -21 -4 -30.5t-17 -21.5l-229 -235h215q17 0 29.5 -13t12.5 -31
z" />
    <glyph glyph-name="braceleft" unicode="{" horiz-adv-x="793" 
d="M804 -110l-29 -261q-2 -27 -42 -29q-233 -6 -366 115.5t-133 344.5q0 80 11 245q8 117 8 143q0 21 -34 42t-94 37q-43 13 -43 65v180q0 52 43 65q60 16 94 37t34 42q0 26 -8 143q-11 165 -11 245q0 223 133 344.5t366 115.5q40 -2 42 -29l29 -261q2 -24 -10.5 -37
t-36.5 -13q-59 0 -93 -34t-34 -93q0 -54 10 -198l6 -101q5 -92 5 -140q0 -121 -133 -176q133 -55 133 -176q0 -49 -5 -141l-6 -100q-10 -144 -10 -198q0 -59 34 -93t93 -34q24 0 36.5 -13t10.5 -37z" />
    <glyph glyph-name="bar" unicode="|" horiz-adv-x="481" 
d="M102 -543v1959q0 25 17 42.5t42 17.5h160q24 0 41 -17.5t17 -42.5v-1959q0 -24 -17 -41t-41 -17h-160q-25 0 -42 17t-17 41z" />
    <glyph glyph-name="braceright" unicode="}" horiz-adv-x="793" 
d="M711 772v-180q0 -52 -43 -65q-60 -16 -94 -37t-34 -42q0 -26 8 -143q11 -165 11 -245q0 -223 -133 -344.5t-366 -115.5q-40 2 -42 29l-29 261q-2 24 10.5 37t36.5 13q59 0 93 34t34 93q0 54 -10 198l-6 100q-5 92 -5 141q0 121 133 176q-133 55 -133 176q0 48 5 140
l6 101q10 144 10 198q0 59 -34 93t-93 34q-24 0 -36.5 13t-10.5 37l29 261q2 27 42 29q233 6 366 -115.5t133 -344.5q0 -80 -11 -245q-8 -117 -8 -143q0 -21 34 -42t94 -37q43 -13 43 -65z" />
    <glyph glyph-name="asciitilde" unicode="~" horiz-adv-x="888" 
d="M297 662q80 0 173 -53q49 -25 65 -25q13 0 21.5 9.5t8.5 23.5q0 24 17 39.5t43 15.5h156q27 0 44 -15.5t17 -39.5q0 -144 -68 -227t-187 -83q-48 0 -83.5 12t-86.5 40q-48 26 -64 26q-13 0 -21.5 -10t-8.5 -24q0 -22 -17.5 -38t-42.5 -16h-157q-26 0 -43 15t-17 39
q0 137 68 224t183 87z" />
    <glyph glyph-name="uni00A0" unicode="&#xa0;" horiz-adv-x="538" 
 />
    <glyph glyph-name="exclamdown" unicode="&#xa1;" horiz-adv-x="610" 
d="M525 695q2 -89 -65 -156.5t-156 -65.5q-92 0 -157.5 65t-65.5 157q0 91 65.5 156.5t157.5 65.5q90 0 155.5 -65.5t65.5 -156.5zM164 401h281q42 0 44 -43l30 -906q1 -20 -10.5 -31.5t-32.5 -11.5h-343q-21 0 -32.5 11.5t-10.5 31.5l30 906q2 43 44 43z" />
    <glyph glyph-name="cent" unicode="&#xa2;" horiz-adv-x="842" 
d="M822 103q0 -19 -18 -32q-116 -92 -255 -104l-6 -65q-5 -40 -42 -35l-75 6q-18 1 -27.5 12.5t-7.5 29.5l5 62q-160 34 -268 165.5t-106 293.5q-2 121 59.5 228.5t167 173.5t227.5 71l6 71q5 36 42 35l75 -7q19 -1 28.5 -12t7.5 -29l-7 -72q98 -25 176 -86q18 -14 18 -31
q0 -12 -9 -26l-157 -240q-11 -20 -31 -20q-12 0 -27 9l-8 5q-9 5 -16 9q-40 24 -61 24q-41 0 -64.5 -26.5t-23.5 -74.5q0 -47 23.5 -74t64.5 -27q25 0 60 23q7 4 15 9l9 5q13 6 24 6q19 0 33 -20l159 -230q9 -14 9 -27z" />
    <glyph glyph-name="sterling" unicode="&#xa3;" horiz-adv-x="1134" 
d="M1053 321v-242q0 -37 -21 -58t-58 -21h-825q-37 0 -57.5 21t-20.5 58v885q0 247 144.5 388.5t397.5 141.5q83 0 169.5 -29t156.5 -80q58 -42 58 -88q0 -18 -11 -35l-122 -188q-28 -46 -74 -46q-32 0 -64 23q-64 44 -113 44q-67 0 -105 -35t-38 -96v-94h316
q31 0 48.5 -17.5t17.5 -48.5v-201q0 -31 -18 -48.5t-50 -17.5h-314v-138h504q37 0 58 -20.5t21 -57.5z" />
    <glyph glyph-name="currency" unicode="&#xa4;" horiz-adv-x="1070" 
d="M1060 24q0 -17 -15 -32l-64 -63q-15 -16 -32 -16t-33 16l-106 106q-117 -70 -252 -70q-157 0 -281 87l-123 -123q-15 -16 -33 -16q-17 0 -32 16l-63 63q-16 16 -16 32q0 17 16 33l124 124q-77 115 -77 255q0 137 78 258l-125 125q-16 17 -16 33q0 17 16 33l63 62
q16 16 33 16t32 -16l124 -124q124 87 280 87q138 0 251 -70l107 107q16 16 33 16t32 -16l63 -62q16 -15 16 -33q0 -17 -16 -33l-100 -100q96 -126 96 -283q0 -154 -95 -279l100 -100q15 -15 15 -33zM656 438q0 43 -29 72t-71 29t-71.5 -29t-29.5 -72q0 -42 29.5 -71.5
t71.5 -29.5t71 29.5t29 71.5z" />
    <glyph glyph-name="yen" unicode="&#xa5;" horiz-adv-x="1392" 
d="M1397 1419q0 -13 -6 -29l-430 -765h145q37 0 37 -39v-75q0 -39 -37 -39h-190v-103h190q37 0 37 -39v-75q0 -39 -37 -39h-190v-155q0 -28 -16 -44.5t-45 -16.5h-317q-29 0 -46 16.5t-17 44.5v155h-194q-18 0 -28.5 10.5t-10.5 28.5v75q0 18 10.5 28.5t28.5 10.5h194v103
h-194q-18 0 -28.5 10.5t-10.5 28.5v75q0 18 10.5 28.5t28.5 10.5h150l-430 765q-6 16 -6 29q0 41 51 41h371q21 0 42.5 -16t34.5 -41l201 -399l203 401q27 55 78 55h370q51 0 51 -41z" />
    <glyph glyph-name="brokenbar" unicode="&#xa6;" horiz-adv-x="481" 
d="M102 584v832q0 26 16.5 43t42.5 17h160q25 0 41.5 -17t16.5 -43v-832q0 -26 -16 -42.5t-42 -16.5h-160q-26 0 -42.5 16.5t-16.5 42.5zM102 -541v833q0 26 16.5 42.5t42.5 16.5h160q26 0 42 -16.5t16 -42.5v-833q0 -26 -16 -42t-42 -16h-160q-26 0 -42.5 16t-16.5 42z" />
    <glyph glyph-name="section" unicode="&#xa7;" horiz-adv-x="1064" 
d="M798 512q79 -73 79 -205q0 -160 -104 -248t-272 -88q-189 0 -350 86q-22 12 -22 34q0 11 8 29l102 189q14 23 36 23q7 0 24 -5q127 -49 202 -49q78 0 78 31q0 33 -72 52q-215 60 -308.5 127t-96.5 180q0 168 164 225q-79 73 -79 205q0 160 104.5 248t271.5 88
q189 0 350 -86q22 -12 22 -34q0 -11 -8 -29l-102 -189q-14 -23 -36 -23q-7 0 -24 5q-127 49 -202 49q-78 0 -78 -31q0 -32 72 -52q215 -60 308.5 -127t96.5 -180q0 -168 -164 -225zM605 743q-23 6 -96 18q-14 2 -29 2q-33 0 -51.5 -13t-18.5 -34q0 -34 49 -54q23 -6 96 -18
q14 -2 29 -2q33 0 51.5 13t18.5 34q0 34 -49 54z" />
    <glyph glyph-name="dieresis" unicode="&#xa8;" horiz-adv-x="614" 
d="M102 1171q0 65 47 112t114 47q65 0 112.5 -47t47.5 -112q0 -67 -47.5 -114t-112.5 -47q-67 0 -114 47t-47 114zM450 1171q0 65 47 112t114 47q65 0 112.5 -47t47.5 -112q0 -67 -47.5 -114t-112.5 -47q-67 0 -114 47t-47 114z" />
    <glyph glyph-name="copyright" unicode="&#xa9;" horiz-adv-x="1855" 
d="M46 413q0 240 118 442q118 201 321 320t443 119q239 0 442 -119t321 -320q118 -202 118 -442t-118 -442q-119 -203 -321 -321q-203 -119 -442 -119q-240 0 -443 119q-203 118 -321 321q-118 202 -118 442zM1534 413q0 165 -82 304q-81 139 -220 220q-139 82 -304 82
q-166 0 -305 -82q-138 -80 -221 -220q-81 -139 -81 -304t81 -305q83 -140 221 -220q139 -82 305 -82q165 0 304 82q139 81 220 220q82 139 82 305zM1026 357q19 0 31 -19l149 -216q9 -14 9 -25q0 -16 -17 -30q-123 -100 -279 -100q-91 -2 -176 33.5t-147 95.5t-98.5 143
t-34.5 171q-2 118 60 222t168.5 164.5t227.5 58.5q161 0 279 -95q16 -12 16 -28q0 -11 -8 -25l-147 -226q-13 -19 -29 -19q-13 0 -26 9l-22 13q-33 23 -58 23q-38 0 -60 -25t-22 -70q0 -44 22 -69.5t60 -25.5q24 0 59 23l20 12q15 5 23 5z" />
    <glyph glyph-name="ordfeminine" unicode="&#xaa;" horiz-adv-x="734" 
d="M687 1425v-553q0 -30 -31 -30h-174q-13 0 -21 11l-22 27q-59 -65 -152 -65q-121 0 -196.5 92.5t-75.5 238.5q0 145 75.5 239t196.5 94q93 0 151 -64l23 30q9 11 21 11h174q31 0 31 -31zM392 1147q0 18 -13.5 32t-32.5 14q-18 0 -32 -14t-14 -32q0 -19 14 -32.5t32 -13.5
q19 0 32.5 13.5t13.5 32.5z" />
    <glyph glyph-name="guillemotleft" unicode="&#xab;" horiz-adv-x="1226" 
d="M384 442l246 -279q10 -10 10 -28q0 -16 -11 -24l-166 -129q-11 -8 -21 -8q-13 0 -22 11l-386 433q-13 13 -13 23q0 11 13 24l386 434q9 10 21 10q11 0 22 -8l166 -129q11 -8 11 -24q0 -17 -10 -27zM877 442l246 -279q10 -10 10 -28q0 -16 -11 -24l-166 -129
q-11 -8 -21 -8q-13 0 -22 11l-386 433q-13 13 -13 23q0 11 13 24l386 434q9 10 21 10q11 0 22 -8l166 -129q11 -8 11 -24q0 -17 -10 -27z" />
    <glyph glyph-name="logicalnot" unicode="&#xac;" horiz-adv-x="990" 
d="M668 347h-565q-25 0 -41 13.5t-16 35.5v157q0 71 58 71h781q28 0 43.5 -16t15.5 -43v-379q0 -24 -14.5 -40.5t-36.5 -16.5l-157 -2q-28 0 -48 17t-20 41v162z" />
    <glyph glyph-name="uni00AD" unicode="&#xad;" horiz-adv-x="876" 
d="M109 314v252q0 25 15 41t35 16h557q51 0 51 -53v-256q0 -23 -16 -36.5t-41 -13.5h-551q-20 0 -35 14t-15 36z" />
    <glyph glyph-name="registered" unicode="&#xae;" horiz-adv-x="1854" 
d="M1808 412q0 -241 -118 -443t-320 -320q-203 -119 -442 -119q-240 0 -443 119t-321 320q-118 202 -118 443q0 240 118 442q118 201 321 320q202 118 443 118q240 0 442 -118t320 -320t118 -442zM1534 412q0 164 -82 303q-82 141 -220 221q-139 82 -304 82q-166 0 -305 -82
q-138 -80 -221 -221q-81 -139 -81 -303q0 -166 81 -305q83 -141 221 -221q139 -82 305 -82q165 0 304 82q138 80 220 221q82 139 82 305zM1355 504q0 -132 -91 -226l83 -222q4 -11 4 -18q0 -39 -61 -39h-234q-56 0 -75 55l-48 131h-3h-5v-122q0 -27 -17.5 -45.5t-42.5 -18.5
h-251q-26 0 -44.5 20.5t-18.5 50.5v703q0 22 16 37t39 15h425q133 2 230 -94t94 -227zM998 502q0 16 -9 27.5t-22 11.5h-42v-76h42q13 0 22 10.5t9 26.5z" />
    <glyph glyph-name="overscore" unicode="&#xaf;" horiz-adv-x="614" 
d="M261 1040v134q0 14 9 23t23 9h389q30 0 30 -30v-136q0 -14 -9.5 -22t-22.5 -8h-389q-11 0 -20.5 8.5t-9.5 21.5z" />
    <glyph glyph-name="degree" unicode="&#xb0;" horiz-adv-x="851" 
d="M425 1483q107 2 201.5 -54t150 -151t53.5 -202q2 -107 -53.5 -201.5t-150 -149.5t-201.5 -53q-107 -2 -201.5 53t-150 149.5t-53.5 201.5q-2 107 53 202t150 151t202 54zM423 948q53 0 90 37t37 90q0 54 -36.5 90.5t-90.5 36.5q-53 0 -90 -37q-36 -37 -36 -90t37 -90
t89 -37z" />
    <glyph glyph-name="plusminus" unicode="&#xb1;" horiz-adv-x="882" 
d="M836 790v-185q0 -20 -13.5 -33t-34.5 -13h-208v-212q0 -18 -13.5 -31.5t-32.5 -13.5h-183q-20 0 -34 13.5t-14 33.5v210h-212q-18 0 -31.5 13.5t-13.5 32.5v182q0 21 13.5 35t33.5 14h210v211q0 20 13 32.5t33 12.5h185q20 0 33 -13.5t13 -33.5v-209h211q20 0 32.5 -13
t12.5 -33zM46 35v182q0 21 13.5 35t33.5 14h698q20 0 32.5 -13t12.5 -33v-185q0 -20 -13.5 -33t-34.5 -13h-697q-18 0 -31.5 13.5t-13.5 32.5z" />
    <glyph glyph-name="uni00B2" unicode="&#xb2;" horiz-adv-x="695" 
d="M638 1387q0 -60 -28 -115q-27 -55 -69 -85l-88 -65l162 9q22 1 35.5 -12.5t13.5 -36.5v-183q0 -20 -12 -32t-32 -12h-536q-24 0 -38.5 11t-14.5 30v139q0 28 28 54l274 249q23 23 23 37q0 21 -24 21q-32 0 -78 -46q-14 -13 -29 -13q-13 0 -30 14l-140 141q-10 11 -10 26
q0 14 8 22q43 55 126.5 97.5t155.5 42.5q134 0 218.5 -81.5t84.5 -211.5z" />
    <glyph glyph-name="uni00B3" unicode="&#xb3;" horiz-adv-x="662" 
d="M31 933q0 6 4 13l102 159q13 19 38 19q14 0 22 -4q51 -21 116 -21q32 0 32 24q0 13 -9 20.5t-23 7.5h-68q-20 0 -31.5 11t-11.5 30v125q0 19 10.5 31t27.5 12h55q12 0 20 6.5t8 16.5q0 13 -8.5 20.5t-21.5 7.5q-50 0 -82 -19q-15 -7 -26 -7q-19 0 -28 15l-108 155
q-6 9 -6 19q0 18 15 31q39 33 104 52q68 20 136 20q133 0 216 -74.5t83 -193.5q0 -111 -81 -151q53 -17 84 -60t31 -101q0 -119 -88 -193t-230 -74q-79 0 -144 13t-98 35q-40 27 -40 55z" />
    <glyph glyph-name="acute" unicode="&#xb4;" horiz-adv-x="614" 
d="M170 990q-22 0 -37 21l-42 58q-19 28 -19 46q0 21 21 37l248 189q31 23 54 23q22 0 38 -21l66 -83q15 -20 15 -42q0 -30 -25 -44l-265 -163q-32 -21 -54 -21z" />
    <glyph glyph-name="uni00B5" unicode="&#xb5;" horiz-adv-x="1052" 
d="M990 835v-434q0 -218 -84 -325.5t-259 -107.5q-99 0 -182 54v-566q0 -39 -39 -39h-316q-39 0 -39 39v1383q0 39 39 39h316q39 0 39 -39v-416q0 -38 19.5 -58.5t50.5 -20.5q25 0 43 15t18 39v437q0 41 41 41h312q41 0 41 -41z" />
    <glyph glyph-name="paragraph" unicode="&#xb6;" horiz-adv-x="1500" 
d="M473 1461h846q66 0 66 -53v-150q0 -26 -19 -42t-50 -16h-122v-1149q0 -50 -46 -50h-177q-46 0 -46 46v1153h-60v-1153q0 -46 -44 -46h-302q-20 0 -32.5 13t-12.5 34v584q-111 2 -207.5 59t-153 151.5t-54.5 201.5q-2 110 54.5 207.5t153.5 154.5t206 55z" />
    <glyph glyph-name="middot" unicode="&#xb7;" horiz-adv-x="610" 
d="M83 499q0 92 65.5 157t157.5 65q89 2 156 -65.5t65 -156.5q0 -91 -65.5 -156.5t-155.5 -65.5q-92 0 -157.5 65.5t-65.5 156.5z" />
    <glyph glyph-name="cedilla" unicode="&#xb8;" horiz-adv-x="614" 
d="M244 19h196l-14 -110q44 0 68 -30.5t24 -86.5q0 -2 -2 -34l-6 -52q-12 -99 -78.5 -155.5t-170.5 -56.5h-114q-18 0 -16 25l19 151q2 18 21 18h114q26 0 28 19l6 51l1 5q0 16 -22 16h-65q-18 0 -16 17z" />
    <glyph glyph-name="uni00B9" unicode="&#xb9;" horiz-adv-x="506" 
d="M238 1649h151q45 0 45 -50v-692q0 -23 -15.5 -37.5t-40.5 -14.5h-166q-25 0 -39.5 13.5t-14.5 37.5v433l-64 -18q-9 -3 -18 -3q-15 0 -25 11t-10 27v194q0 37 21 50l91 30q57 19 85 19z" />
    <glyph glyph-name="ordmasculine" unicode="&#xba;" horiz-adv-x="711" 
d="M357 1479q137 3 239.5 -98t99.5 -235q3 -133 -100.5 -234t-238.5 -98q-139 -3 -242 97.5t-100 234.5q-3 134 100.5 235t241.5 98zM355 1101q19 0 32.5 14t13.5 32t-13.5 32t-32.5 14q-17 0 -31 -14t-14 -32t14 -32t31 -14z" />
    <glyph glyph-name="guillemotright" unicode="&#xbb;" horiz-adv-x="1226" 
d="M712 441q0 -10 -13 -23l-386 -433q-9 -11 -22 -11q-10 0 -21 8l-166 129q-11 8 -11 24q0 18 10 28l246 279l-246 279q-10 10 -10 27q0 16 11 24l166 129q11 8 22 8q12 0 21 -10l386 -434q13 -13 13 -24zM1205 441q0 -10 -13 -23l-386 -433q-9 -11 -22 -11q-10 0 -21 8
l-166 129q-11 8 -11 24q0 18 10 28l246 279l-246 279q-10 10 -10 27q0 16 11 24l166 129q11 8 22 8q12 0 21 -10l386 -434q13 -13 13 -24z" />
    <glyph glyph-name="onequarter" unicode="&#xbc;" horiz-adv-x="1587" 
d="M238 1465h151q45 0 45 -50v-692q0 -23 -15.5 -37.5t-40.5 -14.5h-166q-25 0 -39.5 13.5t-14.5 37.5v433l-64 -18q-9 -3 -18 -3q-15 0 -25 11t-10 27v194q0 36 21 50l91 30q57 19 85 19zM194 -36l799 1595q15 29 43 29q12 0 24 -6l59 -30q19 -9 19 -33q0 -13 -6 -26
l-800 -1594q-14 -30 -43 -30q-12 0 -24 6l-59 30q-19 9 -19 33q0 13 7 26zM850 125v187q0 24 14 46l257 403q18 29 53 29h247q45 0 45 -47v-383h47q19 0 31 -11t12 -30v-178q0 -56 -46 -56h-44v-59q0 -35 -35 -35h-203q-38 0 -38 37v56h-288q-19 0 -35.5 12.5t-16.5 28.5z
M1122 359h68v108z" />
    <glyph glyph-name="onehalf" unicode="&#xbd;" horiz-adv-x="1514" 
d="M238 1465h151q45 0 45 -50v-692q0 -23 -15.5 -37.5t-40.5 -14.5h-166q-25 0 -39.5 13.5t-14.5 37.5v433l-64 -18q-9 -3 -18 -3q-15 0 -25 11t-10 27v194q0 36 21 50l91 30q57 19 85 19zM194 -36l799 1595q15 29 43 29q12 0 24 -6l59 -30q19 -9 19 -33q0 -13 -6 -26
l-800 -1594q-14 -30 -43 -30q-12 0 -24 6l-59 30q-19 9 -19 33q0 13 7 26zM1457 523q0 -60 -28 -115q-27 -55 -69 -85l-88 -65l162 9q22 1 35.5 -12.5t13.5 -36.5v-183q0 -20 -12 -32t-32 -12h-536q-24 0 -38.5 11t-14.5 30v139q0 28 28 54l274 249q23 23 23 37q0 21 -24 21
q-32 0 -78 -46q-14 -13 -29 -13q-13 0 -30 14l-140 141q-10 11 -10 26q0 14 8 22q43 55 126.5 97.5t155.5 42.5q134 0 218.5 -81.5t84.5 -211.5z" />
    <glyph glyph-name="threequarters" unicode="&#xbe;" horiz-adv-x="1743" 
d="M31 749q0 6 4 13l102 159q13 19 38 19q14 0 22 -4q51 -21 116 -21q32 0 32 24q0 13 -9 20.5t-23 7.5h-68q-20 0 -31.5 11t-11.5 30v125q0 19 10.5 31t27.5 12h55q12 0 20 6.5t8 16.5q0 13 -8.5 20.5t-21.5 7.5q-50 0 -82 -19q-15 -7 -26 -7q-19 0 -28 15l-108 155
q-6 9 -6 19q0 18 15 31q39 33 104 52q68 20 136 20q133 0 216 -74.5t83 -193.5q0 -111 -81 -151q53 -17 84 -60t31 -101q0 -119 -88 -193t-230 -74q-79 0 -144 13t-98 35q-40 27 -40 55zM350 -36l799 1595q15 29 43 29q12 0 24 -6l59 -30q19 -9 19 -33q0 -13 -6 -26
l-800 -1594q-13 -30 -43 -30q-12 0 -24 6l-59 30q-19 9 -19 33q0 13 7 26zM1006 125v187q0 24 14 46l257 403q18 29 53 29h247q45 0 45 -47v-383h47q19 0 31 -11t12 -30v-178q0 -56 -46 -56h-44v-59q0 -35 -35 -35h-203q-38 0 -38 37v56h-288q-19 0 -35.5 12.5t-16.5 28.5z
M1278 359h68v108z" />
    <glyph glyph-name="questiondown" unicode="&#xbf;" horiz-adv-x="1039" 
d="M774 716q0 -92 -65.5 -157t-157.5 -65q-89 -2 -156 65.5t-65 156.5q0 91 65.5 156.5t155.5 65.5q92 0 157.5 -65.5t65.5 -156.5zM368 307l5 73q2 17 17 28.5t36 11.5l262 2q23 0 40 -12.5t18 -30.5l8 -102l1 -18q0 -82 -49 -167.5t-114 -115.5q-72 -33 -102 -56.5
t-30 -54.5q0 -24 20.5 -41t50.5 -17q26 0 43.5 17.5t17.5 43.5q0 21 17.5 39t40.5 18h297q21 0 37 -17t16 -38q3 -208 -132.5 -335.5t-336.5 -125.5q-126 -2 -235 59.5t-172 167.5t-61 229q0 76 43 153q43 78 139 134q56 32 89.5 75t33.5 80z" />
    <glyph glyph-name="Agrave" unicode="&#xc0;" horiz-adv-x="1474" 
d="M1469 39q0 -18 -13 -29t-37 -11h-350q-26 0 -47 15.5t-29 40.5l-43 138h-426l-43 -137q-7 -24 -28.5 -40t-48.5 -16h-350q-49 0 -49 41q0 14 5 26l518 1337q11 26 33 41.5t47 15.5h260q25 0 46.5 -15.5t31.5 -41.5l517 -1338q6 -14 6 -27zM636 555h201l-101 323z
M781 1558l-289 114q-33 11 -33 49q0 18 8 34l50 93q13 28 43 28q22 0 48 -14l277 -143q28 -15 28 -41q0 -16 -11 -40l-32 -64q-13 -28 -41 -28q-17 0 -48 12z" />
    <glyph glyph-name="Aacute" unicode="&#xc1;" horiz-adv-x="1474" 
d="M1469 39q0 -18 -13 -29t-37 -11h-350q-26 0 -47 15.5t-29 40.5l-43 138h-426l-43 -137q-7 -24 -28.5 -40t-48.5 -16h-350q-49 0 -49 41q0 14 5 26l518 1337q11 26 33 41.5t47 15.5h260q25 0 46.5 -15.5t31.5 -41.5l517 -1338q6 -14 6 -27zM636 555h201l-101 323z
M647 1546q-28 0 -41 28l-32 64q-11 24 -11 40q0 26 28 41l277 143q26 14 48 14q30 0 43 -28l50 -93q8 -16 8 -34q0 -38 -33 -49l-289 -114q-31 -12 -48 -12z" />
    <glyph glyph-name="Acircumflex" unicode="&#xc2;" horiz-adv-x="1474" 
d="M1469 39q0 -18 -13 -29t-37 -11h-350q-26 0 -47 15.5t-29 40.5l-43 138h-426l-43 -137q-7 -24 -28.5 -40t-48.5 -16h-350q-49 0 -49 41q0 14 5 26l518 1337q11 26 33 41.5t47 15.5h260q25 0 46.5 -15.5t31.5 -41.5l517 -1338q6 -14 6 -27zM636 555h201l-101 323z
M484 1678l221 161q18 12 29 12q15 0 30 -12l228 -166q19 -13 19 -33q0 -9 -8 -23l-48 -63q-13 -16 -35 -16q-18 0 -37 11l-148 94l-147 -94q-20 -12 -38 -12q-19 0 -33 17l-49 65q-11 16 -11 27q0 14 27 32z" />
    <glyph glyph-name="Atilde" unicode="&#xc3;" horiz-adv-x="1474" 
d="M1469 39q0 -18 -13 -29t-37 -11h-350q-26 0 -47 15.5t-29 40.5l-43 138h-426l-43 -137q-7 -24 -28.5 -40t-48.5 -16h-350q-49 0 -49 41q0 14 5 26l518 1337q11 26 33 41.5t47 15.5h260q25 0 46.5 -15.5t31.5 -41.5l517 -1338q6 -14 6 -27zM636 555h201l-101 323z
M494 1632q0 19 19 45q58 76 142 76q34 0 106 -44q34 -19 51 -19q21 0 39 27q17 21 32 21q14 0 29 -17l57 -61q11 -11 11 -24q0 -9 -7 -19q-63 -101 -160 -101q-34 0 -101 40q-32 21 -56 21q-23 0 -49 -35q-8 -11 -18 -11q-15 0 -39 24l-39 42q-17 17 -17 35z" />
    <glyph glyph-name="Adieresis" unicode="&#xc4;" horiz-adv-x="1474" 
d="M1469 39q0 -18 -13 -29t-37 -11h-350q-26 0 -47 15.5t-29 40.5l-43 138h-426l-43 -137q-7 -24 -28.5 -40t-48.5 -16h-350q-49 0 -49 41q0 14 5 26l518 1337q11 26 33 41.5t47 15.5h260q25 0 46.5 -15.5t31.5 -41.5l517 -1338q6 -14 6 -27zM636 555h201l-101 323z
M436 1698q0 52 37.5 89.5t90.5 37.5t90.5 -37.5t37.5 -89.5q0 -53 -37.5 -91t-90.5 -38t-90.5 38t-37.5 91zM782 1698q0 52 37.5 89.5t90.5 37.5t90.5 -37.5t37.5 -89.5q0 -53 -37.5 -91t-90.5 -38t-90.5 38t-37.5 91z" />
    <glyph glyph-name="Aring" unicode="&#xc5;" horiz-adv-x="1474" 
d="M1469 39q0 -18 -13 -29t-37 -11h-350q-26 0 -47 15.5t-29 40.5l-43 138h-426l-43 -137q-7 -24 -28.5 -40t-48.5 -16h-350q-49 0 -49 41q0 14 5 26l518 1337q11 26 33 41.5t47 15.5h260q25 0 46.5 -15.5t31.5 -41.5l517 -1338q6 -14 6 -27zM636 555h201l-101 323z
M957 1754q0 -91 -64 -153.5t-156 -62.5q-90 0 -153.5 63t-63.5 153t63.5 153.5t153.5 63.5q91 0 155.5 -63.5t64.5 -153.5zM664 1754q0 -31 21.5 -52.5t52.5 -21.5t53 21.5t22 52.5t-21.5 52t-53.5 21q-31 0 -52.5 -21t-21.5 -52z" />
    <glyph glyph-name="AE" unicode="&#xc6;" horiz-adv-x="2202" 
d="M2121 336v-275q0 -28 -17 -44.5t-45 -16.5h-970q-29 0 -45.5 16.5t-16.5 44.5v153h-386l-106 -159q-38 -55 -82 -55h-396q-24 0 -38 13t-14 33q0 16 11 36l920 1324q23 32 38.5 43.5t42.5 11.5h1023q29 0 45.5 -17t16.5 -46v-292q0 -29 -16.5 -46t-45.5 -17h-572v-154
h416q32 0 50 -17t18 -47v-199q0 -29 -18 -46t-50 -17h-416v-146h567q40 0 63 -22t23 -59zM862 544h165v248z" />
    <glyph glyph-name="Ccedilla" unicode="&#xc7;" horiz-adv-x="1318" 
d="M1087 458l184 -284q6 -9 6 -20q0 -31 -34 -55q-64 -46 -156 -79q-95 -35 -184 -48l-13 -99q44 0 68 -30.5t24 -86.5q0 -2 -2 -34l-6 -52q-12 -99 -78.5 -155.5t-170.5 -56.5h-114q-18 0 -16 25l19 151q2 18 21 18h114q26 0 28 19l6 51l1 5q0 16 -22 16h-65q-18 0 -16 17
l26 212q-185 25 -338 131q-152 107 -237 269q-86 164 -86 356q0 210 102 386q104 176 279 276q177 102 390 102q96 0 224 -41q122 -39 211 -100q26 -20 26 -48q0 -17 -8 -28l-187 -281q-14 -20 -41 -20q-24 0 -45 15q-35 26 -88 44q-51 19 -92 19q-136 3 -235 -94t-96 -230
q-3 -132 96 -228t235 -94q40 0 88 16q51 16 86 41q26 17 51 17q29 0 45 -22z" />
    <glyph glyph-name="Egrave" unicode="&#xc8;" horiz-adv-x="1277" 
d="M102 61v1337q0 30 16.5 46.5t45.5 16.5h951q29 0 45.5 -17t16.5 -46v-292q0 -29 -16.5 -46t-45.5 -17h-572v-154h416q32 0 50 -17t18 -47v-199q0 -29 -18 -46t-50 -17h-416v-146h567q40 0 63 -22t23 -59v-275q0 -28 -17 -44.5t-45 -16.5h-970q-29 0 -45.5 16.5
t-16.5 44.5zM710 1558l-289 114q-33 11 -33 49q0 18 8 34l50 93q13 28 43 28q22 0 48 -14l277 -143q28 -15 28 -41q0 -16 -11 -40l-32 -64q-13 -28 -41 -28q-16 0 -48 12z" />
    <glyph glyph-name="Eacute" unicode="&#xc9;" horiz-adv-x="1277" 
d="M102 61v1337q0 30 16.5 46.5t45.5 16.5h951q29 0 45.5 -17t16.5 -46v-292q0 -29 -16.5 -46t-45.5 -17h-572v-154h416q32 0 50 -17t18 -47v-199q0 -29 -18 -46t-50 -17h-416v-146h567q40 0 63 -22t23 -59v-275q0 -28 -17 -44.5t-45 -16.5h-970q-29 0 -45.5 16.5
t-16.5 44.5zM576 1546q-28 0 -41 28l-32 64q-11 24 -11 40q0 26 28 41l277 143q26 14 48 14q30 0 43 -28l50 -93q8 -16 8 -34q0 -38 -33 -49l-289 -114q-32 -12 -48 -12z" />
    <glyph glyph-name="Ecircumflex" unicode="&#xca;" horiz-adv-x="1277" 
d="M102 61v1337q0 30 16.5 46.5t45.5 16.5h951q29 0 45.5 -17t16.5 -46v-292q0 -29 -16.5 -46t-45.5 -17h-572v-154h416q32 0 50 -17t18 -47v-199q0 -29 -18 -46t-50 -17h-416v-146h567q40 0 63 -22t23 -59v-275q0 -28 -17 -44.5t-45 -16.5h-970q-29 0 -45.5 16.5
t-16.5 44.5zM413 1678l221 161q18 12 29 12q15 0 30 -12l228 -166q19 -13 19 -33q0 -9 -8 -23l-48 -63q-13 -16 -35 -16q-18 0 -37 11l-148 94l-147 -94q-19 -12 -38 -12t-33 17l-49 65q-11 16 -11 27q0 14 27 32z" />
    <glyph glyph-name="Edieresis" unicode="&#xcb;" horiz-adv-x="1277" 
d="M102 61v1337q0 30 16.5 46.5t45.5 16.5h951q29 0 45.5 -17t16.5 -46v-292q0 -29 -16.5 -46t-45.5 -17h-572v-154h416q32 0 50 -17t18 -47v-199q0 -29 -18 -46t-50 -17h-416v-146h567q40 0 63 -22t23 -59v-275q0 -28 -17 -44.5t-45 -16.5h-970q-29 0 -45.5 16.5
t-16.5 44.5zM365 1698q0 52 37.5 89.5t90.5 37.5t90.5 -37.5t37.5 -89.5q0 -53 -37.5 -91t-90.5 -38t-90.5 38t-37.5 91zM711 1698q0 52 37.5 89.5t90.5 37.5t90.5 -37.5t37.5 -89.5q0 -53 -37.5 -91t-90.5 -38t-90.5 38t-37.5 91z" />
    <glyph glyph-name="Igrave" unicode="&#xcc;" horiz-adv-x="644" 
d="M542 1417v-1373q0 -44 -44 -44h-352q-44 0 -44 44v1373q0 44 44 44h352q44 0 44 -44zM376 1557l-289 114q-33 11 -33 49q0 18 8 34l50 93q13 28 43 28q22 0 48 -14l277 -143q28 -15 28 -41q0 -16 -11 -40l-32 -64q-13 -28 -41 -28q-16 0 -48 12z" />
    <glyph glyph-name="Iacute" unicode="&#xcd;" horiz-adv-x="644" 
d="M542 1417v-1373q0 -44 -44 -44h-352q-44 0 -44 44v1373q0 44 44 44h352q44 0 44 -44zM242 1545q-28 0 -41 28l-32 64q-11 24 -11 40q0 26 28 41l277 143q26 14 48 14q30 0 43 -28l50 -93q8 -16 8 -34q0 -38 -33 -49l-289 -114q-32 -12 -48 -12z" />
    <glyph glyph-name="Icircumflex" unicode="&#xce;" horiz-adv-x="644" 
d="M542 1417v-1373q0 -44 -44 -44h-352q-44 0 -44 44v1373q0 44 44 44h352q44 0 44 -44zM79 1677l221 161q18 12 29 12q15 0 30 -12l228 -166q19 -13 19 -33q0 -9 -8 -23l-48 -63q-13 -16 -35 -16q-18 0 -37 11l-148 94l-147 -94q-20 -12 -38 -12q-19 0 -33 17l-49 65
q-11 16 -11 27q0 14 27 32z" />
    <glyph glyph-name="Idieresis" unicode="&#xcf;" horiz-adv-x="644" 
d="M542 1417v-1373q0 -44 -44 -44h-352q-44 0 -44 44v1373q0 44 44 44h352q44 0 44 -44zM31 1697q0 52 37.5 89.5t90.5 37.5t90.5 -37.5t37.5 -89.5q0 -53 -37.5 -91t-90.5 -38t-90.5 38t-37.5 91zM377 1697q0 52 37.5 89.5t90.5 37.5t90.5 -37.5t37.5 -89.5
q0 -53 -37.5 -91t-90.5 -38t-90.5 38t-37.5 91z" />
    <glyph glyph-name="Eth" unicode="&#xd0;" horiz-adv-x="1420" 
d="M1374 729q0 -212 -92 -379q-92 -166 -258 -258t-379 -92h-481q-25 0 -43.5 18.5t-18.5 42.5v594h-69q-39 0 -39 39v75q0 39 39 39h69v591q0 25 18.5 43.5t43.5 18.5h481q213 0 379 -93q166 -91 258 -259q92 -167 92 -380zM932 729q0 138 -81 229.5t-206 90.5l-102 -1
v-240h178q38 0 38 -39v-75q0 -39 -38 -39h-178v-237h102q122 -3 205.5 89.5t81.5 221.5z" />
    <glyph glyph-name="Ntilde" unicode="&#xd1;" horiz-adv-x="1552" 
d="M1450 1416v-1372q0 -21 -12 -32.5t-32 -11.5h-336q-57 0 -89 53l-438 702v-711q0 -21 -12 -32.5t-32 -11.5h-353q-20 0 -32 11.5t-12 32.5v1372q0 21 12 32.5t32 11.5h365q51 0 87 -54l412 -645v655q0 44 44 44h352q21 0 32.5 -12t11.5 -32zM548 1634q0 19 19 45
q58 76 142 76q34 0 106 -44q34 -19 51 -19q21 0 39 27q17 21 32 21q14 0 29 -17l57 -61q11 -11 11 -24q0 -9 -7 -19q-63 -101 -160 -101q-34 0 -101 40q-32 21 -56 21q-23 0 -49 -35q-8 -11 -18 -11q-15 0 -39 24l-39 42q-17 17 -17 35z" />
    <glyph glyph-name="Ograve" unicode="&#xd2;" horiz-adv-x="1618" 
d="M809 1491q209 0 385 -102q176 -101 276 -276q102 -174 102 -385q0 -210 -102 -385q-100 -174 -276 -276q-175 -101 -385 -101t-386 101q-174 102 -276 276q-101 176 -101 385q0 210 101 385q102 176 277 276q175 102 385 102zM809 407q133 -2 229 94t94 227
q2 133 -94 229t-229 94q-133 2 -229 -94t-94 -229q-2 -131 94 -227t229 -94zM852 1588l-289 114q-33 11 -33 49q0 18 8 34l50 93q13 28 43 28q22 0 48 -14l277 -143q28 -15 28 -41q0 -16 -11 -40l-32 -64q-13 -28 -41 -28q-16 0 -48 12z" />
    <glyph glyph-name="Oacute" unicode="&#xd3;" horiz-adv-x="1618" 
d="M809 1491q209 0 385 -102q176 -101 276 -276q102 -174 102 -385q0 -210 -102 -385q-100 -174 -276 -276q-175 -101 -385 -101t-386 101q-174 102 -276 276q-101 176 -101 385q0 210 101 385q102 176 277 276q175 102 385 102zM809 407q133 -2 229 94t94 227
q2 133 -94 229t-229 94q-133 2 -229 -94t-94 -229q-2 -131 94 -227t229 -94zM718 1576q-28 0 -41 28l-32 64q-11 24 -11 40q0 26 28 41l277 143q26 14 48 14q30 0 43 -28l50 -93q8 -16 8 -34q0 -38 -33 -49l-289 -114q-32 -12 -48 -12z" />
    <glyph glyph-name="Ocircumflex" unicode="&#xd4;" horiz-adv-x="1618" 
d="M809 1491q209 0 385 -102q176 -101 276 -276q102 -174 102 -385q0 -210 -102 -385q-100 -174 -276 -276q-175 -101 -385 -101t-386 101q-174 102 -276 276q-101 176 -101 385q0 210 101 385q102 176 277 276q175 102 385 102zM809 407q133 -2 229 94t94 227
q2 133 -94 229t-229 94q-133 2 -229 -94t-94 -229q-2 -131 94 -227t229 -94zM555 1708l221 161q18 12 29 12q15 0 30 -12l228 -166q19 -13 19 -33q0 -9 -8 -23l-48 -63q-13 -16 -35 -16q-18 0 -37 11l-148 94l-147 -94q-20 -12 -38 -12q-19 0 -33 17l-49 65q-11 16 -11 27
q0 14 27 32z" />
    <glyph glyph-name="Otilde" unicode="&#xd5;" horiz-adv-x="1618" 
d="M809 1491q209 0 385 -102q176 -101 276 -276q102 -174 102 -385q0 -210 -102 -385q-100 -174 -276 -276q-175 -101 -385 -101t-386 101q-174 102 -276 276q-101 176 -101 385q0 210 101 385q102 176 277 276q175 102 385 102zM809 407q133 -2 229 94t94 227
q2 133 -94 229t-229 94q-133 2 -229 -94t-94 -229q-2 -131 94 -227t229 -94zM565 1662q0 19 19 45q58 76 142 76q34 0 106 -44q34 -19 51 -19q21 0 39 27q16 21 32 21q14 0 29 -17l57 -61q11 -11 11 -24q0 -9 -7 -19q-63 -101 -160 -101q-34 0 -101 40q-31 21 -56 21
q-23 0 -49 -35q-8 -11 -18 -11q-15 0 -39 24l-39 42q-17 17 -17 35z" />
    <glyph glyph-name="Odieresis" unicode="&#xd6;" horiz-adv-x="1618" 
d="M809 1491q209 0 385 -102q176 -101 276 -276q102 -174 102 -385q0 -210 -102 -385q-100 -174 -276 -276q-175 -101 -385 -101t-386 101q-174 102 -276 276q-101 176 -101 385q0 210 101 385q102 176 277 276q175 102 385 102zM809 407q133 -2 229 94t94 227
q2 133 -94 229t-229 94q-133 2 -229 -94t-94 -229q-2 -131 94 -227t229 -94zM507 1728q0 52 37.5 89.5t90.5 37.5t90.5 -37.5t37.5 -89.5q0 -53 -37.5 -91t-90.5 -38t-90.5 38t-37.5 91zM853 1728q0 52 37.5 89.5t90.5 37.5t90.5 -37.5t37.5 -89.5q0 -53 -37.5 -91
t-90.5 -38t-90.5 38t-37.5 91z" />
    <glyph glyph-name="multiply" unicode="&#xd7;" horiz-adv-x="809" 
d="M763 305q0 -19 -14 -33l-131 -131q-14 -14 -32 -14q-19 0 -34 15l-147 147l-150 -150q-13 -13 -32 -13t-33 14l-129 129q-14 14 -14 35q0 20 13 33l149 148l-150 150q-13 14 -13 32q0 19 13 32l129 129q15 15 35 15q19 0 33 -14l148 -148l150 149q14 14 31 14
q18 0 33 -15l131 -130q13 -13 13 -33q0 -19 -14 -33l-148 -148l150 -149q13 -13 13 -31z" />
    <glyph glyph-name="Oslash" unicode="&#xd8;" horiz-adv-x="1618" 
d="M1572 728q0 -210 -102 -385q-100 -174 -276 -276q-175 -101 -385 -101q-276 0 -484 169l-89 -89q-12 -12 -27 -12t-28 12l-53 54q-13 12 -13 27t13 28l88 88q-170 209 -170 485q0 210 101 385q102 176 277 276q175 102 385 102q275 0 486 -170l89 89q12 12 24 12
q14 0 28 -14l53 -53q15 -15 15 -29q0 -12 -12 -24l-89 -89q169 -208 169 -485zM533 560l445 444q-77 47 -169 47q-133 2 -229 -94t-94 -229q0 -92 47 -168zM1132 728q0 91 -46 168l-444 -444q77 -45 167 -45q133 -2 229 94t94 227z" />
    <glyph glyph-name="Ugrave" unicode="&#xd9;" horiz-adv-x="1376" 
d="M511 1413v-800q0 -102 38 -160q37 -57 139 -57t139 57q38 58 38 160v800q0 21 13 34t34 13h342q23 0 37 -13t14 -34v-795q0 -318 -158 -485t-459 -167q-617 0 -617 651v796q0 21 11 34t30 13h355q20 0 32 -13t12 -34zM730 1558l-289 114q-33 11 -33 49q0 18 8 34l50 93
q13 28 43 28q22 0 48 -14l277 -143q28 -15 28 -41q0 -16 -11 -40l-32 -64q-13 -28 -41 -28q-16 0 -48 12z" />
    <glyph glyph-name="Uacute" unicode="&#xda;" horiz-adv-x="1376" 
d="M511 1413v-800q0 -102 38 -160q37 -57 139 -57t139 57q38 58 38 160v800q0 21 13 34t34 13h342q23 0 37 -13t14 -34v-795q0 -318 -158 -485t-459 -167q-617 0 -617 651v796q0 21 11 34t30 13h355q20 0 32 -13t12 -34zM596 1546q-28 0 -41 28l-32 64q-11 24 -11 40
q0 26 28 41l277 143q26 14 48 14q30 0 43 -28l50 -93q8 -16 8 -34q0 -38 -33 -49l-289 -114q-32 -12 -48 -12z" />
    <glyph glyph-name="Ucircumflex" unicode="&#xdb;" horiz-adv-x="1376" 
d="M511 1413v-800q0 -102 38 -160q37 -57 139 -57t139 57q38 58 38 160v800q0 21 13 34t34 13h342q23 0 37 -13t14 -34v-795q0 -318 -158 -485t-459 -167q-617 0 -617 651v796q0 21 11 34t30 13h355q20 0 32 -13t12 -34zM433 1678l221 161q18 12 29 12q15 0 30 -12l228 -166
q19 -13 19 -33q0 -9 -8 -23l-48 -63q-13 -16 -35 -16q-18 0 -37 11l-148 94l-147 -94q-19 -12 -38 -12t-33 17l-49 65q-11 16 -11 27q0 14 27 32z" />
    <glyph glyph-name="Udieresis" unicode="&#xdc;" horiz-adv-x="1376" 
d="M511 1413v-800q0 -102 38 -160q37 -57 139 -57t139 57q38 58 38 160v800q0 21 13 34t34 13h342q23 0 37 -13t14 -34v-795q0 -318 -158 -485t-459 -167q-617 0 -617 651v796q0 21 11 34t30 13h355q20 0 32 -13t12 -34zM385 1698q0 52 37.5 89.5t90.5 37.5t90.5 -37.5
t37.5 -89.5q0 -53 -37.5 -91t-90.5 -38t-90.5 38t-37.5 91zM731 1698q0 52 37.5 89.5t90.5 37.5t90.5 -37.5t37.5 -89.5q0 -53 -37.5 -91t-90.5 -38t-90.5 38t-37.5 91z" />
    <glyph glyph-name="Yacute" unicode="&#xdd;" horiz-adv-x="1392" 
d="M1397 1419q0 -13 -6 -29l-475 -845v-484q0 -28 -16 -44.5t-45 -16.5h-317q-29 0 -46 16.5t-17 44.5v486l-474 843q-6 16 -6 29q0 41 51 41h371q21 0 42.5 -16t34.5 -41l201 -399l203 401q27 55 78 55h370q51 0 51 -41zM605 1547q-28 0 -41 28l-32 64q-11 24 -11 40
q0 26 28 41l277 143q26 14 48 14q30 0 43 -28l50 -93q8 -16 8 -34q0 -38 -33 -49l-289 -114q-31 -12 -48 -12z" />
    <glyph glyph-name="Thorn" unicode="&#xde;" horiz-adv-x="1254" 
d="M1224 727q3 -233 -148 -376.5t-389 -141.5h-145v-165q0 -44 -44 -44h-352q-44 0 -44 44v1373q0 44 44 44h352q44 0 44 -44v-175h145q238 2 389 -140t148 -375zM784 725q0 54 -37 92t-90 38h-115v-260h115q53 0 90 38t37 92z" />
    <glyph glyph-name="germandbls" unicode="&#xdf;" horiz-adv-x="1299" 
d="M1246 -18q2 -204 -119.5 -321.5t-311.5 -115.5q-80 0 -168 25q-91 24 -158 66q-19 12 -19 32q0 14 9 27l106 250q8 20 35 20q10 0 25 -5q29 -11 49 -16q17 -4 66 -4q77 0 77 54q0 23 -19 36.5t-54 13.5h-157q-45 0 -47 45l-6 229q0 13 10 26l155 199h-254v-498
q0 -19 -10 -32t-24 -13h-316q-19 0 -31.5 15t-12.5 35v952q0 134 66 246q65 111 179 176q115 65 250 65q15 0 24.5 -8.5t9.5 -22.5v-323q0 -18 -10 -29.5t-25 -11.5q-42 0 -71 -26.5t-29 -65.5v-124h617q48 0 76.5 -32.5t28.5 -81.5q0 -48 -29 -85l-233 -293
q140 -26 231.5 -141.5t89.5 -262.5z" />
    <glyph glyph-name="agrave" unicode="&#xe0;" horiz-adv-x="1009" 
d="M947 562v-517q0 -21 -11 -33t-30 -12l-189 2q-20 0 -31 17l-39 61q-45 -51 -126 -83q-78 -31 -155 -31q-157 0 -244 75t-87 213q0 245 327 246l201 1v31q0 27 -27 42.5t-73 15.5q-132 0 -225 -34q-15 -6 -27 -6q-20 0 -31 23l-75 186q-6 15 -6 26q0 25 33 41
q63 32 170 59q104 26 181 26q216 0 340 -93.5t124 -255.5zM563 347h-79q-38 0 -56 -16t-18 -42t16 -41t45 -15q47 0 69 25.5t23 88.5zM558 1035l-265 163q-25 14 -25 44q0 22 15 42l66 83q17 21 38 21q23 0 54 -23l248 -189q21 -16 21 -37q0 -18 -19 -46l-42 -58
q-15 -21 -37 -21t-54 21z" />
    <glyph glyph-name="aacute" unicode="&#xe1;" horiz-adv-x="1009" 
d="M947 562v-517q0 -21 -11 -33t-30 -12l-189 2q-20 0 -31 17l-39 61q-45 -51 -126 -83q-78 -31 -155 -31q-157 0 -244 75t-87 213q0 245 327 246l201 1v31q0 27 -27 42.5t-73 15.5q-132 0 -225 -34q-15 -6 -27 -6q-20 0 -31 23l-75 186q-6 15 -6 26q0 25 33 41
q63 32 170 59q104 26 181 26q216 0 340 -93.5t124 -255.5zM563 347h-79q-38 0 -56 -16t-18 -42t16 -41t45 -15q47 0 69 25.5t23 88.5zM499 1014q-22 0 -37 21l-42 58q-19 28 -19 46q0 21 21 37l248 189q31 23 54 23q22 0 38 -21l66 -83q15 -20 15 -42q0 -30 -25 -44
l-265 -163q-31 -21 -54 -21z" />
    <glyph glyph-name="acircumflex" unicode="&#xe2;" horiz-adv-x="1009" 
d="M947 562v-517q0 -21 -11 -33t-30 -12l-189 2q-20 0 -31 17l-39 61q-45 -51 -126 -83q-78 -31 -155 -31q-157 0 -244 75t-87 213q0 245 327 246l201 1v31q0 27 -27 42.5t-73 15.5q-132 0 -225 -34q-15 -6 -27 -6q-20 0 -31 23l-75 186q-6 15 -6 26q0 25 33 41
q63 32 170 59q104 26 181 26q216 0 340 -93.5t124 -255.5zM563 347h-79q-38 0 -56 -16t-18 -42t16 -41t45 -15q47 0 69 25.5t23 88.5zM256 1171l237 193q20 15 31 15q16 0 32 -15l245 -199q20 -18 20 -39q0 -14 -9 -28l-51 -75q-15 -19 -38 -19q-22 0 -39 13l-159 113
l-158 -113q-22 -14 -40 -14q-22 0 -36 20l-52 78q-12 17 -12 32q0 13 10.5 23.5t18.5 14.5z" />
    <glyph glyph-name="atilde" unicode="&#xe3;" horiz-adv-x="1009" 
d="M947 562v-517q0 -21 -11 -33t-30 -12l-189 2q-20 0 -31 17l-39 61q-45 -51 -126 -83q-78 -31 -155 -31q-157 0 -244 75t-87 213q0 245 327 246l201 1v31q0 27 -27 42.5t-73 15.5q-132 0 -225 -34q-15 -6 -27 -6q-20 0 -31 23l-75 186q-6 15 -6 26q0 25 33 41
q63 32 170 59q104 26 181 26q216 0 340 -93.5t124 -255.5zM563 347h-79q-38 0 -56 -16t-18 -42t16 -41t45 -15q47 0 69 25.5t23 88.5zM239 1194q0 21 23 50q67 83 167 83q39 0 125 -48q40 -21 61 -21q24 0 46 30q20 23 37 23q16 0 35 -19l67 -67q13 -13 13 -26q0 -10 -8 -21
q-74 -111 -189 -111q-40 0 -120 44q-37 23 -66 23q-27 0 -57 -39q-8 -11 -22 -11q-18 0 -46 26l-46 46q-20 18 -20 38z" />
    <glyph glyph-name="adieresis" unicode="&#xe4;" horiz-adv-x="1009" 
d="M947 562v-517q0 -21 -11 -33t-30 -12l-189 2q-20 0 -31 17l-39 61q-45 -51 -126 -83q-78 -31 -155 -31q-157 0 -244 75t-87 213q0 245 327 246l201 1v31q0 27 -27 42.5t-73 15.5q-132 0 -225 -34q-15 -6 -27 -6q-20 0 -31 23l-75 186q-6 15 -6 26q0 25 33 41
q63 32 170 59q104 26 181 26q216 0 340 -93.5t124 -255.5zM563 347h-79q-38 0 -56 -16t-18 -42t16 -41t45 -15q47 0 69 25.5t23 88.5zM189 1195q0 65 47 112t114 47q65 0 112.5 -47t47.5 -112q0 -67 -47 -114t-113 -47q-67 0 -114 47t-47 114zM537 1195q0 65 47 112t114 47
q65 0 112.5 -47t47.5 -112q0 -67 -47 -114t-113 -47q-67 0 -114 47t-47 114z" />
    <glyph glyph-name="aring" unicode="&#xe5;" horiz-adv-x="1009" 
d="M947 562v-517q0 -21 -11 -33t-30 -12l-189 2q-20 0 -31 17l-39 61q-45 -51 -126 -83q-78 -31 -155 -31q-157 0 -244 75t-87 213q0 245 327 246l201 1v31q0 27 -27 42.5t-73 15.5q-132 0 -225 -34q-15 -6 -27 -6q-20 0 -31 23l-75 186q-6 15 -6 26q0 25 33 41
q63 32 170 59q104 26 181 26q216 0 340 -93.5t124 -255.5zM563 347h-79q-38 0 -56 -16t-18 -42t16 -41t45 -15q47 0 69 25.5t23 88.5zM789 1206q2 -107 -77 -185t-188 -76q-107 -2 -185.5 76t-76.5 185q0 109 76.5 185.5t185.5 76.5q109 2 188 -76.5t77 -185.5zM435 1207
q0 -37 26 -63.5t64 -26.5t64 26t26 63q0 38 -26 63.5t-64 25.5t-64 -25.5t-26 -62.5z" />
    <glyph glyph-name="ae" unicode="&#xe6;" horiz-adv-x="1551" 
d="M1417 354h-4h-462q10 -41 48 -66.5t91 -25.5q80 0 135 35q13 8 25 8q18 0 34 -21q32 -48 110 -158q10 -13 10 -28q0 -18 -18 -31q-132 -102 -305 -102q-162 0 -287 91q-129 -90 -349 -90q-209 0 -309.5 72t-100.5 216q0 73 23 123t70 78.5t110.5 41t154.5 13.5l160 1v20
q0 27 -18.5 42.5t-51.5 15.5q-113 0 -184 -30q-24 -8 -38 -8q-31 0 -42 21l-91 180q-8 18 -8 31q0 35 44 61q121 67 319 67q203 0 324 -82q120 81 271 81q196 3 324.5 -115t126.5 -294q0 -65 -28 -104t-84 -43zM953 510h231q-8 42 -39.5 67.5t-75.5 25.5q-41 0 -73 -26.5
t-43 -66.5zM553 310v27h-69q-23 0 -39 -10t-16 -23q0 -31 54 -31q32 0 51 10t19 27z" />
    <glyph glyph-name="ccedilla" unicode="&#xe7;" horiz-adv-x="842" 
d="M822 103q0 -19 -18 -32q-92 -74 -202 -96l-11 -86q44 0 68 -30.5t24 -86.5q0 -2 -2 -34l-6 -52q-12 -99 -78.5 -155.5t-170.5 -56.5h-114q-18 0 -16 25l19 151q1 18 21 18h114q26 0 28 19l6 51l1 5q0 16 -22 16h-65q-18 0 -16 17l24 199q-164 31 -275 163.5t-109 297.5
q0 128 65 238q64 108 176 172t244 64q169 0 297 -101q18 -14 18 -31q0 -12 -9 -26l-157 -240q-11 -20 -31 -20q-12 0 -27 9l-8 5q-9 5 -16 9q-40 24 -61 24q-41 0 -64.5 -26.5t-23.5 -74.5q0 -47 23.5 -74t64.5 -27q25 0 60 23q7 4 15 9l9 5q13 6 24 6q19 0 33 -20l159 -230
q9 -14 9 -27z" />
    <glyph glyph-name="egrave" unicode="&#xe8;" horiz-adv-x="977" 
d="M843 354h-4h-462q10 -41 48 -66.5t91 -25.5q80 0 135 35q13 8 25 8q18 0 34 -21q32 -48 110 -158q10 -13 10 -28q0 -18 -18 -31q-132 -102 -305 -102q-129 -3 -242 61t-179.5 174.5t-63.5 235.5q-2 127 63 237.5t177.5 174.5t241.5 62q196 3 324.5 -115t126.5 -294
q0 -65 -28 -104t-84 -43zM379 510h231q-8 42 -39.5 67.5t-75.5 25.5q-41 0 -73 -26.5t-43 -66.5zM540 1026l-265 163q-25 14 -25 44q0 23 15 42l66 83q17 21 38 21q23 0 54 -23l248 -189q21 -17 21 -37q0 -18 -19 -46l-42 -58q-15 -21 -37 -21t-54 21z" />
    <glyph glyph-name="eacute" unicode="&#xe9;" horiz-adv-x="977" 
d="M843 354h-4h-462q10 -41 48 -66.5t91 -25.5q80 0 135 35q13 8 25 8q18 0 34 -21q32 -48 110 -158q10 -13 10 -28q0 -18 -18 -31q-132 -102 -305 -102q-129 -3 -242 61t-179.5 174.5t-63.5 235.5q-2 127 63 237.5t177.5 174.5t241.5 62q196 3 324.5 -115t126.5 -294
q0 -65 -28 -104t-84 -43zM379 510h231q-8 42 -39.5 67.5t-75.5 25.5q-41 0 -73 -26.5t-43 -66.5zM481 1005q-22 0 -37 21l-42 58q-19 28 -19 46q0 20 21 37l248 189q31 23 54 23q22 0 38 -21l66 -83q15 -19 15 -42q0 -30 -25 -44l-265 -163q-31 -21 -54 -21z" />
    <glyph glyph-name="ecircumflex" unicode="&#xea;" horiz-adv-x="977" 
d="M843 354h-4h-462q10 -41 48 -66.5t91 -25.5q80 0 135 35q13 8 25 8q18 0 34 -21q32 -48 110 -158q10 -13 10 -28q0 -18 -18 -31q-132 -102 -305 -102q-129 -3 -242 61t-179.5 174.5t-63.5 235.5q-2 127 63 237.5t177.5 174.5t241.5 62q196 3 324.5 -115t126.5 -294
q0 -65 -28 -104t-84 -43zM379 510h231q-8 42 -39.5 67.5t-75.5 25.5q-41 0 -73 -26.5t-43 -66.5zM238 1162l237 193q20 15 31 15q16 0 32 -15l245 -199q20 -18 20 -39q0 -15 -9 -28l-51 -75q-15 -19 -38 -19q-22 0 -39 13l-159 113l-158 -113q-22 -14 -40 -14q-22 0 -36 20
l-52 78q-12 16 -12 32q0 13 10.5 23.5t18.5 14.5z" />
    <glyph glyph-name="edieresis" unicode="&#xeb;" horiz-adv-x="977" 
d="M843 354h-4h-462q10 -41 48 -66.5t91 -25.5q80 0 135 35q13 8 25 8q18 0 34 -21q32 -48 110 -158q10 -13 10 -28q0 -18 -18 -31q-132 -102 -305 -102q-129 -3 -242 61t-179.5 174.5t-63.5 235.5q-2 127 63 237.5t177.5 174.5t241.5 62q196 3 324.5 -115t126.5 -294
q0 -65 -28 -104t-84 -43zM379 510h231q-8 42 -39.5 67.5t-75.5 25.5q-41 0 -73 -26.5t-43 -66.5zM171 1186q0 65 47 112t114 47q65 0 112.5 -47t47.5 -112q0 -66 -47 -113.5t-113 -47.5q-67 0 -114 47t-47 114zM519 1186q0 65 47 112t114 47q65 0 112.5 -47t47.5 -112
q0 -66 -47 -113.5t-113 -47.5q-67 0 -114 47t-47 114z" />
    <glyph glyph-name="igrave" unicode="&#xec;" horiz-adv-x="536" 
d="M465 839v-800q0 -39 -39 -39h-316q-39 0 -39 39v800q0 39 39 39h316q39 0 39 -39zM301 1011l-265 163q-25 14 -25 44q0 22 15 42l66 83q16 21 38 21q23 0 54 -23l248 -189q21 -16 21 -37q0 -18 -19 -46l-42 -58q-15 -21 -37 -21q-23 0 -54 21z" />
    <glyph glyph-name="iacute" unicode="&#xed;" horiz-adv-x="536" 
d="M465 839v-800q0 -39 -39 -39h-316q-39 0 -39 39v800q0 39 39 39h316q39 0 39 -39zM242 990q-22 0 -37 21l-42 58q-19 28 -19 46q0 21 21 37l248 189q31 23 54 23q21 0 38 -21l66 -83q15 -20 15 -42q0 -30 -25 -44l-265 -163q-32 -21 -54 -21z" />
    <glyph glyph-name="icircumflex" unicode="&#xee;" horiz-adv-x="536" 
d="M465 839v-800q0 -39 -39 -39h-316q-39 0 -39 39v800q0 39 39 39h316q39 0 39 -39zM-1 1147l237 193q20 15 31 15q15 0 32 -15l245 -199q20 -18 20 -39q0 -14 -9 -28l-51 -75q-15 -19 -38 -19q-22 0 -39 13l-159 113l-158 -113q-22 -14 -40 -14q-22 0 -36 20l-52 78
q-12 17 -12 32q0 13 11 23.5t18 14.5z" />
    <glyph glyph-name="idieresis" unicode="&#xef;" horiz-adv-x="536" 
d="M465 839v-800q0 -39 -39 -39h-316q-39 0 -39 39v800q0 39 39 39h316q39 0 39 -39zM-68 1171q0 65 47 112t114 47q65 0 112.5 -47t47.5 -112q0 -67 -47.5 -114t-112.5 -47q-67 0 -114 47t-47 114zM280 1171q0 65 47 112t114 47q65 0 112.5 -47t47.5 -112q0 -67 -47.5 -114
t-112.5 -47q-67 0 -114 47t-47 114z" />
    <glyph glyph-name="eth" unicode="&#xf0;" horiz-adv-x="1011" 
d="M989 436q3 -124 -63.5 -234.5t-179 -174.5t-239.5 -62q-129 -3 -242 61t-179.5 174.5t-63.5 235.5q-2 123 62 232.5t173 174.5t234 67q-21 47 -58 84l-66 -66q-13 -13 -28 -13t-28 13l-53 53q-13 14 -13 28t13 27l49 49q-22 10 -64 26q-20 7 -32 23.5t-12 35.5q0 12 4 19
l147 258q12 23 42 23q13 0 31 -8q86 -45 163 -99l75 75q13 13 27 13t27 -13l53 -53q14 -14 14 -28t-13 -27l-64 -64q149 -144 216 -343q68 -201 68 -487zM605 438q0 43 -29 72t-71 29t-71.5 -29t-29.5 -72q0 -42 29.5 -71.5t71.5 -29.5t71 29.5t29 71.5z" />
    <glyph glyph-name="ntilde" unicode="&#xf1;" horiz-adv-x="1053" 
d="M991 477v-434q0 -41 -41 -41h-312q-41 0 -41 41v437q0 24 -18 39t-43 15q-31 0 -50.5 -20.5t-19.5 -58.5v-412q0 -41 -41 -41h-313q-41 0 -41 41v794q0 19 11.5 30.5t30.5 11.5h182q27 0 44 -25l45 -70q108 126 264 126q175 0 259 -107.5t84 -325.5zM222 1170q0 21 23 50
q67 83 167 83q39 0 125 -48q40 -21 61 -21q24 0 46 30q20 23 37 23q16 0 35 -19l67 -67q13 -13 13 -26q0 -10 -8 -21q-74 -111 -189 -111q-40 0 -120 44q-37 23 -66 23q-27 0 -57 -39q-8 -11 -22 -11q-18 0 -46 26l-46 46q-20 18 -20 38z" />
    <glyph glyph-name="ograve" unicode="&#xf2;" horiz-adv-x="1011" 
d="M507 910q127 2 240 -63t179 -175.5t63 -235.5q3 -124 -63.5 -234.5t-179 -174.5t-239.5 -62q-129 -3 -242 61t-179.5 174.5t-63.5 235.5q0 128 65 238q64 108 176 172t244 64zM505 337q42 0 71 29.5t29 71.5q0 43 -29 72t-71 29t-71.5 -29t-29.5 -72q0 -42 29.5 -71.5
t71.5 -29.5zM540 1023l-265 163q-25 14 -25 44q0 22 15 42l66 83q17 21 38 21q23 0 54 -23l248 -189q21 -16 21 -37q0 -18 -19 -46l-42 -58q-15 -21 -37 -21t-54 21z" />
    <glyph glyph-name="oacute" unicode="&#xf3;" horiz-adv-x="1011" 
d="M507 910q127 2 240 -63t179 -175.5t63 -235.5q3 -124 -63.5 -234.5t-179 -174.5t-239.5 -62q-129 -3 -242 61t-179.5 174.5t-63.5 235.5q0 128 65 238q64 108 176 172t244 64zM505 337q42 0 71 29.5t29 71.5q0 43 -29 72t-71 29t-71.5 -29t-29.5 -72q0 -42 29.5 -71.5
t71.5 -29.5zM481 1002q-22 0 -37 21l-42 58q-19 28 -19 46q0 21 21 37l248 189q31 23 54 23q22 0 38 -21l66 -83q15 -20 15 -42q0 -30 -25 -44l-265 -163q-31 -21 -54 -21z" />
    <glyph glyph-name="ocircumflex" unicode="&#xf4;" horiz-adv-x="1011" 
d="M507 910q127 2 240 -63t179 -175.5t63 -235.5q3 -124 -63.5 -234.5t-179 -174.5t-239.5 -62q-129 -3 -242 61t-179.5 174.5t-63.5 235.5q0 128 65 238q64 108 176 172t244 64zM505 337q42 0 71 29.5t29 71.5q0 43 -29 72t-71 29t-71.5 -29t-29.5 -72q0 -42 29.5 -71.5
t71.5 -29.5zM238 1159l237 193q20 15 31 15q16 0 32 -15l245 -199q20 -18 20 -39q0 -14 -9 -28l-51 -75q-15 -19 -38 -19q-22 0 -39 13l-159 113l-158 -113q-22 -14 -40 -14q-22 0 -36 20l-52 78q-12 17 -12 32q0 13 10.5 23.5t18.5 14.5z" />
    <glyph glyph-name="otilde" unicode="&#xf5;" horiz-adv-x="1011" 
d="M507 910q127 2 240 -63t179 -175.5t63 -235.5q3 -124 -63.5 -234.5t-179 -174.5t-239.5 -62q-129 -3 -242 61t-179.5 174.5t-63.5 235.5q0 128 65 238q64 108 176 172t244 64zM505 337q42 0 71 29.5t29 71.5q0 43 -29 72t-71 29t-71.5 -29t-29.5 -72q0 -42 29.5 -71.5
t71.5 -29.5zM221 1182q0 21 23 50q67 83 167 83q39 0 125 -48q40 -21 61 -21q24 0 46 30q20 23 37 23q16 0 35 -19l67 -67q13 -13 13 -26q0 -10 -8 -21q-74 -111 -189 -111q-40 0 -120 44q-37 23 -66 23q-27 0 -57 -39q-8 -11 -22 -11q-18 0 -46 26l-46 46q-20 18 -20 38z
" />
    <glyph glyph-name="odieresis" unicode="&#xf6;" horiz-adv-x="1011" 
d="M507 910q127 2 240 -63t179 -175.5t63 -235.5q3 -124 -63.5 -234.5t-179 -174.5t-239.5 -62q-129 -3 -242 61t-179.5 174.5t-63.5 235.5q0 128 65 238q64 108 176 172t244 64zM505 337q42 0 71 29.5t29 71.5q0 43 -29 72t-71 29t-71.5 -29t-29.5 -72q0 -42 29.5 -71.5
t71.5 -29.5zM171 1183q0 65 47 112t114 47q65 0 112.5 -47t47.5 -112q0 -67 -47 -114t-113 -47q-67 0 -114 47t-47 114zM519 1183q0 65 47 112t114 47q65 0 112.5 -47t47.5 -112q0 -67 -47 -114t-113 -47q-67 0 -114 47t-47 114z" />
    <glyph glyph-name="divide" unicode="&#xf7;" horiz-adv-x="882" 
d="M290 804q0 62 44 106t107 44q61 0 105 -44t44 -106q0 -61 -44 -105.5t-105 -44.5q-63 0 -107 44.5t-44 105.5zM46 393v182q0 21 13.5 35t33.5 14h698q20 0 32.5 -13t12.5 -33v-185q0 -20 -13.5 -33t-34.5 -13h-697q-18 0 -31.5 13.5t-13.5 32.5zM290 167q0 62 44 106
t107 44q61 0 105 -44t44 -106q0 -61 -44 -105.5t-105 -44.5q-63 0 -107 44.5t-44 105.5z" />
    <glyph glyph-name="oslash" unicode="&#xf8;" horiz-adv-x="1011" 
d="M989 436q3 -124 -63.5 -234.5t-179 -174.5t-239.5 -62q-181 0 -314 111l-49 -41q-13 -10 -26 -10q-16 0 -29 15l-49 57q-10 13 -10 26q0 17 15 29l47 39q-70 115 -70 245q0 128 65 238q64 108 176 172t244 64q175 0 308 -109l48 40q10 10 25 10q16 0 29 -16l48 -57
q11 -14 11 -27q0 -15 -15 -27l-45 -38q73 -113 73 -250zM605 438q0 43 -29 72t-71 29t-71.5 -29t-29.5 -72q0 -42 29.5 -71.5t71.5 -29.5t71 29.5t29 71.5z" />
    <glyph glyph-name="ugrave" unicode="&#xf9;" horiz-adv-x="1053" 
d="M982 835v-794q0 -19 -11.5 -30.5t-30.5 -11.5h-182q-27 0 -44 25l-45 70q-108 -126 -264 -126q-175 0 -259 107.5t-84 325.5v434q0 41 41 41h312q41 0 41 -41v-437q0 -24 18 -39t43 -15q31 0 50.5 20.5t19.5 58.5v412q0 41 41 41h313q41 0 41 -41zM549 1011l-265 163
q-25 14 -25 44q0 22 15 42l66 83q16 21 38 21q23 0 54 -23l248 -189q21 -16 21 -37q0 -18 -19 -46l-42 -58q-15 -21 -37 -21q-23 0 -54 21z" />
    <glyph glyph-name="uacute" unicode="&#xfa;" horiz-adv-x="1053" 
d="M982 835v-794q0 -19 -11.5 -30.5t-30.5 -11.5h-182q-27 0 -44 25l-45 70q-108 -126 -264 -126q-175 0 -259 107.5t-84 325.5v434q0 41 41 41h312q41 0 41 -41v-437q0 -24 18 -39t43 -15q31 0 50.5 20.5t19.5 58.5v412q0 41 41 41h313q41 0 41 -41zM490 990q-22 0 -37 21
l-42 58q-19 28 -19 46q0 21 21 37l248 189q31 23 54 23q21 0 38 -21l66 -83q15 -20 15 -42q0 -30 -25 -44l-265 -163q-32 -21 -54 -21z" />
    <glyph glyph-name="ucircumflex" unicode="&#xfb;" horiz-adv-x="1053" 
d="M982 835v-794q0 -19 -11.5 -30.5t-30.5 -11.5h-182q-27 0 -44 25l-45 70q-108 -126 -264 -126q-175 0 -259 107.5t-84 325.5v434q0 41 41 41h312q41 0 41 -41v-437q0 -24 18 -39t43 -15q31 0 50.5 20.5t19.5 58.5v412q0 41 41 41h313q41 0 41 -41zM247 1147l237 193
q20 15 31 15q15 0 32 -15l245 -199q20 -18 20 -39q0 -14 -9 -28l-51 -75q-15 -19 -38 -19q-22 0 -39 13l-159 113l-158 -113q-22 -14 -40 -14q-22 0 -36 20l-52 78q-12 17 -12 32q0 13 11 23.5t18 14.5z" />
    <glyph glyph-name="udieresis" unicode="&#xfc;" horiz-adv-x="1053" 
d="M982 835v-794q0 -19 -11.5 -30.5t-30.5 -11.5h-182q-27 0 -44 25l-45 70q-108 -126 -264 -126q-175 0 -259 107.5t-84 325.5v434q0 41 41 41h312q41 0 41 -41v-437q0 -24 18 -39t43 -15q31 0 50.5 20.5t19.5 58.5v412q0 41 41 41h313q41 0 41 -41zM180 1171q0 65 47 112
t114 47q65 0 112.5 -47t47.5 -112q0 -67 -47.5 -114t-112.5 -47q-67 0 -114 47t-47 114zM528 1171q0 65 47 112t114 47q65 0 112.5 -47t47.5 -112q0 -67 -47.5 -114t-112.5 -47q-67 0 -114 47t-47 114z" />
    <glyph glyph-name="yacute" unicode="&#xfd;" horiz-adv-x="975" 
d="M982 843q0 -10 -5 -22l-313 -783l-1 -1l-173 -423q-14 -36 -52 -36h-283q-59 0 -59 40q0 14 9 35l181 450l-287 718q-5 12 -5 22q0 15 10 25t23 10h336q19 0 35 -10.5t20 -27.5l70 -326l70 326q4 17 20 27.5t35 10.5h336q13 0 23 -10t10 -25zM464 990q-22 0 -37 21
l-42 58q-19 28 -19 46q0 21 21 37l248 189q31 23 54 23q21 0 38 -21l66 -83q15 -20 15 -42q0 -30 -25 -44l-265 -163q-32 -21 -54 -21z" />
    <glyph glyph-name="thorn" unicode="&#xfe;" horiz-adv-x="1047" 
d="M1025 441q2 -206 -109 -341.5t-282 -132.5q-101 0 -175 52v-402q0 -19 -11 -30.5t-28 -11.5h-307q-19 0 -30.5 11t-11.5 31v1802q0 20 11.5 31t30.5 11h307q17 0 28 -11.5t11 -30.5v-559q77 51 175 51q171 3 282 -131.5t109 -338.5zM655 438q0 43 -29 72t-71 29
t-71.5 -29t-29.5 -72t29 -72.5t70 -29.5q43 0 72.5 29.5t29.5 72.5z" />
    <glyph glyph-name="ydieresis" unicode="&#xff;" horiz-adv-x="975" 
d="M982 843q0 -10 -5 -22l-313 -783l-1 -1l-173 -423q-14 -36 -52 -36h-283q-59 0 -59 40q0 14 9 35l181 450l-287 718q-5 12 -5 22q0 15 10 25t23 10h336q19 0 35 -10.5t20 -27.5l70 -326l70 326q4 17 20 27.5t35 10.5h336q13 0 23 -10t10 -25zM154 1171q0 65 47 112
t114 47q65 0 112.5 -47t47.5 -112q0 -67 -47.5 -114t-112.5 -47q-67 0 -114 47t-47 114zM502 1171q0 65 47 112t114 47q65 0 112.5 -47t47.5 -112q0 -67 -47.5 -114t-112.5 -47q-67 0 -114 47t-47 114z" />
    <glyph glyph-name="Amacron" unicode="&#x100;" horiz-adv-x="1474" 
d="M1469 39q0 -18 -13 -29t-37 -11h-350q-26 0 -47 15.5t-29 40.5l-43 138h-426l-43 -137q-7 -24 -28.5 -40t-48.5 -16h-350q-49 0 -49 41q0 14 5 26l518 1337q11 26 33 41.5t47 15.5h260q25 0 46.5 -15.5t31.5 -41.5l517 -1338q6 -14 6 -27zM636 555h201l-101 323z
M511 1585v134q0 14 9 23t23 9h389q30 0 30 -30v-136q0 -14 -9.5 -22t-22.5 -8h-389q-11 0 -20.5 8.5t-9.5 21.5z" />
    <glyph glyph-name="amacron" unicode="&#x101;" horiz-adv-x="1009" 
d="M947 562v-517q0 -21 -11 -33t-30 -12l-189 2q-20 0 -31 17l-39 61q-45 -51 -126 -83q-78 -31 -155 -31q-157 0 -244 75t-87 213q0 245 327 246l201 1v31q0 27 -27 42.5t-73 15.5q-132 0 -225 -34q-15 -6 -27 -6q-20 0 -31 23l-75 186q-6 15 -6 26q0 25 33 41
q63 32 170 59q104 26 181 26q216 0 340 -93.5t124 -255.5zM563 347h-79q-38 0 -56 -16t-18 -42t16 -41t45 -15q47 0 69 25.5t23 88.5zM299 1064v134q0 14 9 23t23 9h389q30 0 30 -30v-136q0 -14 -9.5 -22t-22.5 -8h-389q-11 0 -20.5 8.5t-9.5 21.5z" />
    <glyph glyph-name="Abreve" unicode="&#x102;" horiz-adv-x="1474" 
d="M1469 39q0 -18 -13 -29t-37 -11h-350q-26 0 -47 15.5t-29 40.5l-43 138h-426l-43 -137q-7 -24 -28.5 -40t-48.5 -16h-350q-49 0 -49 41q0 14 5 26l518 1337q11 26 33 41.5t47 15.5h260q25 0 46.5 -15.5t31.5 -41.5l517 -1338q6 -14 6 -27zM636 555h201l-101 323z
M492 1760q0 22 12.5 35t34.5 13h80q26 0 41 -14.5t15 -40.5q0 -23 17.5 -36t48.5 -13q63 0 63 49q0 26 14 40.5t39 14.5h80q49 0 49 -48q0 -105 -66 -165t-181 -60t-181 60t-66 165z" />
    <glyph glyph-name="abreve" unicode="&#x103;" horiz-adv-x="1009" 
d="M947 562v-517q0 -21 -11 -33t-30 -12l-189 2q-20 0 -31 17l-39 61q-45 -51 -126 -83q-78 -31 -155 -31q-157 0 -244 75t-87 213q0 245 327 246l201 1v31q0 27 -27 42.5t-73 15.5q-132 0 -225 -34q-15 -6 -27 -6q-20 0 -31 23l-75 186q-6 15 -6 26q0 25 33 41
q63 32 170 59q104 26 181 26q216 0 340 -93.5t124 -255.5zM563 347h-79q-38 0 -56 -16t-18 -42t16 -41t45 -15q47 0 69 25.5t23 88.5zM231 1299q0 27 15 42t41 15h95q31 0 48.5 -17.5t17.5 -47.5q0 -27 21 -43t58 -16q35 0 54.5 16t19.5 43q0 30 17 47.5t46 17.5h95
q28 0 43 -15t15 -42q0 -125 -78 -196t-215 -71q-135 0 -214 71.5t-79 195.5z" />
    <glyph glyph-name="Aogonek" unicode="&#x104;" horiz-adv-x="1474" 
d="M1544 -476q-73 -17 -157 -17q-141 0 -221.5 69t-80.5 189q0 146 104 234h-120q-26 0 -47 15.5t-29 40.5l-43 138h-426l-43 -137q-7 -24 -28.5 -40t-48.5 -16h-350q-49 0 -49 41q0 14 5 26l518 1337q11 26 33 41.5t47 15.5h260q25 0 46.5 -15.5t31.5 -41.5l517 -1338
q5 -12 5 -26q0 -20 -12 -30h2q-81 -49 -126.5 -107.5t-45.5 -114.5q0 -38 31 -59.5t86 -21.5q42 0 112 14q2 1 9 1q28 0 32 -30l18 -128q6 -32 -30 -40zM636 555h201l-101 323z" />
    <glyph glyph-name="aogonek" unicode="&#x105;" horiz-adv-x="1009" 
d="M992 -486q-73 -17 -157 -17q-141 0 -221.5 69t-80.5 189q0 78 33 144.5t91 104.5q25 15 28 16l-38 60q-45 -51 -126 -83q-78 -31 -155 -31q-157 0 -244 75t-87 213q0 245 327 246l201 1v31q0 27 -27 42.5t-73 15.5q-132 0 -225 -34q-15 -6 -27 -6q-20 0 -31 23l-75 186
q-6 15 -6 26q0 25 33 41q63 32 170 59q104 26 181 26q216 0 340 -93.5t124 -255.5v-517q0 -21 -11 -33t-30 -12q-81 -49 -126.5 -107.5t-45.5 -114.5q0 -38 31 -59.5t86 -21.5q42 0 112 14q2 1 9 1q28 0 32 -30l18 -128q6 -32 -30 -40zM563 347h-79q-38 0 -56 -16t-18 -42
t16 -41t45 -15q47 0 69 25.5t23 88.5z" />
    <glyph glyph-name="Cacute" unicode="&#x106;" horiz-adv-x="1318" 
d="M1042 480q29 0 45 -22l184 -284q6 -9 6 -20q0 -31 -34 -55q-82 -57 -203 -95q-124 -39 -223 -39q-212 0 -390 101q-176 102 -279 277q-102 175 -102 385t102 386q104 176 279 276q177 102 390 102q96 0 224 -41q122 -39 211 -100q26 -20 26 -48q0 -17 -8 -28l-187 -281
q-14 -20 -41 -20q-24 0 -45 15q-35 26 -88 44q-51 19 -92 19q-136 3 -235 -94t-96 -230q-3 -132 96 -228t235 -94q40 0 88 16q51 16 86 41q26 17 51 17zM726 1577q-28 0 -41 28l-32 64q-11 24 -11 40q0 26 28 41l277 143q26 14 48 14q30 0 43 -28l50 -93q8 -16 8 -34
q0 -38 -33 -49l-289 -114q-32 -12 -48 -12z" />
    <glyph glyph-name="cacute" unicode="&#x107;" horiz-adv-x="842" 
d="M621 380q19 0 33 -20l159 -230q9 -14 9 -27q0 -19 -18 -32q-131 -106 -297 -106q-129 -3 -242 61t-179.5 174.5t-63.5 235.5q0 128 65 238q64 108 176 172t244 64q169 0 297 -101q18 -14 18 -31q0 -12 -9 -26l-157 -240q-11 -20 -31 -20q-12 0 -27 9l-8 5q-9 5 -16 9
q-40 24 -61 24q-41 0 -64.5 -26.5t-23.5 -74.5q0 -47 23.5 -74t64.5 -27q25 0 60 23q7 4 15 9l9 5q13 6 24 6zM482 1003q-22 0 -37 21l-42 58q-19 28 -19 46q0 20 21 37l248 189q31 23 54 23q21 0 38 -21l66 -83q15 -19 15 -42q0 -30 -25 -44l-265 -163q-32 -21 -54 -21z
" />
    <glyph glyph-name="Ccircumflex" unicode="&#x108;" horiz-adv-x="1318" 
d="M1042 480q29 0 45 -22l184 -284q6 -9 6 -20q0 -31 -34 -55q-82 -57 -203 -95q-124 -39 -223 -39q-212 0 -390 101q-176 102 -279 277q-102 175 -102 385t102 386q104 176 279 276q177 102 390 102q96 0 224 -41q122 -39 211 -100q26 -20 26 -48q0 -17 -8 -28l-187 -281
q-14 -20 -41 -20q-24 0 -45 15q-35 26 -88 44q-51 19 -92 19q-136 3 -235 -94t-96 -230q-3 -132 96 -228t235 -94q40 0 88 16q51 16 86 41q26 17 51 17zM563 1709l221 161q18 12 29 12q15 0 30 -12l228 -166q19 -13 19 -33q0 -9 -8 -23l-48 -63q-13 -16 -35 -16
q-18 0 -37 11l-148 94l-147 -94q-19 -12 -38 -12t-33 17l-49 65q-11 16 -11 27q0 14 27 32z" />
    <glyph glyph-name="ccircumflex" unicode="&#x109;" horiz-adv-x="842" 
d="M621 380q19 0 33 -20l159 -230q9 -14 9 -27q0 -19 -18 -32q-131 -106 -297 -106q-129 -3 -242 61t-179.5 174.5t-63.5 235.5q0 128 65 238q64 108 176 172t244 64q169 0 297 -101q18 -14 18 -31q0 -12 -9 -26l-157 -240q-11 -20 -31 -20q-12 0 -27 9l-8 5q-9 5 -16 9
q-40 24 -61 24q-41 0 -64.5 -26.5t-23.5 -74.5q0 -47 23.5 -74t64.5 -27q25 0 60 23q7 4 15 9l9 5q13 6 24 6zM239 1160l237 193q20 15 31 15q15 0 32 -15l245 -199q20 -18 20 -39q0 -15 -9 -28l-51 -75q-15 -19 -38 -19q-22 0 -39 13l-159 113l-158 -113q-22 -14 -40 -14
q-22 0 -36 20l-52 78q-12 16 -12 32q0 13 11 23.5t18 14.5z" />
    <glyph glyph-name="Cdotaccent" unicode="&#x10a;" horiz-adv-x="1318" 
d="M1042 480q29 0 45 -22l184 -284q6 -9 6 -20q0 -31 -34 -55q-82 -57 -203 -95q-124 -39 -223 -39q-212 0 -390 101q-176 102 -279 277q-102 175 -102 385t102 386q104 176 279 276q177 102 390 102q96 0 224 -41q122 -39 211 -100q26 -20 26 -48q0 -17 -8 -28l-187 -281
q-14 -20 -41 -20q-24 0 -45 15q-35 26 -88 44q-51 19 -92 19q-136 3 -235 -94t-96 -230q-3 -132 96 -228t235 -94q40 0 88 16q51 16 86 41q26 17 51 17zM657 1762q0 65 47 112t114 47q65 0 112.5 -47t47.5 -112q0 -66 -47 -113.5t-113 -47.5q-67 0 -114 47t-47 114z" />
    <glyph glyph-name="cdotaccent" unicode="&#x10b;" horiz-adv-x="842" 
d="M621 380q19 0 33 -20l159 -230q9 -14 9 -27q0 -19 -18 -32q-131 -106 -297 -106q-129 -3 -242 61t-179.5 174.5t-63.5 235.5q0 128 65 238q64 108 176 172t244 64q169 0 297 -101q18 -14 18 -31q0 -12 -9 -26l-157 -240q-11 -20 -31 -20q-12 0 -27 9l-8 5q-9 5 -16 9
q-40 24 -61 24q-41 0 -64.5 -26.5t-23.5 -74.5q0 -47 23.5 -74t64.5 -27q25 0 60 23q7 4 15 9l9 5q13 6 24 6zM344 1184q0 65 47 112t114 47q65 0 112.5 -47t47.5 -112q0 -66 -47.5 -113.5t-112.5 -47.5q-67 0 -114 47t-47 114z" />
    <glyph glyph-name="Ccaron" unicode="&#x10c;" horiz-adv-x="1318" 
d="M1042 480q29 0 45 -22l184 -284q6 -9 6 -20q0 -31 -34 -55q-82 -57 -203 -95q-124 -39 -223 -39q-212 0 -390 101q-176 102 -279 277q-102 175 -102 385t102 386q104 176 279 276q177 102 390 102q96 0 224 -41q122 -39 211 -100q26 -20 26 -48q0 -17 -8 -28l-187 -281
q-14 -20 -41 -20q-24 0 -45 15q-35 26 -88 44q-51 19 -92 19q-136 3 -235 -94t-96 -230q-3 -132 96 -228t235 -94q40 0 88 16q51 16 86 41q26 17 51 17zM536 1763q0 11 11 27l49 65q14 17 33 17t38 -12l147 -94l148 94q19 11 37 11q22 0 35 -16l48 -63q8 -14 8 -23
q0 -20 -19 -33l-228 -166q-15 -12 -30 -12q-11 0 -29 12l-221 161q-27 17 -27 32z" />
    <glyph glyph-name="ccaron" unicode="&#x10d;" horiz-adv-x="842" 
d="M621 380q19 0 33 -20l159 -230q9 -14 9 -27q0 -19 -18 -32q-131 -106 -297 -106q-129 -3 -242 61t-179.5 174.5t-63.5 235.5q0 128 65 238q64 108 176 172t244 64q169 0 297 -101q18 -14 18 -31q0 -12 -9 -26l-157 -240q-11 -20 -31 -20q-12 0 -27 9l-8 5q-9 5 -16 9
q-40 24 -61 24q-41 0 -64.5 -26.5t-23.5 -74.5q0 -47 23.5 -74t64.5 -27q25 0 60 23q7 4 15 9l9 5q13 6 24 6zM210 1237q0 15 12 32l52 78q14 20 36 20q18 0 40 -14l158 -113l159 113q17 13 39 13q23 0 38 -19l51 -75q9 -14 9 -28q0 -21 -20 -39l-245 -199q-17 -15 -32 -15
q-11 0 -31 15l-237 193q-29 17 -29 38z" />
    <glyph glyph-name="Dcaron" unicode="&#x10e;" horiz-adv-x="1420" 
d="M102 61v1338q0 25 18.5 43.5t43.5 18.5h481q213 0 379 -93q166 -91 258 -259q92 -167 92 -380q0 -212 -92 -379q-92 -166 -258 -258t-379 -92h-481q-25 0 -43.5 18.5t-18.5 42.5zM543 418h102q122 -3 205.5 89.5t81.5 221.5q0 138 -81 229.5t-206 90.5l-102 -1v-630z
M229 1732q0 11 11 27l49 65q14 17 33 17q18 0 38 -12l147 -94l148 94q19 11 37 11q22 0 35 -16l48 -63q8 -14 8 -23q0 -20 -19 -33l-228 -166q-15 -12 -30 -12q-11 0 -29 12l-221 161q-27 17 -27 32z" />
    <glyph glyph-name="dcaron" unicode="&#x10f;" horiz-adv-x="1048" 
d="M977 1420v-1376q0 -19 -11.5 -30.5t-30.5 -11.5h-189q-20 0 -30 16l-50 77q-91 -129 -253 -129q-171 -3 -282 131.5t-109 338.5q-2 206 109 341.5t282 132.5q98 0 172 -50l-3 560q0 19 11 30.5t28 11.5h314q19 0 30.5 -11.5t11.5 -30.5zM593 438q0 43 -29.5 72t-71.5 29
t-71 -29t-29 -72q0 -42 29 -71.5t71 -29.5t71.5 29.5t29.5 71.5zM1121 1161h-52q-28 0 -46 14.5t-18 37.5l1 313q0 33 15 53.5t40 20.5h95q33 0 49.5 -20.5t13.5 -53.5l-29 -315q-2 -22 -21.5 -36t-47.5 -14z" />
    <glyph glyph-name="Dcroat" unicode="&#x110;" horiz-adv-x="1420" 
d="M1374 729q0 -212 -92 -379q-92 -166 -258 -258t-379 -92h-481q-25 0 -43.5 18.5t-18.5 42.5v594h-69q-39 0 -39 39v75q0 39 39 39h69v591q0 25 18.5 43.5t43.5 18.5h481q213 0 379 -93q166 -91 258 -259q92 -167 92 -380zM932 729q0 138 -81 229.5t-206 90.5l-102 -1
v-240h178q38 0 38 -39v-75q0 -39 -38 -39h-178v-237h102q122 -3 205.5 89.5t81.5 221.5z" />
    <glyph glyph-name="dslash" unicode="&#x111;" horiz-adv-x="1048" 
d="M1078 1119v-75q0 -39 -38 -39h-63v-961q0 -19 -11.5 -30.5t-30.5 -11.5h-189q-20 0 -30 16l-50 77q-91 -129 -253 -129q-171 -3 -282 131.5t-109 338.5q-2 206 109 341.5t282 132.5q98 0 172 -50l-1 145h-112q-39 0 -39 39v75q0 39 39 39h112l-2 262q0 19 11 30.5
t28 11.5h314q19 0 30.5 -11.5t11.5 -30.5v-262h63q38 0 38 -39zM593 438q0 43 -29.5 72t-71.5 29t-71 -29t-29 -72q0 -42 29 -71.5t71 -29.5t71.5 29.5t29.5 71.5z" />
    <glyph glyph-name="Emacron" unicode="&#x112;" horiz-adv-x="1277" 
d="M102 61v1337q0 30 16.5 46.5t45.5 16.5h951q29 0 45.5 -17t16.5 -46v-292q0 -29 -16.5 -46t-45.5 -17h-572v-154h416q32 0 50 -17t18 -47v-199q0 -29 -18 -46t-50 -17h-416v-146h567q40 0 63 -22t23 -59v-275q0 -28 -17 -44.5t-45 -16.5h-970q-29 0 -45.5 16.5
t-16.5 44.5zM440 1585v134q0 14 9 23t23 9h389q30 0 30 -30v-136q0 -14 -9.5 -22t-22.5 -8h-389q-11 0 -20.5 8.5t-9.5 21.5z" />
    <glyph glyph-name="emacron" unicode="&#x113;" horiz-adv-x="977" 
d="M843 354h-4h-462q10 -41 48 -66.5t91 -25.5q80 0 135 35q13 8 25 8q18 0 34 -21q32 -48 110 -158q10 -13 10 -28q0 -18 -18 -31q-132 -102 -305 -102q-129 -3 -242 61t-179.5 174.5t-63.5 235.5q-2 127 63 237.5t177.5 174.5t241.5 62q196 3 324.5 -115t126.5 -294
q0 -65 -28 -104t-84 -43zM379 510h231q-8 42 -39.5 67.5t-75.5 25.5q-41 0 -73 -26.5t-43 -66.5zM281 1055v134q0 14 9 23t23 9h389q30 0 30 -30v-136q0 -14 -9.5 -22t-22.5 -8h-389q-11 0 -20.5 8.5t-9.5 21.5z" />
    <glyph glyph-name="Ebreve" unicode="&#x114;" horiz-adv-x="1277" 
d="M102 61v1337q0 30 16.5 46.5t45.5 16.5h951q29 0 45.5 -17t16.5 -46v-292q0 -29 -16.5 -46t-45.5 -17h-572v-154h416q32 0 50 -17t18 -47v-199q0 -29 -18 -46t-50 -17h-416v-146h567q40 0 63 -22t23 -59v-275q0 -28 -17 -44.5t-45 -16.5h-970q-29 0 -45.5 16.5
t-16.5 44.5zM421 1760q0 22 12.5 35t34.5 13h80q26 0 41 -14.5t15 -40.5q0 -23 17.5 -36t48.5 -13q63 0 63 49q0 26 14 40.5t39 14.5h80q49 0 49 -48q0 -105 -66 -165t-181 -60t-181 60t-66 165z" />
    <glyph glyph-name="ebreve" unicode="&#x115;" horiz-adv-x="977" 
d="M843 354h-4h-462q10 -41 48 -66.5t91 -25.5q80 0 135 35q13 8 25 8q18 0 34 -21q32 -48 110 -158q10 -13 10 -28q0 -18 -18 -31q-132 -102 -305 -102q-129 -3 -242 61t-179.5 174.5t-63.5 235.5q-2 127 63 237.5t177.5 174.5t241.5 62q196 3 324.5 -115t126.5 -294
q0 -65 -28 -104t-84 -43zM379 510h231q-8 42 -39.5 67.5t-75.5 25.5q-41 0 -73 -26.5t-43 -66.5zM213 1290q0 27 15 42t41 15h95q31 0 48.5 -17.5t17.5 -47.5q0 -27 21 -43t58 -16q35 0 54.5 16t19.5 43q0 30 17 47.5t46 17.5h95q28 0 43 -15t15 -42q0 -125 -78 -196
t-215 -71q-135 0 -214 71.5t-79 195.5z" />
    <glyph glyph-name="Edotaccent" unicode="&#x116;" horiz-adv-x="1277" 
d="M102 61v1337q0 30 16.5 46.5t45.5 16.5h951q29 0 45.5 -17t16.5 -46v-292q0 -29 -16.5 -46t-45.5 -17h-572v-154h416q32 0 50 -17t18 -47v-199q0 -29 -18 -46t-50 -17h-416v-146h567q40 0 63 -22t23 -59v-275q0 -28 -17 -44.5t-45 -16.5h-970q-29 0 -45.5 16.5
t-16.5 44.5zM507 1731q0 65 47 112t114 47q65 0 112.5 -47t47.5 -112q0 -67 -47 -114t-113 -47q-67 0 -114 47t-47 114z" />
    <glyph glyph-name="edotaccent" unicode="&#x117;" horiz-adv-x="977" 
d="M843 354h-4h-462q10 -41 48 -66.5t91 -25.5q80 0 135 35q13 8 25 8q18 0 34 -21q32 -48 110 -158q10 -13 10 -28q0 -18 -18 -31q-132 -102 -305 -102q-129 -3 -242 61t-179.5 174.5t-63.5 235.5q-2 127 63 237.5t177.5 174.5t241.5 62q196 3 324.5 -115t126.5 -294
q0 -65 -28 -104t-84 -43zM379 510h231q-8 42 -39.5 67.5t-75.5 25.5q-41 0 -73 -26.5t-43 -66.5zM343 1186q0 65 47 112t114 47q65 0 112.5 -47t47.5 -112q0 -66 -47 -113.5t-113 -47.5q-67 0 -114 47t-47 114z" />
    <glyph glyph-name="Eogonek" unicode="&#x118;" horiz-adv-x="1277" 
d="M1256 -477q-73 -17 -157 -17q-141 0 -221.5 69t-80.5 189q0 72 28 134t78 102h-739q-29 0 -45.5 16.5t-16.5 44.5v1337q0 30 16.5 46.5t45.5 16.5h951q29 0 45.5 -17t16.5 -46v-292q0 -29 -16.5 -46t-45.5 -17h-572v-154h416q32 0 50 -17t18 -47v-199q0 -29 -18 -46
t-50 -17h-416v-146h567q40 0 63 -22t23 -59v-275q0 -34 -26 -52q-81 -49 -126.5 -107.5t-45.5 -114.5q0 -38 31 -59.5t86 -21.5q42 0 112 14q2 1 9 1q28 0 32 -30l18 -128q6 -32 -30 -40z" />
    <glyph glyph-name="eogonek" unicode="&#x119;" horiz-adv-x="977" 
d="M839 354h-462q10 -41 48 -66.5t91 -25.5q80 0 135 35q13 8 25 8q18 0 34 -21q32 -48 110 -158q10 -13 10 -28q0 -18 -18 -31q-47 -36 -100 -59q-69 -47 -107 -100.5t-38 -104.5q0 -38 31 -59.5t86 -21.5q42 0 112 14q2 1 9 1q27 0 32 -30l18 -128q6 -32 -30 -40
q-73 -17 -157 -17q-141 0 -221.5 69t-80.5 189q0 112 62 191q-172 25 -290.5 159.5t-115.5 305.5q-2 127 63 237.5t177.5 174.5t241.5 62q196 3 324.5 -115t126.5 -294q0 -65 -28 -104t-84 -43h-4zM379 510h231q-8 42 -39.5 67.5t-75.5 25.5q-41 0 -73 -26.5t-43 -66.5z" />
    <glyph glyph-name="Ecaron" unicode="&#x11a;" horiz-adv-x="1277" 
d="M102 61v1337q0 30 16.5 46.5t45.5 16.5h951q29 0 45.5 -17t16.5 -46v-292q0 -29 -16.5 -46t-45.5 -17h-572v-154h416q32 0 50 -17t18 -47v-199q0 -29 -18 -46t-50 -17h-416v-146h567q40 0 63 -22t23 -59v-275q0 -28 -17 -44.5t-45 -16.5h-970q-29 0 -45.5 16.5
t-16.5 44.5zM386 1732q0 11 11 27l49 65q14 17 33 17t38 -12l147 -94l148 94q19 11 37 11q22 0 35 -16l48 -63q8 -14 8 -23q0 -20 -19 -33l-228 -166q-15 -12 -30 -12q-11 0 -29 12l-221 161q-27 17 -27 32z" />
    <glyph glyph-name="ecaron" unicode="&#x11b;" horiz-adv-x="977" 
d="M843 354h-4h-462q10 -41 48 -66.5t91 -25.5q80 0 135 35q13 8 25 8q18 0 34 -21q32 -48 110 -158q10 -13 10 -28q0 -18 -18 -31q-132 -102 -305 -102q-129 -3 -242 61t-179.5 174.5t-63.5 235.5q-2 127 63 237.5t177.5 174.5t241.5 62q196 3 324.5 -115t126.5 -294
q0 -65 -28 -104t-84 -43zM379 510h231q-8 42 -39.5 67.5t-75.5 25.5q-41 0 -73 -26.5t-43 -66.5zM209 1239q0 15 12 32l52 78q14 20 36 20q18 0 40 -14l158 -113l159 113q17 13 39 13q23 0 38 -19l51 -75q9 -14 9 -28q0 -21 -20 -39l-245 -199q-17 -15 -32 -15q-11 0 -31 15
l-237 193q-29 17 -29 38z" />
    <glyph glyph-name="Gcircumflex" unicode="&#x11c;" horiz-adv-x="1375" 
d="M885 416v204q0 26 17.5 43.5t43.5 17.5h318q25 0 42.5 -18t17.5 -43v-475q0 -18 -9.5 -36t-23.5 -26q-80 -48 -219 -83q-135 -34 -254 -34q-212 0 -390 101q-177 102 -280 277q-102 176 -102 385t102 385q104 176 279 276q178 101 390 101q112 0 235 -40q126 -39 198 -97
q25 -20 25 -50q0 -17 -10 -33l-182 -273q-14 -25 -44 -25q-21 0 -39 15q-31 26 -85 45q-51 19 -97 19q-136 2 -235 -94t-96 -229q-3 -133 96 -229t235 -94q21 0 67 10zM563 1708l221 161q18 12 29 12q15 0 30 -12l228 -166q19 -13 19 -33q0 -9 -8 -23l-48 -63
q-13 -16 -35 -16q-18 0 -37 11l-148 94l-147 -94q-19 -12 -38 -12t-33 17l-49 65q-11 16 -11 27q0 14 27 32z" />
    <glyph glyph-name="gcircumflex" unicode="&#x11d;" horiz-adv-x="971" 
d="M971 827v-187q0 -24 -14 -38.5t-36 -12.5l-77 8q41 -55 41 -144q3 -148 -116 -252.5t-295 -101.5q-65 0 -130 20q-15 -4 -24 -14.5t-9 -22.5q0 -10 13 -20t29 -10l212 1q175 0 281.5 -82.5t106.5 -222.5q0 -172 -116 -274.5t-324 -102.5q-110 0 -235 20q-127 20 -196 50
q-28 13 -28 42q0 10 3 19l72 220q8 23 39 23q10 0 18 -2q120 -31 166 -37q56 -9 117 -9q140 0 140 42q0 32 -60 32h-200q-164 0 -249 75.5t-85 214.5q0 135 118 221q-62 100 -62 222q-2 180 112.5 295.5t292.5 113.5q82 0 175 -35h270q22 0 36 -14.5t14 -36.5zM565 507
q0 35 -26 61t-61 26q-36 0 -62 -26t-26 -61t26 -61t62 -26t61.5 25.5t25.5 61.5zM233 1159l237 193q20 15 31 15q15 0 32 -15l245 -199q20 -18 20 -39q0 -14 -9 -28l-51 -75q-15 -19 -38 -19q-22 0 -39 13l-159 113l-158 -113q-22 -14 -40 -14q-22 0 -36 20l-52 78
q-12 17 -12 32q0 13 11 23.5t18 14.5z" />
    <glyph glyph-name="Gbreve" unicode="&#x11e;" horiz-adv-x="1375" 
d="M885 416v204q0 26 17.5 43.5t43.5 17.5h318q25 0 42.5 -18t17.5 -43v-475q0 -18 -9.5 -36t-23.5 -26q-80 -48 -219 -83q-135 -34 -254 -34q-212 0 -390 101q-177 102 -280 277q-102 176 -102 385t102 385q104 176 279 276q178 101 390 101q112 0 235 -40q126 -39 198 -97
q25 -20 25 -50q0 -17 -10 -33l-182 -273q-14 -25 -44 -25q-21 0 -39 15q-31 26 -85 45q-51 19 -97 19q-136 2 -235 -94t-96 -229q-3 -133 96 -229t235 -94q21 0 67 10zM571 1790q0 22 12.5 35t34.5 13h80q26 0 41 -14.5t15 -40.5q0 -23 17.5 -36t48.5 -13q63 0 63 49
q0 26 14 40.5t39 14.5h80q49 0 49 -48q0 -105 -66 -165t-181 -60t-181 60t-66 165z" />
    <glyph glyph-name="gbreve" unicode="&#x11f;" horiz-adv-x="971" 
d="M971 827v-187q0 -24 -14 -38.5t-36 -12.5l-77 8q41 -55 41 -144q3 -148 -116 -252.5t-295 -101.5q-65 0 -130 20q-15 -4 -24 -14.5t-9 -22.5q0 -10 13 -20t29 -10l212 1q175 0 281.5 -82.5t106.5 -222.5q0 -172 -116 -274.5t-324 -102.5q-110 0 -235 20q-127 20 -196 50
q-28 13 -28 42q0 10 3 19l72 220q8 23 39 23q10 0 18 -2q120 -31 166 -37q56 -9 117 -9q140 0 140 42q0 32 -60 32h-200q-164 0 -249 75.5t-85 214.5q0 135 118 221q-62 100 -62 222q-2 180 112.5 295.5t292.5 113.5q82 0 175 -35h270q22 0 36 -14.5t14 -36.5zM565 507
q0 35 -26 61t-61 26q-36 0 -62 -26t-26 -61t26 -61t62 -26t61.5 25.5t25.5 61.5zM208 1287q0 27 15 42t41 15h95q31 0 48.5 -17.5t17.5 -47.5q0 -27 21 -43t58 -16q35 0 54.5 16t19.5 43q0 30 17 47.5t46 17.5h95q28 0 43 -15t15 -42q0 -125 -78 -196t-215 -71
q-135 0 -214 71.5t-79 195.5z" />
    <glyph glyph-name="Gdotaccent" unicode="&#x120;" horiz-adv-x="1375" 
d="M885 416v204q0 26 17.5 43.5t43.5 17.5h318q25 0 42.5 -18t17.5 -43v-475q0 -18 -9.5 -36t-23.5 -26q-80 -48 -219 -83q-135 -34 -254 -34q-212 0 -390 101q-177 102 -280 277q-102 176 -102 385t102 385q104 176 279 276q178 101 390 101q112 0 235 -40q126 -39 198 -97
q25 -20 25 -50q0 -17 -10 -33l-182 -273q-14 -25 -44 -25q-21 0 -39 15q-31 26 -85 45q-51 19 -97 19q-136 2 -235 -94t-96 -229q-3 -133 96 -229t235 -94q21 0 67 10zM657 1761q0 65 47 112t114 47q65 0 112.5 -47t47.5 -112q0 -67 -47 -114t-113 -47q-67 0 -114 47
t-47 114z" />
    <glyph glyph-name="gdotaccent" unicode="&#x121;" horiz-adv-x="971" 
d="M971 827v-187q0 -24 -14 -38.5t-36 -12.5l-77 8q41 -55 41 -144q3 -148 -116 -252.5t-295 -101.5q-65 0 -130 20q-15 -4 -24 -14.5t-9 -22.5q0 -10 13 -20t29 -10l212 1q175 0 281.5 -82.5t106.5 -222.5q0 -172 -116 -274.5t-324 -102.5q-110 0 -235 20q-127 20 -196 50
q-28 13 -28 42q0 10 3 19l72 220q8 23 39 23q10 0 18 -2q120 -31 166 -37q56 -9 117 -9q140 0 140 42q0 32 -60 32h-200q-164 0 -249 75.5t-85 214.5q0 135 118 221q-62 100 -62 222q-2 180 112.5 295.5t292.5 113.5q82 0 175 -35h270q22 0 36 -14.5t14 -36.5zM565 507
q0 35 -26 61t-61 26q-36 0 -62 -26t-26 -61t26 -61t62 -26t61.5 25.5t25.5 61.5zM338 1183q0 65 47 112t114 47q65 0 112.5 -47t47.5 -112q0 -67 -47.5 -114t-112.5 -47q-67 0 -114 47t-47 114z" />
    <glyph glyph-name="uni0122" unicode="&#x122;" horiz-adv-x="1375" 
d="M885 416v204q0 26 17.5 43.5t43.5 17.5h318q25 0 42.5 -18t17.5 -43v-475q0 -18 -9.5 -36t-23.5 -26q-80 -48 -219 -83q-135 -34 -254 -34q-212 0 -390 101q-177 102 -280 277q-102 176 -102 385t102 385q104 176 279 276q178 101 390 101q112 0 235 -40q126 -39 198 -97
q25 -20 25 -50q0 -17 -10 -33l-182 -273q-14 -25 -44 -25q-21 0 -39 15q-31 26 -85 45q-51 19 -97 19q-136 2 -235 -94t-96 -229q-3 -133 96 -229t235 -94q21 0 67 10zM808 -92q79 0 132 -58t53 -137q0 -108 -37 -189.5t-118 -157.5q-14 -13 -29 -13q-14 0 -31 14l-50 43
q-14 12 -14 27t17 35q39 43 51.5 60.5t12.5 31.5q0 20 -28 28q-56 15 -88 56.5t-32 99.5q0 66 47 113t114 47z" />
    <glyph glyph-name="uni0123" unicode="&#x123;" horiz-adv-x="971" 
d="M971 827v-187q0 -24 -14 -38.5t-36 -12.5l-77 8q41 -55 41 -144q3 -148 -116 -252.5t-295 -101.5q-65 0 -130 20q-15 -4 -24 -14.5t-9 -22.5q0 -10 13 -20t29 -10l212 1q175 0 281.5 -82.5t106.5 -222.5q0 -172 -116 -274.5t-324 -102.5q-110 0 -235 20q-127 20 -196 50
q-28 13 -28 42q0 10 3 19l72 220q8 23 39 23q10 0 18 -2q120 -31 166 -37q56 -9 117 -9q140 0 140 42q0 32 -60 32h-200q-164 0 -249 75.5t-85 214.5q0 135 118 221q-62 100 -62 222q-2 180 112.5 295.5t292.5 113.5q82 0 175 -35h270q22 0 36 -14.5t14 -36.5zM565 507
q0 35 -26 61t-61 26q-36 0 -62 -26t-26 -61t26 -61t62 -26t61.5 25.5t25.5 61.5zM500 948q-79 0 -132 58t-53 137q0 108 37 189.5t118 157.5q14 13 29 13q14 0 31 -14l50 -43q14 -12 14 -27t-17 -35q-39 -43 -51.5 -60.5t-12.5 -31.5q0 -20 28 -28q56 -15 88 -56.5t32 -99.5
q0 -66 -47 -113t-114 -47z" />
    <glyph glyph-name="Hcircumflex" unicode="&#x124;" horiz-adv-x="1497" 
d="M1395 1416v-1372q0 -21 -12 -32.5t-32 -11.5h-353q-20 0 -32 12t-12 32v493h-411v-493q0 -20 -12 -32t-32 -12h-353q-20 0 -32 11.5t-12 32.5v1372q0 21 12 32.5t32 11.5h353q20 0 32 -12t12 -32v-495h411v495q0 20 12 32t32 12h353q20 0 32 -11.5t12 -32.5zM488 1680
l221 161q18 12 29 12q15 0 30 -12l228 -166q19 -13 19 -33q0 -9 -8 -23l-48 -63q-13 -16 -35 -16q-18 0 -37 11l-148 94l-147 -94q-19 -12 -38 -12t-33 17l-49 65q-11 16 -11 27q0 14 27 32z" />
    <glyph glyph-name="hcircumflex" unicode="&#x125;" horiz-adv-x="1052" 
d="M990 477v-434q0 -41 -41 -41h-312q-41 0 -41 41v437q0 24 -18 39t-43 15q-31 0 -50.5 -20.5t-19.5 -58.5v-416q0 -39 -39 -39h-316q-39 0 -39 39v1383q0 39 39 39h316q39 0 39 -39v-566q83 54 182 54q175 0 259 -107.5t84 -325.5zM8 1670l221 161q18 12 29 12
q15 0 30 -12l228 -166q19 -13 19 -33q0 -9 -8 -23l-48 -63q-13 -16 -35 -16q-18 0 -37 11l-148 94l-147 -94q-20 -12 -38 -12q-19 0 -33 17l-49 65q-11 16 -11 27q0 14 27 32z" />
    <glyph glyph-name="Hbar" unicode="&#x126;" horiz-adv-x="1497" 
d="M1458 1220v-75q0 -39 -36 -39h-27v-1062q0 -21 -12 -32.5t-32 -11.5h-353q-20 0 -32 12t-12 32v493h-411v-493q0 -20 -12 -32t-32 -12h-353q-20 0 -32 11.5t-12 32.5v1062h-39q-17 0 -28 10.5t-11 28.5v75q0 18 11 28.5t28 10.5h39v157q0 21 12 32.5t32 11.5h353
q20 0 32 -12t12 -32v-157h411v157q0 20 12 32t32 12h353q20 0 32 -11.5t12 -32.5v-157h27q36 0 36 -39zM954 921v185h-411v-185h411z" />
    <glyph glyph-name="hbar" unicode="&#x127;" horiz-adv-x="1052" 
d="M990 477v-434q0 -41 -41 -41h-312q-41 0 -41 41v437q0 24 -18 39t-43 15q-31 0 -50.5 -20.5t-19.5 -58.5v-416q0 -39 -39 -39h-316q-39 0 -39 39v1127h-32q-39 0 -39 39v75q0 39 39 39h32v103q0 39 39 39h316q39 0 39 -39v-103h142q38 0 38 -39v-75q0 -39 -38 -39h-142
v-310q83 54 182 54q175 0 259 -107.5t84 -325.5z" />
    <glyph glyph-name="Itilde" unicode="&#x128;" horiz-adv-x="644" 
d="M542 1417v-1373q0 -44 -44 -44h-352q-44 0 -44 44v1373q0 44 44 44h352q44 0 44 -44zM89 1631q0 19 19 45q58 76 142 76q34 0 106 -44q34 -19 51 -19q21 0 39 27q16 21 32 21q14 0 29 -17l57 -61q11 -11 11 -24q0 -9 -7 -19q-63 -101 -160 -101q-34 0 -101 40
q-31 21 -56 21q-23 0 -49 -35q-8 -11 -18 -11q-15 0 -39 24l-39 42q-17 17 -17 35z" />
    <glyph glyph-name="itilde" unicode="&#x129;" horiz-adv-x="536" 
d="M465 839v-800q0 -39 -39 -39h-316q-39 0 -39 39v800q0 39 39 39h316q39 0 39 -39zM-18 1170q0 21 23 50q67 83 167 83q39 0 125 -48q41 -21 61 -21q24 0 46 30q20 23 37 23q16 0 35 -19l67 -67q13 -13 13 -26q0 -10 -8 -21q-74 -111 -189 -111q-40 0 -120 44
q-37 23 -66 23q-27 0 -57 -39q-8 -11 -22 -11q-18 0 -46 26l-46 46q-20 18 -20 38z" />
    <glyph glyph-name="Imacron" unicode="&#x12a;" horiz-adv-x="644" 
d="M542 1417v-1373q0 -44 -44 -44h-352q-44 0 -44 44v1373q0 44 44 44h352q44 0 44 -44zM106 1584v134q0 14 9 23t23 9h389q30 0 30 -30v-136q0 -14 -9.5 -22t-22.5 -8h-389q-11 0 -20.5 8.5t-9.5 21.5z" />
    <glyph glyph-name="imacron" unicode="&#x12b;" horiz-adv-x="536" 
d="M465 839v-800q0 -39 -39 -39h-316q-39 0 -39 39v800q0 39 39 39h316q39 0 39 -39zM42 1040v134q0 14 9 23t23 9h389q30 0 30 -30v-136q0 -14 -9.5 -22t-22.5 -8h-389q-11 0 -20.5 8.5t-9.5 21.5z" />
    <glyph glyph-name="Ibreve" unicode="&#x12c;" horiz-adv-x="644" 
d="M542 1417v-1373q0 -44 -44 -44h-352q-44 0 -44 44v1373q0 44 44 44h352q44 0 44 -44zM87 1759q0 22 12.5 35t34.5 13h80q26 0 41 -14.5t15 -40.5q0 -23 17.5 -36t48.5 -13q63 0 63 49q0 26 14 40.5t39 14.5h80q49 0 49 -48q0 -105 -66 -165t-181 -60t-181 60t-66 165z
" />
    <glyph glyph-name="ibreve" unicode="&#x12d;" horiz-adv-x="536" 
d="M465 839v-800q0 -39 -39 -39h-316q-39 0 -39 39v800q0 39 39 39h316q39 0 39 -39zM-26 1275q0 27 15 42t41 15h95q31 0 48.5 -17.5t17.5 -47.5q0 -27 21 -43t58 -16q35 0 54.5 16t19.5 43q0 30 17 47.5t46 17.5h95q28 0 43 -15t15 -42q0 -125 -78 -196t-215 -71
q-135 0 -214 71.5t-79 195.5z" />
    <glyph glyph-name="Iogonek" unicode="&#x12e;" horiz-adv-x="644" 
d="M617 -479q-73 -17 -157 -17q-141 0 -221.5 69t-80.5 189q0 72 29 135t80 103h-121q-44 0 -44 44v1373q0 44 44 44h352q44 0 44 -44v-1373q0 -26 -16 -36l5 -1q-81 -49 -126.5 -107.5t-45.5 -114.5q0 -38 31 -59.5t86 -21.5q42 0 112 14q2 1 9 1q28 0 32 -30l18 -128
q6 -32 -30 -40z" />
    <glyph glyph-name="iogonek" unicode="&#x12f;" horiz-adv-x="536" 
d="M42 1254q0 94 66.5 160.5t160.5 66.5q92 0 159 -67.5t67 -159.5t-67 -159t-159 -67q-94 0 -160.5 66.5t-66.5 159.5zM540 -477q-73 -17 -157 -17q-141 0 -221.5 69t-80.5 189q0 72 28 134t78 102h-77q-39 0 -39 39v800q0 39 39 39h316q39 0 39 -39v-800q0 -19 -11 -30
l-1 -1q-3 -3 -8 -4q-77 -49 -120 -106t-43 -111q0 -38 31 -59.5t86 -21.5q42 0 112 14q2 1 9 1q28 0 32 -30l18 -128q6 -32 -30 -40z" />
    <glyph glyph-name="Idot" unicode="&#x130;" horiz-adv-x="644" 
d="M542 1417v-1373q0 -44 -44 -44h-352q-44 0 -44 44v1373q0 44 44 44h352q44 0 44 -44zM173 1730q0 65 47 112t114 47q65 0 112.5 -47t47.5 -112q0 -66 -47 -113.5t-113 -47.5q-67 0 -114 47t-47 114z" />
    <glyph glyph-name="dotlessi" unicode="&#x131;" horiz-adv-x="536" 
d="M465 839v-800q0 -39 -39 -39h-316q-39 0 -39 39v800q0 39 39 39h316q39 0 39 -39z" />
    <glyph glyph-name="IJ" unicode="&#x132;" horiz-adv-x="1447" 
d="M936 553v863q0 21 13.5 33t37.5 12h336q25 0 39 -12t14 -33v-863q3 -272 -174.5 -431t-478.5 -157q-302 -2 -478 161t-174 440q0 33 40 33l355 2q21 0 32.5 -12.5t11.5 -34.5q0 -69 56.5 -108.5t156.5 -39.5q99 0 156 39.5t57 107.5zM511 1417v-681q0 -20 -11.5 -32
t-32.5 -12h-352q-21 0 -32.5 12t-11.5 32v681q0 44 44 44h352q44 0 44 -44z" />
    <glyph glyph-name="ij" unicode="&#x133;" horiz-adv-x="1072" 
d="M42 1254q0 94 66.5 160.5t160.5 66.5q92 0 159 -67.5t67 -159.5t-67 -159t-159 -67q-94 0 -160.5 66.5t-66.5 159.5zM578 1254q0 94 66.5 160.5t160.5 66.5q92 0 159 -67.5t67 -159.5t-67 -159t-159 -67q-94 0 -160.5 66.5t-66.5 159.5zM1001 839v-1007q0 -210 -125 -330
t-343 -120t-343 119t-125 327v21q0 19 11 29.5t30 10.5h312q41 0 41 -41v-16q0 -32 20 -50t54 -18t53.5 19t19.5 53v203h1v800q0 39 39 39h316q39 0 39 -39zM110 878h316q39 0 39 -39v-800q0 -39 -39 -39h-316q-39 0 -39 39v800q0 39 39 39z" />
    <glyph glyph-name="Jcircumflex" unicode="&#x134;" horiz-adv-x="1061" 
d="M533 456v960q0 45 51 45h337q53 0 53 -45v-960q2 -223 -136 -358t-365 -133q-247 0 -391 186q-22 25 -22 50q0 21 17 36l224 204q19 18 41 18q25 0 43 -23q32 -41 88 -41q25 0 42.5 18.5t17.5 42.5zM504 1680l221 161q18 12 29 12q15 0 30 -12l228 -166q19 -13 19 -33
q0 -9 -8 -23l-48 -63q-13 -16 -35 -16q-18 0 -37 11l-148 94l-147 -94q-20 -12 -38 -12q-19 0 -33 17l-49 65q-11 16 -11 27q0 14 27 32z" />
    <glyph glyph-name="jcircumflex" unicode="&#x135;" horiz-adv-x="536" 
d="M465 839v-845q0 -228 -126 -343t-373 -115h-12q-41 0 -41 41v261q0 41 41 41h10q55 0 81 19t26 61v880q0 39 39 39h316q39 0 39 -39zM-1 1147l237 193q20 15 31 15q15 0 32 -15l245 -199q20 -18 20 -39q0 -14 -9 -28l-51 -75q-15 -19 -38 -19q-22 0 -39 13l-159 113
l-158 -113q-22 -14 -40 -14q-22 0 -36 20l-52 78q-12 17 -12 32q0 13 11 23.5t18 14.5z" />
    <glyph glyph-name="uni0136" unicode="&#x136;" horiz-adv-x="1535" 
d="M1527 33q0 -33 -41 -33h-416q-37 0 -59 25l-296 473l-172 -211v-243q0 -21 -12 -32.5t-32 -11.5h-353q-20 0 -32 11.5t-12 32.5v1373q0 21 12 32.5t32 11.5h353q20 0 32 -11.5t12 -32.5v-526l377 528q18 24 37 32.5t53 8.5h404q41 0 41 -36q0 -21 -16 -40l-433 -530
l506 -780q15 -23 15 -41zM780 -58q79 0 132 -58t53 -137q0 -108 -37 -189.5t-118 -157.5q-14 -13 -29 -13q-14 0 -31 14l-50 43q-14 12 -14 27t17 35q39 43 51.5 60.5t12.5 31.5q0 20 -28 28q-56 15 -88 56.5t-32 99.5q0 66 47 113t114 47z" />
    <glyph glyph-name="uni0137" unicode="&#x137;" horiz-adv-x="1068" 
d="M1064 31q0 -14 -9.5 -22.5t-25.5 -8.5h-354q-36 0 -54 39l-118 226l-38 -43v-183q0 -39 -39 -39h-316q-39 0 -39 39v1383q0 39 39 39h316q39 0 39 -39v-782l152 210q14 18 28 23t43 5h338q38 0 38 -29q0 -15 -10 -28l-268 -308l269 -452q9 -17 9 -30zM529 -58
q79 0 132 -58t53 -137q0 -108 -37 -189.5t-118 -157.5q-14 -13 -29 -13q-14 0 -31 14l-50 43q-14 12 -14 27t17 35q39 43 51.5 60.5t12.5 31.5q0 20 -28 28q-56 15 -88 56.5t-32 99.5q0 66 47 113t114 47z" />
    <glyph glyph-name="kgreenlandic" unicode="&#x138;" horiz-adv-x="1074" 
d="M1070 31q0 -14 -9.5 -22.5t-25.5 -8.5h-354q-36 0 -54 39l-118 226l-44 -49v-177q0 -39 -39 -39h-316q-39 0 -39 39v800q0 39 39 39h316q39 0 39 -39v-213l1 7l157 217q14 18 28 23t43 5h338q38 0 38 -29q0 -15 -10 -28l-268 -308l269 -452q9 -17 9 -30z" />
    <glyph glyph-name="Lacute" unicode="&#x139;" horiz-adv-x="1146" 
d="M1086 374v-330q0 -44 -44 -44h-896q-20 0 -32 11.5t-12 32.5v1372q0 21 12 32.5t32 11.5h353q20 0 32 -11.5t12 -32.5v-998h499q21 0 32.5 -12t11.5 -32zM250 1548q-28 0 -41 28l-32 64q-11 24 -11 40q0 26 28 41l277 143q26 14 48 14q30 0 43 -28l50 -93q8 -16 8 -34
q0 -38 -33 -49l-289 -114q-32 -12 -48 -12z" />
    <glyph glyph-name="lacute" unicode="&#x13a;" horiz-adv-x="536" 
d="M465 1422v-1383q0 -39 -39 -39h-316q-39 0 -39 39v1383q0 39 39 39h316q39 0 39 -39zM172 1546q-28 0 -41 28l-32 64q-11 24 -11 40q0 26 28 41l277 143q26 14 48 14q30 0 43 -28l50 -93q8 -16 8 -34q0 -38 -33 -49l-289 -114q-32 -12 -48 -12z" />
    <glyph glyph-name="uni013B" unicode="&#x13b;" horiz-adv-x="1146" 
d="M1086 374v-330q0 -44 -44 -44h-896q-20 0 -32 11.5t-12 32.5v1372q0 21 12 32.5t32 11.5h353q20 0 32 -11.5t12 -32.5v-998h499q21 0 32.5 -12t11.5 -32zM585 -58q79 0 132 -58t53 -137q0 -108 -37 -189.5t-118 -157.5q-14 -13 -29 -13q-14 0 -31 14l-50 43
q-14 12 -14 27t17 35q39 43 51.5 60.5t12.5 31.5q0 20 -28 28q-56 15 -88 56.5t-32 99.5q0 66 47 113t114 47z" />
    <glyph glyph-name="uni013C" unicode="&#x13c;" horiz-adv-x="536" 
d="M465 1422v-1383q0 -39 -39 -39h-316q-39 0 -39 39v1383q0 39 39 39h316q39 0 39 -39zM248 -58q79 0 132 -58t53 -137q0 -108 -37 -189.5t-118 -157.5q-14 -13 -29 -13q-14 0 -31 14l-50 43q-14 12 -14 27t17 35q39 43 51.5 60.5t12.5 31.5q0 20 -28 28q-56 15 -88 56.5
t-32 99.5q0 66 47 113t114 47z" />
    <glyph glyph-name="Lcaron" unicode="&#x13d;" horiz-adv-x="1146" 
d="M1086 374v-330q0 -44 -44 -44h-896q-20 0 -32 11.5t-12 32.5v1372q0 21 12 32.5t32 11.5h353q20 0 32 -11.5t12 -32.5v-998h499q21 0 32.5 -12t11.5 -32zM862 1025h-52q-28 0 -46 14.5t-18 37.5l1 313q0 33 15 53.5t40 20.5h95q33 0 49.5 -20.5t13.5 -53.5l-29 -315
q-2 -22 -21.5 -36t-47.5 -14z" />
    <glyph glyph-name="lcaron" unicode="&#x13e;" horiz-adv-x="536" 
d="M465 1422v-1383q0 -39 -39 -39h-316q-39 0 -39 39v1383q0 39 39 39h316q39 0 39 -39zM620 1161h-52q-28 0 -46 14.5t-18 37.5l1 313q0 33 15 53.5t40 20.5h95q33 0 49.5 -20.5t13.5 -53.5l-29 -315q-2 -22 -21.5 -36t-47.5 -14z" />
    <glyph glyph-name="Ldot" unicode="&#x13f;" horiz-adv-x="1146" 
d="M1086 374v-330q0 -44 -44 -44h-896q-20 0 -32 11.5t-12 32.5v1372q0 21 12 32.5t32 11.5h353q20 0 32 -11.5t12 -32.5v-998h499q21 0 32.5 -12t11.5 -32zM589 900q0 92 65.5 157t157.5 65q89 2 156 -65.5t65 -156.5q0 -91 -65.5 -156.5t-155.5 -65.5q-92 0 -157.5 65.5
t-65.5 156.5z" />
    <glyph glyph-name="ldot" unicode="&#x140;" horiz-adv-x="855" 
d="M465 1422v-1383q0 -39 -39 -39h-316q-39 0 -39 39v1383q0 39 39 39h316q39 0 39 -39zM501 714q0 80 56.5 136.5t136.5 56.5q79 0 135.5 -57t56.5 -136t-56.5 -135.5t-135.5 -56.5t-136 56.5t-57 135.5z" />
    <glyph glyph-name="Lslash" unicode="&#x141;" horiz-adv-x="1146" 
d="M1086 374v-330q0 -44 -44 -44h-896q-20 0 -32 11.5t-12 32.5v705q-32 -5 -40 30l-18 72q0 3 -0.5 6t-1 4.5t-0.5 2.5q0 28 30 35l30 7v510q0 21 12 32.5t32 11.5h353q20 0 32 -11.5t12 -32.5v-399l14 3q3 1 11 1q28 0 36 -30l18 -73q0 -3 0.5 -6t1 -4.5t0.5 -2.5
q0 -27 -30 -34l-51 -13v-440h499q21 0 32.5 -12t11.5 -32z" />
    <glyph glyph-name="lslash" unicode="&#x142;" horiz-adv-x="536" 
d="M570 721q0 -27 -30 -34l-75 -19v-629q0 -39 -39 -39h-316q-39 0 -39 39v531l-16 -4q-10 -2 -12 -2q-27 0 -35 31l-18 72q0 3 -0.5 6t-1 4.5t-0.5 2.5q0 28 30 35l53 13v694q0 39 39 39h316q39 0 39 -39v-595l38 9q3 1 11 1q28 0 36 -30l18 -73q0 -3 0.5 -6t1 -4.5
t0.5 -2.5z" />
    <glyph glyph-name="Nacute" unicode="&#x143;" horiz-adv-x="1552" 
d="M1450 1416v-1372q0 -21 -12 -32.5t-32 -11.5h-336q-57 0 -89 53l-438 702v-711q0 -21 -12 -32.5t-32 -11.5h-353q-20 0 -32 11.5t-12 32.5v1372q0 21 12 32.5t32 11.5h365q51 0 87 -54l412 -645v655q0 44 44 44h352q21 0 32.5 -12t11.5 -32zM701 1548q-28 0 -41 28
l-32 64q-11 24 -11 40q0 26 28 41l277 143q26 14 48 14q30 0 43 -28l50 -93q8 -16 8 -34q0 -38 -33 -49l-289 -114q-31 -12 -48 -12z" />
    <glyph glyph-name="nacute" unicode="&#x144;" horiz-adv-x="1053" 
d="M991 477v-434q0 -41 -41 -41h-312q-41 0 -41 41v437q0 24 -18 39t-43 15q-31 0 -50.5 -20.5t-19.5 -58.5v-412q0 -41 -41 -41h-313q-41 0 -41 41v794q0 19 11.5 30.5t30.5 11.5h182q27 0 44 -25l45 -70q108 126 264 126q175 0 259 -107.5t84 -325.5zM482 990
q-22 0 -37 21l-42 58q-19 28 -19 46q0 21 21 37l248 189q31 23 54 23q21 0 38 -21l66 -83q15 -20 15 -42q0 -30 -25 -44l-265 -163q-32 -21 -54 -21z" />
    <glyph glyph-name="uni0145" unicode="&#x145;" horiz-adv-x="1552" 
d="M1450 1416v-1372q0 -21 -12 -32.5t-32 -11.5h-336q-57 0 -89 53l-438 702v-711q0 -21 -12 -32.5t-32 -11.5h-353q-20 0 -32 11.5t-12 32.5v1372q0 21 12 32.5t32 11.5h365q51 0 87 -54l412 -645v655q0 44 44 44h352q21 0 32.5 -12t11.5 -32zM782 -58q79 0 132 -58
t53 -137q0 -108 -37 -189.5t-118 -157.5q-14 -13 -29 -13q-14 0 -31 14l-50 43q-14 12 -14 27t17 35q39 43 51.5 60.5t12.5 31.5q0 20 -28 28q-56 15 -88 56.5t-32 99.5q0 66 47 113t114 47z" />
    <glyph glyph-name="uni0146" unicode="&#x146;" horiz-adv-x="1053" 
d="M991 477v-434q0 -41 -41 -41h-312q-41 0 -41 41v437q0 24 -18 39t-43 15q-31 0 -50.5 -20.5t-19.5 -58.5v-412q0 -41 -41 -41h-313q-41 0 -41 41v794q0 19 11.5 30.5t30.5 11.5h182q27 0 44 -25l45 -70q108 126 264 126q175 0 259 -107.5t84 -325.5zM520 -57
q79 0 132 -58t53 -137q0 -108 -37 -189.5t-118 -157.5q-14 -13 -29 -13q-14 0 -31 14l-50 43q-14 12 -14 27t17 35q39 43 51.5 60.5t12.5 31.5q0 20 -28 28q-56 15 -88 56.5t-32 99.5q0 66 47 113t114 47z" />
    <glyph glyph-name="Ncaron" unicode="&#x147;" horiz-adv-x="1552" 
d="M1450 1416v-1372q0 -21 -12 -32.5t-32 -11.5h-336q-57 0 -89 53l-438 702v-711q0 -21 -12 -32.5t-32 -11.5h-353q-20 0 -32 11.5t-12 32.5v1372q0 21 12 32.5t32 11.5h365q51 0 87 -54l412 -645v655q0 44 44 44h352q21 0 32.5 -12t11.5 -32zM511 1734q0 11 11 27l49 65
q14 17 33 17q18 0 38 -12l147 -94l148 94q19 11 37 11q22 0 35 -16l48 -63q8 -14 8 -23q0 -20 -19 -33l-228 -166q-15 -12 -30 -12q-11 0 -29 12l-221 161q-27 17 -27 32z" />
    <glyph glyph-name="ncaron" unicode="&#x148;" horiz-adv-x="1053" 
d="M991 477v-434q0 -41 -41 -41h-312q-41 0 -41 41v437q0 24 -18 39t-43 15q-31 0 -50.5 -20.5t-19.5 -58.5v-412q0 -41 -41 -41h-313q-41 0 -41 41v794q0 19 11.5 30.5t30.5 11.5h182q27 0 44 -25l45 -70q108 126 264 126q175 0 259 -107.5t84 -325.5zM210 1224q0 16 12 32
l52 78q14 20 36 20q18 0 40 -14l158 -113l159 113q17 13 39 13q23 0 38 -19l51 -75q9 -13 9 -28q0 -21 -20 -39l-245 -199q-17 -15 -32 -15q-11 0 -31 15l-237 193q-29 17 -29 38z" />
    <glyph glyph-name="napostrophe" unicode="&#x149;" horiz-adv-x="1053" 
d="M991 477v-434q0 -41 -41 -41h-312q-41 0 -41 41v437q0 24 -18 39t-43 15q-31 0 -50.5 -20.5t-19.5 -58.5v-412q0 -41 -41 -41h-313q-41 0 -41 41v794q0 19 11.5 30.5t30.5 11.5h182q27 0 44 -25l45 -70q108 126 264 126q175 0 259 -107.5t84 -325.5zM130 1443
q71 0 119 -52.5t48 -123.5q0 -97 -33.5 -170t-106.5 -142q-14 -11 -26 -11q-14 0 -28 12l-45 39q-12 11 -12 24q0 15 15 32q36 39 47 54.5t11 27.5q0 18 -25 26q-51 13 -79.5 50t-28.5 90q0 59 42 101.5t102 42.5z" />
    <glyph glyph-name="Eng" unicode="&#x14a;" horiz-adv-x="1552" 
d="M1450 1416v-1372v-8q-17 -447 -517 -447h-12q-43 0 -43 43v270q0 43 43 43h10q96 0 109 60q-35 11 -59 48l-438 702v-711q0 -21 -12 -32.5t-32 -11.5h-353q-20 0 -32 11.5t-12 32.5v1372q0 21 12 32.5t32 11.5h365q51 0 87 -54l412 -645v655q0 44 44 44h352
q21 0 32.5 -12t11.5 -32z" />
    <glyph glyph-name="eng" unicode="&#x14b;" horiz-adv-x="1053" 
d="M991 477v-479q0 -228 -126 -343t-373 -115h-12q-41 0 -41 41v261q0 41 41 41h10q55 0 81 19t26 61v517q0 24 -18 39t-43 15q-31 0 -50.5 -20.5t-19.5 -58.5v-412q0 -41 -41 -41h-313q-41 0 -41 41v794q0 19 11.5 30.5t30.5 11.5h182q27 0 44 -25l45 -70q108 126 264 126
q175 0 259 -107.5t84 -325.5z" />
    <glyph glyph-name="Omacron" unicode="&#x14c;" horiz-adv-x="1618" 
d="M809 1491q209 0 385 -102q176 -101 276 -276q102 -174 102 -385q0 -210 -102 -385q-100 -174 -276 -276q-175 -101 -385 -101t-386 101q-174 102 -276 276q-101 176 -101 385q0 210 101 385q102 176 277 276q175 102 385 102zM809 407q133 -2 229 94t94 227
q2 133 -94 229t-229 94q-133 2 -229 -94t-94 -229q-2 -131 94 -227t229 -94zM582 1615v134q0 14 9 23t23 9h389q30 0 30 -30v-136q0 -14 -9.5 -22t-22.5 -8h-389q-11 0 -20.5 8.5t-9.5 21.5z" />
    <glyph glyph-name="omacron" unicode="&#x14d;" horiz-adv-x="1011" 
d="M507 910q127 2 240 -63t179 -175.5t63 -235.5q3 -124 -63.5 -234.5t-179 -174.5t-239.5 -62q-129 -3 -242 61t-179.5 174.5t-63.5 235.5q0 128 65 238q64 108 176 172t244 64zM505 337q42 0 71 29.5t29 71.5q0 43 -29 72t-71 29t-71.5 -29t-29.5 -72q0 -42 29.5 -71.5
t71.5 -29.5zM281 1052v134q0 14 9 23t23 9h389q30 0 30 -30v-136q0 -14 -9.5 -22t-22.5 -8h-389q-11 0 -20.5 8.5t-9.5 21.5z" />
    <glyph glyph-name="Obreve" unicode="&#x14e;" horiz-adv-x="1618" 
d="M809 1491q209 0 385 -102q176 -101 276 -276q102 -174 102 -385q0 -210 -102 -385q-100 -174 -276 -276q-175 -101 -385 -101t-386 101q-174 102 -276 276q-101 176 -101 385q0 210 101 385q102 176 277 276q175 102 385 102zM809 407q133 -2 229 94t94 227
q2 133 -94 229t-229 94q-133 2 -229 -94t-94 -229q-2 -131 94 -227t229 -94zM563 1790q0 22 12.5 35t34.5 13h80q26 0 41 -14.5t15 -40.5q0 -23 17.5 -36t48.5 -13q63 0 63 49q0 26 14 40.5t39 14.5h80q49 0 49 -48q0 -105 -66 -165t-181 -60t-181 60t-66 165z" />
    <glyph glyph-name="obreve" unicode="&#x14f;" horiz-adv-x="1011" 
d="M507 910q127 2 240 -63t179 -175.5t63 -235.5q3 -124 -63.5 -234.5t-179 -174.5t-239.5 -62q-129 -3 -242 61t-179.5 174.5t-63.5 235.5q0 128 65 238q64 108 176 172t244 64zM505 337q42 0 71 29.5t29 71.5q0 43 -29 72t-71 29t-71.5 -29t-29.5 -72q0 -42 29.5 -71.5
t71.5 -29.5zM213 1287q0 27 15 42t41 15h95q31 0 48.5 -17.5t17.5 -47.5q0 -27 21 -43t58 -16q35 0 54.5 16t19.5 43q0 30 17 47.5t46 17.5h95q28 0 43 -15t15 -42q0 -125 -78 -196t-215 -71q-135 0 -214 71.5t-79 195.5z" />
    <glyph glyph-name="Ohungarumlaut" unicode="&#x150;" horiz-adv-x="1618" 
d="M809 1491q209 0 385 -102q176 -101 276 -276q102 -174 102 -385q0 -210 -102 -385q-100 -174 -276 -276q-175 -101 -385 -101t-386 101q-174 102 -276 276q-101 176 -101 385q0 210 101 385q102 176 277 276q175 102 385 102zM809 407q133 -2 229 94t94 227
q2 133 -94 229t-229 94q-133 2 -229 -94t-94 -229q-2 -131 94 -227t229 -94zM584 1565q-22 0 -37 21l-42 58q-19 28 -19 46q0 20 21 37l248 189q31 23 54 23q21 0 38 -21l66 -83q15 -19 15 -42q0 -30 -25 -44l-265 -163q-32 -21 -54 -21zM992 1561q-22 0 -37 21l-42 58
q-19 28 -19 46q0 20 21 37l248 189q31 23 54 23q21 0 38 -21l66 -83q15 -19 15 -42q0 -30 -25 -44l-265 -163q-32 -21 -54 -21z" />
    <glyph glyph-name="ohungarumlaut" unicode="&#x151;" horiz-adv-x="1011" 
d="M507 910q127 2 240 -63t179 -175.5t63 -235.5q3 -124 -63.5 -234.5t-179 -174.5t-239.5 -62q-129 -3 -242 61t-179.5 174.5t-63.5 235.5q0 128 65 238q64 108 176 172t244 64zM505 337q42 0 71 29.5t29 71.5q0 43 -29 72t-71 29t-71.5 -29t-29.5 -72q0 -42 29.5 -71.5
t71.5 -29.5zM362 1023h-79q-21 0 -34 11.5t-13 29.5q0 12 6 25l130 276q13 29 30.5 41t47.5 12h115q19 0 32.5 -14t13.5 -33q0 -13 -8 -27l-163 -270q-19 -31 -33.5 -41t-44.5 -10zM730 1023h-78q-21 0 -34 11.5t-13 29.5q0 12 6 25l130 276q13 29 30.5 41t46.5 12h115
q19 0 33 -14t14 -33q0 -13 -8 -27l-163 -271q-20 -36 -32.5 -43t-46.5 -7z" />
    <glyph glyph-name="OE" unicode="&#x152;" horiz-adv-x="2309" 
d="M2228 336v-275q0 -28 -17 -44.5t-45 -16.5h-970q-47 0 -58 38q-154 -72 -329 -72q-210 0 -386 101q-174 102 -276 276q-101 176 -101 385q0 210 101 385q102 176 277 276q175 102 385 102q171 0 328 -71q11 41 59 41h951q29 0 45.5 -17t16.5 -46v-292q0 -29 -16.5 -46
t-45.5 -17h-572v-154h416q32 0 50 -17t18 -47v-199q0 -29 -18 -46t-50 -17h-416v-146h567q40 0 63 -22t23 -59zM1132 728q2 133 -94 229t-229 94q-133 2 -229 -94t-94 -229q-2 -131 94 -227t229 -94q133 -2 229 94t94 227z" />
    <glyph glyph-name="oe" unicode="&#x153;" horiz-adv-x="1569" 
d="M1435 354h-4h-449l-5 -22q16 -32 51 -51t80 -19q80 0 135 35q13 8 25 8q18 0 34 -21q32 -48 110 -158q10 -13 10 -28q0 -18 -18 -31q-132 -102 -305 -102q-166 0 -298 99q-132 -99 -294 -99q-129 -3 -242 61t-179.5 174.5t-63.5 235.5q0 128 65 238q64 108 176 172
t244 64q164 0 293 -98q129 98 296 98q196 3 324.5 -115t126.5 -294q0 -65 -28 -104t-84 -43zM979 532q3 -13 4 -22h219q-8 42 -39.5 67.5t-75.5 25.5q-35 0 -64 -19t-44 -52zM605 438q0 43 -29 72t-71 29t-71.5 -29t-29.5 -72q0 -42 29.5 -71.5t71.5 -29.5t71 29.5t29 71.5z
" />
    <glyph glyph-name="Racute" unicode="&#x154;" horiz-adv-x="1321" 
d="M1287 45q0 -19 -13 -32t-33 -13h-359q-26 0 -40 10t-31 42l-199 386h-69v-377q0 -28 -17.5 -44.5t-47.5 -16.5h-315q-61 0 -61 61v1338q0 27 17 44.5t44 17.5h82h235h221q156 2 279 -61.5t192 -183t67 -273.5q0 -128 -55.5 -234.5t-155.5 -175.5l253 -463q6 -12 6 -25z
M671 1075h-128v-280h128q54 0 91 45t37 105q0 58 -36 94t-92 36zM488 1547q-28 0 -41 28l-32 64q-11 24 -11 40q0 26 28 41l277 143q26 14 48 14q30 0 43 -28l50 -93q8 -16 8 -34q0 -38 -33 -49l-289 -114q-32 -12 -48 -12z" />
    <glyph glyph-name="racute" unicode="&#x155;" horiz-adv-x="876" 
d="M877 792q0 -17 -10 -30l-141 -222q-10 -18 -34 -18q-11 0 -15 4l-4 4q-36 36 -98 36q-47 0 -78 -31t-31 -77v-415q0 -41 -41 -41h-313q-41 0 -41 41v794q0 19 11.5 30.5t30.5 11.5h182q27 0 44 -25l52 -80q51 63 117 99.5t130 36.5q73 0 133.5 -24t95.5 -69q10 -9 10 -25
zM446 990q-22 0 -37 21l-42 58q-19 28 -19 46q0 21 21 37l248 189q31 23 54 23q21 0 38 -21l66 -83q15 -20 15 -42q0 -30 -25 -44l-265 -163q-32 -21 -54 -21z" />
    <glyph glyph-name="uni0156" unicode="&#x156;" horiz-adv-x="1321" 
d="M1287 45q0 -19 -13 -32t-33 -13h-359q-26 0 -40 10t-31 42l-199 386h-69v-377q0 -28 -17.5 -44.5t-47.5 -16.5h-315q-61 0 -61 61v1338q0 27 17 44.5t44 17.5h82h235h221q156 2 279 -61.5t192 -183t67 -273.5q0 -128 -55.5 -234.5t-155.5 -175.5l253 -463q6 -12 6 -25z
M671 1075h-128v-280h128q54 0 91 45t37 105q0 58 -36 94t-92 36zM693 -59q79 0 132 -58t53 -137q0 -108 -37 -189.5t-118 -157.5q-14 -13 -29 -13q-14 0 -31 14l-50 43q-14 12 -14 27t17 35q39 43 51.5 60.5t12.5 31.5q0 20 -28 28q-56 15 -88 56.5t-32 99.5q0 66 47 113
t114 47z" />
    <glyph glyph-name="uni0157" unicode="&#x157;" horiz-adv-x="876" 
d="M877 792q0 -17 -10 -30l-141 -222q-10 -18 -34 -18q-11 0 -15 4l-4 4q-36 36 -98 36q-47 0 -78 -31t-31 -77v-415q0 -41 -41 -41h-313q-41 0 -41 41v794q0 19 11.5 30.5t30.5 11.5h182q27 0 44 -25l52 -80q51 63 117 99.5t130 36.5q73 0 133.5 -24t95.5 -69q10 -9 10 -25
zM261 -58q79 0 132 -58t53 -137q0 -108 -37 -189.5t-118 -157.5q-14 -13 -29 -13q-14 0 -31 14l-50 43q-14 12 -14 27t17 35q39 43 51.5 60.5t12.5 31.5q0 20 -28 28q-56 15 -88 56.5t-32 99.5q0 66 47 113t114 47z" />
    <glyph glyph-name="Rcaron" unicode="&#x158;" horiz-adv-x="1321" 
d="M1287 45q0 -19 -13 -32t-33 -13h-359q-26 0 -40 10t-31 42l-199 386h-69v-377q0 -28 -17.5 -44.5t-47.5 -16.5h-315q-61 0 -61 61v1338q0 27 17 44.5t44 17.5h82h235h221q156 2 279 -61.5t192 -183t67 -273.5q0 -128 -55.5 -234.5t-155.5 -175.5l253 -463q6 -12 6 -25z
M671 1075h-128v-280h128q54 0 91 45t37 105q0 58 -36 94t-92 36zM298 1733q0 11 11 27l49 65q14 17 33 17t38 -12l147 -94l148 94q19 11 37 11q22 0 35 -16l48 -63q8 -14 8 -23q0 -20 -19 -33l-228 -166q-15 -12 -30 -12q-11 0 -29 12l-221 161q-27 17 -27 32z" />
    <glyph glyph-name="rcaron" unicode="&#x159;" horiz-adv-x="876" 
d="M877 792q0 -17 -10 -30l-141 -222q-10 -18 -34 -18q-11 0 -15 4l-4 4q-36 36 -98 36q-47 0 -78 -31t-31 -77v-415q0 -41 -41 -41h-313q-41 0 -41 41v794q0 19 11.5 30.5t30.5 11.5h182q27 0 44 -25l52 -80q51 63 117 99.5t130 36.5q73 0 133.5 -24t95.5 -69q10 -9 10 -25
zM174 1224q0 16 12 32l52 78q14 20 36 20q18 0 40 -14l158 -113l159 113q17 13 39 13q23 0 38 -19l51 -75q9 -13 9 -28q0 -21 -20 -39l-245 -199q-17 -15 -32 -15q-11 0 -31 15l-237 193q-29 17 -29 38z" />
    <glyph glyph-name="Sacute" unicode="&#x15a;" horiz-adv-x="1261" 
d="M63 140q0 20 12 43l131 270q17 33 54 33q14 0 34 -7q119 -42 204 -59q88 -18 192 -18q34 0 54.5 15t20.5 38q-2 15 -7 24.5t-16 19t-38 20t-61 22t-95 29.5q-128 39 -208.5 77.5t-134.5 91.5t-76.5 119t-24.5 162q0 150 81 256t209 159q128 54 266 54q140 0 271 -48
q129 -46 209 -94q39 -25 39 -55q0 -16 -14 -46l-131 -277q-13 -28 -43 -28q-23 0 -59 17q-96 47 -168.5 69t-153.5 22q-34 0 -54 -15t-20 -38q0 -51 239 -122q150 -43 241 -87q92 -44 148 -125q58 -82 58 -219q2 -141 -71.5 -252.5t-200.5 -170.5t-282 -58q-146 0 -312 36
q-163 34 -266 97q-27 17 -27 45zM557 1574q-28 0 -41 28l-32 64q-11 24 -11 40q0 26 28 41l277 143q26 14 48 14q30 0 43 -28l50 -93q8 -16 8 -34q0 -38 -33 -49l-289 -114q-31 -12 -48 -12z" />
    <glyph glyph-name="sacute" unicode="&#x15b;" horiz-adv-x="874" 
d="M427 570q0 -23 62 -41q137 -36 205 -65q78 -32 117.5 -83.5t39.5 -131.5q0 -130 -113.5 -206.5t-310.5 -76.5q-114 0 -222 28q-109 29 -171 76q-25 18 -25 43q0 19 13 38l118 183q13 19 42 19q24 0 51 -12q129 -57 195 -57q34 0 34 22q0 15 -19 27t-69 26
q-104 29 -172 59q-137 64 -137 218q0 122 101 201t285 79q90 0 186 -26t158 -70q42 -30 42 -52q0 -17 -18 -44l-96 -145q-17 -27 -52 -27q-19 0 -40 8q-94 39 -169 39q-35 0 -35 -29zM403 1003q-22 0 -37 21l-42 58q-19 28 -19 46q0 20 21 37l248 189q31 23 54 23
q22 0 38 -21l66 -83q15 -19 15 -42q0 -30 -25 -44l-265 -163q-31 -21 -54 -21z" />
    <glyph glyph-name="Scircumflex" unicode="&#x15c;" horiz-adv-x="1261" 
d="M63 140q0 20 12 43l131 270q17 33 54 33q14 0 34 -7q119 -42 204 -59q88 -18 192 -18q34 0 54.5 15t20.5 38q-2 15 -7 24.5t-16 19t-38 20t-61 22t-95 29.5q-128 39 -208.5 77.5t-134.5 91.5t-76.5 119t-24.5 162q0 150 81 256t209 159q128 54 266 54q140 0 271 -48
q129 -46 209 -94q39 -25 39 -55q0 -16 -14 -46l-131 -277q-13 -28 -43 -28q-23 0 -59 17q-96 47 -168.5 69t-153.5 22q-34 0 -54 -15t-20 -38q0 -51 239 -122q150 -43 241 -87q92 -44 148 -125q58 -82 58 -219q2 -141 -71.5 -252.5t-200.5 -170.5t-282 -58q-146 0 -312 36
q-163 34 -266 97q-27 17 -27 45zM394 1706l221 161q18 12 29 12q15 0 30 -12l228 -166q19 -13 19 -33q0 -9 -8 -23l-48 -63q-13 -16 -35 -16q-18 0 -37 11l-148 94l-147 -94q-19 -12 -38 -12t-33 17l-49 65q-11 16 -11 27q0 14 27 32z" />
    <glyph glyph-name="scircumflex" unicode="&#x15d;" horiz-adv-x="874" 
d="M427 570q0 -23 62 -41q137 -36 205 -65q78 -32 117.5 -83.5t39.5 -131.5q0 -130 -113.5 -206.5t-310.5 -76.5q-114 0 -222 28q-109 29 -171 76q-25 18 -25 43q0 19 13 38l118 183q13 19 42 19q24 0 51 -12q129 -57 195 -57q34 0 34 22q0 15 -19 27t-69 26
q-104 29 -172 59q-137 64 -137 218q0 122 101 201t285 79q90 0 186 -26t158 -70q42 -30 42 -52q0 -17 -18 -44l-96 -145q-17 -27 -52 -27q-19 0 -40 8q-94 39 -169 39q-35 0 -35 -29zM160 1160l237 193q20 15 31 15q16 0 32 -15l245 -199q20 -18 20 -39q0 -15 -9 -28
l-51 -75q-15 -19 -38 -19q-22 0 -39 13l-159 113l-158 -113q-22 -14 -40 -14q-22 0 -36 20l-52 78q-12 16 -12 32q0 13 10.5 23.5t18.5 14.5z" />
    <glyph glyph-name="Scedilla" unicode="&#x15e;" horiz-adv-x="1261" 
d="M740 -35l-9 -73q44 0 68 -30.5t24 -86.5q0 -2 -2 -34l-6 -52q-12 -99 -78.5 -155.5t-170.5 -56.5h-114q-18 0 -16 25l19 151q1 18 21 18h114q26 0 28 19l6 51l1 5q0 16 -22 16h-65q-18 0 -16 17l23 189q-129 12 -252 45q-125 34 -203 82q-27 17 -27 45q0 20 12 43
l131 270q17 33 54 33q14 0 34 -7q119 -42 204 -59q88 -18 192 -18q34 0 54.5 15t20.5 38q-2 15 -7 24.5t-16 19t-38 20t-61 22t-95 29.5q-128 39 -208.5 77.5t-134.5 91.5t-76.5 119t-24.5 162q0 150 81 256t209 159q128 54 266 54q140 0 271 -48q129 -46 209 -94
q39 -25 39 -55q0 -16 -14 -46l-131 -277q-13 -28 -43 -28q-23 0 -59 17q-96 47 -168.5 69t-153.5 22q-34 0 -54 -15t-20 -38q0 -51 239 -122q150 -43 241 -87q92 -44 148 -125q58 -82 58 -219q3 -196 -134 -327.5t-348 -150.5z" />
    <glyph glyph-name="scedilla" unicode="&#x15f;" horiz-adv-x="874" 
d="M527 -28l-12 -92q44 0 68 -30.5t24 -86.5q0 -2 -2 -34l-6 -52q-12 -99 -78.5 -155.5t-170.5 -56.5h-114q-18 0 -16 25l19 151q1 18 21 18h114q26 0 28 19l6 51l1 5q0 16 -22 16h-65q-18 0 -16 17l25 204q-193 21 -297 99q-25 18 -25 43q0 19 13 38l118 183q13 19 42 19
q24 0 51 -12q129 -57 195 -57q34 0 34 22q0 15 -19 27t-69 26q-104 29 -172 59q-137 64 -137 218q0 122 101 201t285 79q90 0 186 -26t158 -70q42 -30 42 -52q0 -17 -18 -44l-96 -145q-17 -27 -52 -27q-19 0 -40 8q-94 39 -169 39q-35 0 -35 -29q0 -23 62 -41
q137 -36 205 -65q78 -32 117.5 -83.5t39.5 -131.5q0 -113 -85.5 -186t-238.5 -91z" />
    <glyph glyph-name="Scaron" unicode="&#x160;" horiz-adv-x="1261" 
d="M63 140q0 20 12 43l131 270q17 33 54 33q14 0 34 -7q119 -42 204 -59q88 -18 192 -18q34 0 54.5 15t20.5 38q-2 15 -7 24.5t-16 19t-38 20t-61 22t-95 29.5q-128 39 -208.5 77.5t-134.5 91.5t-76.5 119t-24.5 162q0 150 81 256t209 159q128 54 266 54q140 0 271 -48
q129 -46 209 -94q39 -25 39 -55q0 -16 -14 -46l-131 -277q-13 -28 -43 -28q-23 0 -59 17q-96 47 -168.5 69t-153.5 22q-34 0 -54 -15t-20 -38q0 -51 239 -122q150 -43 241 -87q92 -44 148 -125q58 -82 58 -219q2 -141 -71.5 -252.5t-200.5 -170.5t-282 -58q-146 0 -312 36
q-163 34 -266 97q-27 17 -27 45zM367 1760q0 11 11 27l49 65q14 17 33 17q18 0 38 -12l147 -94l148 94q19 11 37 11q22 0 35 -16l48 -63q8 -14 8 -23q0 -20 -19 -33l-228 -166q-15 -12 -30 -12q-11 0 -29 12l-221 161q-27 17 -27 32z" />
    <glyph glyph-name="scaron" unicode="&#x161;" horiz-adv-x="874" 
d="M427 570q0 -23 62 -41q137 -36 205 -65q78 -32 117.5 -83.5t39.5 -131.5q0 -130 -113.5 -206.5t-310.5 -76.5q-114 0 -222 28q-109 29 -171 76q-25 18 -25 43q0 19 13 38l118 183q13 19 42 19q24 0 51 -12q129 -57 195 -57q34 0 34 22q0 15 -19 27t-69 26
q-104 29 -172 59q-137 64 -137 218q0 122 101 201t285 79q90 0 186 -26t158 -70q42 -30 42 -52q0 -17 -18 -44l-96 -145q-17 -27 -52 -27q-19 0 -40 8q-94 39 -169 39q-35 0 -35 -29zM131 1237q0 15 12 32l52 78q14 20 36 20q18 0 40 -14l158 -113l159 113q17 13 39 13
q23 0 38 -19l51 -75q9 -14 9 -28q0 -21 -20 -39l-245 -199q-16 -15 -32 -15q-11 0 -31 15l-237 193q-29 17 -29 38z" />
    <glyph glyph-name="uni0162" unicode="&#x162;" horiz-adv-x="1205" 
d="M1158 1398v-293q0 -29 -16.5 -46t-44.5 -17h-276v-996q0 -61 -62 -61h-56l-12 -91q44 0 68 -30.5t24 -86.5q0 -2 -2 -34l-6 -52q-12 -99 -78.5 -155.5t-170.5 -56.5h-114q-18 0 -16 25l19 151q1 18 21 18h114q26 0 28 19l6 51l1 5q0 16 -22 16h-65q-18 0 -16 17l25 204
h-64q-29 0 -45.5 16t-16.5 45v996h-272q-29 0 -45.5 16.5t-16.5 46.5v293q0 30 16.5 46.5t45.5 16.5h988q28 0 44.5 -17t16.5 -46z" />
    <glyph glyph-name="uni0163" unicode="&#x163;" horiz-adv-x="724" 
d="M703 839v-256q0 -39 -38 -39h-139v-505q0 -39 -39 -39h-64l-12 -91q44 0 68 -30.5t24 -86.5q0 -2 -2 -34l-6 -52q-12 -99 -78.5 -155.5t-170.5 -56.5h-114q-18 0 -16 25l19 151q1 18 21 18h114q26 0 28 19l6 51l1 5q0 16 -22 16h-65q-18 0 -16 17l25 204h-56
q-39 0 -39 39v505h-80q-39 0 -39 39v256q0 18 10.5 28.5t28.5 10.5h79v153q0 35 33 47l314 124q7 4 18 4q29 0 29 -37v-291h140q38 0 38 -39z" />
    <glyph glyph-name="Tcaron" unicode="&#x164;" horiz-adv-x="1205" 
d="M47 1105v293q0 30 16.5 46.5t45.5 16.5h988q28 0 44.5 -17t16.5 -46v-293q0 -29 -16.5 -46t-44.5 -17h-276v-996q0 -61 -62 -61h-316q-29 0 -45.5 16t-16.5 45v996h-272q-29 0 -45.5 16.5t-16.5 46.5zM328 1731q0 11 11 27l49 65q14 17 33 17q18 0 38 -12l147 -94l148 94
q19 11 37 11q22 0 35 -16l48 -63q8 -14 8 -23q0 -20 -19 -33l-228 -166q-15 -12 -30 -12q-11 0 -29 12l-221 161q-27 17 -27 32z" />
    <glyph glyph-name="tcaron" unicode="&#x165;" horiz-adv-x="724" 
d="M13 583v256q0 18 10.5 28.5t28.5 10.5h79v153q0 35 33 47l314 124q7 4 18 4q29 0 29 -37v-291h140q38 0 38 -39v-256q0 -39 -38 -39h-139v-505q0 -39 -39 -39h-316q-39 0 -39 39v505h-80q-39 0 -39 39zM669 900h-52q-28 0 -46 14.5t-18 37.5l1 313q0 33 15 53.5t40 20.5
h95q33 0 49.5 -20.5t13.5 -53.5l-29 -315q-2 -22 -21.5 -36t-47.5 -14z" />
    <glyph glyph-name="Tbar" unicode="&#x166;" horiz-adv-x="1205" 
d="M1158 1398v-293q0 -29 -16.5 -46t-44.5 -17h-276v-294h68q38 0 38 -39v-75q0 -39 -38 -39h-68v-549q0 -61 -62 -61h-316q-29 0 -45.5 16t-16.5 45v549h-60q-39 0 -39 39v75q0 39 39 39h60v294h-272q-29 0 -45.5 16.5t-16.5 46.5v293q0 30 16.5 46.5t45.5 16.5h988
q28 0 44.5 -17t16.5 -46z" />
    <glyph glyph-name="tbar" unicode="&#x167;" horiz-adv-x="724" 
d="M703 839v-256q0 -39 -38 -39h-139v-135h122q38 0 38 -39v-75q0 -39 -38 -39h-122v-217q0 -39 -39 -39h-316q-39 0 -39 39v217h-65q-39 0 -39 39v75q0 39 39 39h65v135h-80q-39 0 -39 39v256q0 18 10.5 28.5t28.5 10.5h79v153q0 35 33 47l314 124q7 4 18 4q29 0 29 -37
v-291h140q38 0 38 -39z" />
    <glyph glyph-name="Utilde" unicode="&#x168;" horiz-adv-x="1376" 
d="M511 1413v-800q0 -102 38 -160q37 -57 139 -57t139 57q38 58 38 160v800q0 21 13 34t34 13h342q23 0 37 -13t14 -34v-795q0 -318 -158 -485t-459 -167q-617 0 -617 651v796q0 21 11 34t30 13h355q20 0 32 -13t12 -34zM443 1632q0 19 19 45q58 76 142 76q34 0 106 -44
q34 -19 51 -19q21 0 39 27q16 21 32 21q14 0 29 -17l57 -61q11 -11 11 -24q0 -9 -7 -19q-63 -101 -160 -101q-34 0 -101 40q-32 21 -56 21q-23 0 -49 -35q-8 -11 -18 -11q-15 0 -39 24l-39 42q-17 17 -17 35z" />
    <glyph glyph-name="utilde" unicode="&#x169;" horiz-adv-x="1053" 
d="M982 835v-794q0 -19 -11.5 -30.5t-30.5 -11.5h-182q-27 0 -44 25l-45 70q-108 -126 -264 -126q-175 0 -259 107.5t-84 325.5v434q0 41 41 41h312q41 0 41 -41v-437q0 -24 18 -39t43 -15q31 0 50.5 20.5t19.5 58.5v412q0 41 41 41h313q41 0 41 -41zM230 1170q0 21 23 50
q67 83 167 83q39 0 125 -48q41 -21 61 -21q24 0 46 30q20 23 37 23q16 0 35 -19l67 -67q13 -13 13 -26q0 -10 -8 -21q-74 -111 -189 -111q-40 0 -120 44q-37 23 -66 23q-27 0 -57 -39q-8 -11 -22 -11q-18 0 -46 26l-46 46q-20 18 -20 38z" />
    <glyph glyph-name="Umacron" unicode="&#x16a;" horiz-adv-x="1376" 
d="M511 1413v-800q0 -102 38 -160q37 -57 139 -57t139 57q38 58 38 160v800q0 21 13 34t34 13h342q23 0 37 -13t14 -34v-795q0 -318 -158 -485t-459 -167q-617 0 -617 651v796q0 21 11 34t30 13h355q20 0 32 -13t12 -34zM460 1585v134q0 14 9 23t23 9h389q30 0 30 -30v-136
q0 -14 -9.5 -22t-22.5 -8h-389q-11 0 -20.5 8.5t-9.5 21.5z" />
    <glyph glyph-name="umacron" unicode="&#x16b;" horiz-adv-x="1053" 
d="M982 835v-794q0 -19 -11.5 -30.5t-30.5 -11.5h-182q-27 0 -44 25l-45 70q-108 -126 -264 -126q-175 0 -259 107.5t-84 325.5v434q0 41 41 41h312q41 0 41 -41v-437q0 -24 18 -39t43 -15q31 0 50.5 20.5t19.5 58.5v412q0 41 41 41h313q41 0 41 -41zM290 1040v134
q0 14 9 23t23 9h389q30 0 30 -30v-136q0 -14 -9.5 -22t-22.5 -8h-389q-11 0 -20.5 8.5t-9.5 21.5z" />
    <glyph glyph-name="Ubreve" unicode="&#x16c;" horiz-adv-x="1376" 
d="M511 1413v-800q0 -102 38 -160q37 -57 139 -57t139 57q38 58 38 160v800q0 21 13 34t34 13h342q23 0 37 -13t14 -34v-795q0 -318 -158 -485t-459 -167q-617 0 -617 651v796q0 21 11 34t30 13h355q20 0 32 -13t12 -34zM441 1760q0 22 12.5 35t34.5 13h80q26 0 41 -14.5
t15 -40.5q0 -23 17.5 -36t48.5 -13q63 0 63 49q0 26 14 40.5t39 14.5h80q49 0 49 -48q0 -105 -66 -165t-181 -60t-181 60t-66 165z" />
    <glyph glyph-name="ubreve" unicode="&#x16d;" horiz-adv-x="1053" 
d="M982 835v-794q0 -19 -11.5 -30.5t-30.5 -11.5h-182q-27 0 -44 25l-45 70q-108 -126 -264 -126q-175 0 -259 107.5t-84 325.5v434q0 41 41 41h312q41 0 41 -41v-437q0 -24 18 -39t43 -15q31 0 50.5 20.5t19.5 58.5v412q0 41 41 41h313q41 0 41 -41zM222 1275q0 27 15 42
t41 15h95q31 0 48.5 -17.5t17.5 -47.5q0 -27 21 -43t58 -16q35 0 54.5 16t19.5 43q0 30 17 47.5t46 17.5h95q28 0 43 -15t15 -42q0 -125 -78 -196t-215 -71q-135 0 -214 71.5t-79 195.5z" />
    <glyph glyph-name="Uring" unicode="&#x16e;" horiz-adv-x="1376" 
d="M511 1413v-800q0 -102 38 -160q37 -57 139 -57t139 57q38 58 38 160v800q0 21 13 34t34 13h342q23 0 37 -13t14 -34v-795q0 -318 -158 -485t-459 -167q-617 0 -617 651v796q0 21 11 34t30 13h355q20 0 32 -13t12 -34zM906 1754q0 -91 -64 -153.5t-156 -62.5
q-90 0 -153.5 63t-63.5 153t63.5 153.5t153.5 63.5q91 0 155.5 -63.5t64.5 -153.5zM613 1754q0 -31 21.5 -52.5t52.5 -21.5t53 21.5t22 52.5t-21.5 52t-53.5 21q-31 0 -52.5 -21t-21.5 -52z" />
    <glyph glyph-name="uring" unicode="&#x16f;" horiz-adv-x="1053" 
d="M982 835v-794q0 -19 -11.5 -30.5t-30.5 -11.5h-182q-27 0 -44 25l-45 70q-108 -126 -264 -126q-175 0 -259 107.5t-84 325.5v434q0 41 41 41h312q41 0 41 -41v-437q0 -24 18 -39t43 -15q31 0 50.5 20.5t19.5 58.5v412q0 41 41 41h313q41 0 41 -41zM780 1182
q2 -107 -77 -185t-188 -76q-107 -2 -185.5 76t-76.5 185q0 109 76.5 185.5t185.5 76.5q109 2 188 -76.5t77 -185.5zM426 1183q0 -37 26 -63.5t64 -26.5t64 26t26 63q0 38 -26 63.5t-64 25.5t-64 -25.5t-26 -62.5z" />
    <glyph glyph-name="Uhungarumlaut" unicode="&#x170;" horiz-adv-x="1376" 
d="M511 1413v-800q0 -102 38 -160q37 -57 139 -57t139 57q38 58 38 160v800q0 21 13 34t34 13h342q23 0 37 -13t14 -34v-795q0 -318 -158 -485t-459 -167q-617 0 -617 651v796q0 21 11 34t30 13h355q20 0 32 -13t12 -34zM462 1535q-22 0 -37 21l-42 58q-19 28 -19 46
q0 21 21 37l248 189q31 23 54 23q21 0 38 -21l66 -83q15 -19 15 -42q0 -30 -25 -44l-265 -163q-32 -21 -54 -21zM870 1531q-22 0 -37 21l-42 58q-19 28 -19 46q0 20 21 37l248 189q31 23 54 23q21 0 38 -21l66 -83q15 -19 15 -42q0 -30 -25 -44l-265 -163q-32 -21 -54 -21z
" />
    <glyph glyph-name="uhungarumlaut" unicode="&#x171;" horiz-adv-x="1053" 
d="M982 835v-794q0 -19 -11.5 -30.5t-30.5 -11.5h-182q-27 0 -44 25l-45 70q-108 -126 -264 -126q-175 0 -259 107.5t-84 325.5v434q0 41 41 41h312q41 0 41 -41v-437q0 -24 18 -39t43 -15q31 0 50.5 20.5t19.5 58.5v412q0 41 41 41h313q41 0 41 -41zM371 1011h-79
q-21 0 -34 11.5t-13 29.5q0 12 6 25l130 276q13 29 30.5 41t47.5 12h115q19 0 32.5 -14t13.5 -33q0 -13 -8 -27l-163 -270q-19 -31 -33.5 -41t-44.5 -10zM739 1011h-78q-21 0 -34 11.5t-13 29.5q0 12 6 25l130 276q13 29 30.5 41t46.5 12h115q19 0 33 -14t14 -33
q0 -13 -8 -27l-163 -271q-20 -36 -32.5 -43t-46.5 -7z" />
    <glyph glyph-name="Uogonek" unicode="&#x172;" horiz-adv-x="1372" 
d="M1051 55l12 -2q-81 -49 -126.5 -107.5t-45.5 -114.5q0 -38 31 -59.5t86 -21.5q42 0 112 14q2 1 9 1q27 0 32 -30l18 -128q6 -32 -30 -40q-73 -17 -157 -17q-141 0 -221.5 69t-80.5 189q0 85 41 159q-9 -1 -43 -1q-617 0 -617 651v796q0 21 11 34t30 13h355q20 0 32 -13
t12 -34v-800q0 -102 38 -160q37 -57 139 -57t139 57q38 58 38 160v800q0 21 13 34t34 13h342q23 0 37 -13t14 -34v-795q0 -407 -254 -563z" />
    <glyph glyph-name="uogonek" unicode="&#x173;" horiz-adv-x="1053" 
d="M1021 -478q-73 -17 -157 -17q-141 0 -221.5 69t-80.5 189q0 78 33 144.5t91 104.5l26 15l-43 67q-108 -126 -264 -126q-175 0 -259 107.5t-84 325.5v434q0 41 41 41h312q41 0 41 -41v-437q0 -24 18 -39t43 -15q31 0 50.5 20.5t19.5 58.5v412q0 41 41 41h313q41 0 41 -41
v-794q0 -19 -11.5 -30.5t-30.5 -11.5h-19q-75 -48 -116.5 -104t-41.5 -109q0 -38 31 -59.5t86 -21.5q42 0 112 14q2 1 9 1q27 0 32 -30l18 -128q6 -32 -30 -40z" />
    <glyph glyph-name="Wcircumflex" unicode="&#x174;" horiz-adv-x="2108" 
d="M2113 1421q0 -12 -6 -27l-519 -1338q-10 -25 -32 -41t-47 -16h-260q-25 0 -47.5 16t-31.5 41l-109 327l-127 -327q-10 -26 -32 -41.5t-47 -15.5h-260q-26 0 -48 16.5t-31 40.5l-516 1338q-5 12 -5 26q0 40 49 40h350q27 0 48 -15.5t29 -41.5l253 -748l259 750q9 26 30 41
t46 15h350q24 0 37 -11t13 -29q0 -12 -6 -27l-174 -449l100 -292l257 752q9 25 30 40.5t47 15.5h349q51 0 51 -40zM880 1679l221 161q18 12 29 12q15 0 30 -12l228 -166q19 -13 19 -33q0 -9 -8 -23l-48 -63q-13 -16 -35 -16q-18 0 -37 11l-148 94l-147 -94q-20 -12 -38 -12
q-19 0 -33 17l-49 65q-11 16 -11 27q0 14 27 32z" />
    <glyph glyph-name="wcircumflex" unicode="&#x175;" horiz-adv-x="1503" 
d="M1510 843q0 -7 -5 -22l-313 -783q-7 -17 -25 -27.5t-40 -10.5h-199q-22 0 -40 10.5t-25 27.5l-97 235l-91 -235q-6 -17 -24.5 -27.5t-40.5 -10.5h-223q-22 0 -39.5 10.5t-24.5 27.5l-324 783q-5 15 -5 22q0 15 10 25t24 10h335q19 0 35 -10.5t20 -27.5l78 -327l73 327
q4 17 20 27.5t35 10.5h325q14 0 23.5 -10t9.5 -25q0 -13 -4 -22l-55 -143l63 -143l100 304q15 39 53 39h338q14 0 23.5 -9.5t9.5 -25.5zM478 1143l237 193q20 15 31 15q16 0 32 -15l245 -199q20 -18 20 -39q0 -14 -9 -28l-51 -75q-15 -19 -38 -19q-22 0 -39 13l-159 113
l-158 -113q-22 -14 -40 -14q-22 0 -36 20l-52 78q-12 17 -12 32q0 13 10.5 23.5t18.5 14.5z" />
    <glyph glyph-name="Ycircumflex" unicode="&#x176;" horiz-adv-x="1392" 
d="M1397 1419q0 -13 -6 -29l-475 -845v-484q0 -28 -16 -44.5t-45 -16.5h-317q-29 0 -46 16.5t-17 44.5v486l-474 843q-6 16 -6 29q0 41 51 41h371q21 0 42.5 -16t34.5 -41l201 -399l203 401q27 55 78 55h370q51 0 51 -41zM442 1679l221 161q18 12 29 12q15 0 30 -12
l228 -166q19 -13 19 -33q0 -9 -8 -23l-48 -63q-13 -16 -35 -16q-18 0 -37 11l-148 94l-147 -94q-20 -12 -38 -12q-19 0 -33 17l-49 65q-11 16 -11 27q0 14 27 32z" />
    <glyph glyph-name="ycircumflex" unicode="&#x177;" horiz-adv-x="975" 
d="M982 843q0 -10 -5 -22l-313 -783l-1 -1l-173 -423q-14 -36 -52 -36h-283q-59 0 -59 40q0 14 9 35l181 450l-287 718q-5 12 -5 22q0 15 10 25t23 10h336q19 0 35 -10.5t20 -27.5l70 -326l70 326q4 17 20 27.5t35 10.5h336q13 0 23 -10t10 -25zM221 1147l237 193
q20 15 31 15q15 0 32 -15l245 -199q20 -18 20 -39q0 -14 -9 -28l-51 -75q-15 -19 -38 -19q-22 0 -39 13l-159 113l-158 -113q-22 -14 -40 -14q-22 0 -36 20l-52 78q-12 17 -12 32q0 13 11 23.5t18 14.5z" />
    <glyph glyph-name="Ydieresis" unicode="&#x178;" horiz-adv-x="1392" 
d="M1397 1419q0 -13 -6 -29l-475 -845v-484q0 -28 -16 -44.5t-45 -16.5h-317q-29 0 -46 16.5t-17 44.5v486l-474 843q-6 16 -6 29q0 41 51 41h371q21 0 42.5 -16t34.5 -41l201 -399l203 401q27 55 78 55h370q51 0 51 -41zM394 1699q0 52 37.5 89.5t90.5 37.5t90.5 -37.5
t37.5 -89.5q0 -53 -37.5 -91t-90.5 -38t-90.5 38t-37.5 91zM740 1699q0 52 37.5 89.5t90.5 37.5t90.5 -37.5t37.5 -89.5q0 -53 -37.5 -91t-90.5 -38t-90.5 38t-37.5 91z" />
    <glyph glyph-name="Zacute" unicode="&#x179;" horiz-adv-x="1408" 
d="M1347 382v-327q0 -26 -15.5 -41t-41.5 -15h-1163q-27 0 -42 15.5t-15 40.5v221q0 46 22 73l561 673h-518q-27 0 -42 15t-15 42v325q0 26 15 41.5t42 15.5h1114q28 0 43.5 -15.5t15.5 -41.5v-214q0 -40 -19 -58l-577 -694h578q26 0 41.5 -15t15.5 -41zM619 1547
q-28 0 -41 28l-32 64q-11 24 -11 40q0 26 28 41l277 143q26 14 48 14q30 0 43 -28l50 -93q8 -16 8 -34q0 -38 -33 -49l-289 -114q-31 -12 -48 -12z" />
    <glyph glyph-name="zacute" unicode="&#x17a;" horiz-adv-x="897" 
d="M849 313v-268q0 -20 -11.5 -32.5t-30.5 -12.5h-682q-30 0 -51.5 17.5t-21.5 44.5v160q0 27 4 40.5t19 31.5l255 226h-218q-17 0 -29.5 13.5t-12.5 30.5v267q0 20 12 33.5t30 13.5h683q43 0 43 -42l4 -192q0 -21 -4 -30.5t-17 -21.5l-229 -235h215q17 0 29.5 -13t12.5 -31
zM431 990q-22 0 -37 21l-42 58q-19 28 -19 46q0 21 21 37l248 189q31 23 54 23q22 0 38 -21l66 -83q15 -20 15 -42q0 -30 -25 -44l-265 -163q-31 -21 -54 -21z" />
    <glyph glyph-name="Zdotaccent" unicode="&#x17b;" horiz-adv-x="1408" 
d="M1347 382v-327q0 -26 -15.5 -41t-41.5 -15h-1163q-27 0 -42 15.5t-15 40.5v221q0 46 22 73l561 673h-518q-27 0 -42 15t-15 42v325q0 26 15 41.5t42 15.5h1114q28 0 43.5 -15.5t15.5 -41.5v-214q0 -40 -19 -58l-577 -694h578q26 0 41.5 -15t15.5 -41zM550 1732
q0 65 47 112t114 47q65 0 112.5 -47t47.5 -112q0 -66 -47.5 -113.5t-112.5 -47.5q-67 0 -114 47t-47 114z" />
    <glyph glyph-name="zdotaccent" unicode="&#x17c;" horiz-adv-x="897" 
d="M849 313v-268q0 -20 -11.5 -32.5t-30.5 -12.5h-682q-30 0 -51.5 17.5t-21.5 44.5v160q0 27 4 40.5t19 31.5l255 226h-218q-17 0 -29.5 13.5t-12.5 30.5v267q0 20 12 33.5t30 13.5h683q43 0 43 -42l4 -192q0 -21 -4 -30.5t-17 -21.5l-229 -235h215q17 0 29.5 -13t12.5 -31
zM293 1171q0 65 47 112t114 47q65 0 112.5 -47t47.5 -112q0 -67 -47 -114t-113 -47q-67 0 -114 47t-47 114z" />
    <glyph glyph-name="Zcaron" unicode="&#x17d;" horiz-adv-x="1408" 
d="M1347 382v-327q0 -26 -15.5 -41t-41.5 -15h-1163q-27 0 -42 15.5t-15 40.5v221q0 46 22 73l561 673h-518q-27 0 -42 15t-15 42v325q0 26 15 41.5t42 15.5h1114q28 0 43.5 -15.5t15.5 -41.5v-214q0 -40 -19 -58l-577 -694h578q26 0 41.5 -15t15.5 -41zM429 1733
q0 11 11 27l49 65q14 17 33 17q18 0 38 -12l147 -94l148 94q19 11 37 11q22 0 35 -16l48 -63q8 -14 8 -23q0 -20 -19 -33l-228 -166q-15 -12 -30 -12q-11 0 -29 12l-221 161q-27 17 -27 32z" />
    <glyph glyph-name="zcaron" unicode="&#x17e;" horiz-adv-x="897" 
d="M849 313v-268q0 -20 -11.5 -32.5t-30.5 -12.5h-682q-30 0 -51.5 17.5t-21.5 44.5v160q0 27 4 40.5t19 31.5l255 226h-218q-17 0 -29.5 13.5t-12.5 30.5v267q0 20 12 33.5t30 13.5h683q43 0 43 -42l4 -192q0 -21 -4 -30.5t-17 -21.5l-229 -235h215q17 0 29.5 -13t12.5 -31
zM159 1224q0 16 12 32l52 78q14 20 36 20q18 0 40 -14l158 -113l159 113q17 13 39 13q23 0 38 -19l51 -75q9 -13 9 -28q0 -21 -20 -39l-245 -199q-16 -15 -32 -15q-11 0 -31 15l-237 193q-29 17 -29 38z" />
    <glyph glyph-name="uni018F" unicode="&#x18f;" horiz-adv-x="1618" 
d="M1572 728q0 -210 -102 -385q-100 -174 -276 -276q-175 -101 -385 -101t-386 101q-174 102 -276 276q-101 176 -101 385v38q0 130 156 130h884q-43 72 -117 113.5t-160 41.5q-115 0 -203 -70q-15 -12 -32 -12q-20 0 -34 17l-221 278q-10 13 -10 26q0 19 17 33
q211 168 483 168q209 0 385 -102q176 -101 276 -276q102 -174 102 -385zM1080 566h-542q47 -73 118.5 -116t152.5 -43t153 43.5t118 115.5z" />
    <glyph glyph-name="florin" unicode="&#x192;" horiz-adv-x="749" 
d="M892 1406q0 -7 -4 -18l-111 -277q-9 -23 -28 -23q-5 0 -17 5q-29 17 -72 17q-57 0 -90 -38t-33 -105v-89h139q18 0 28.5 -10.5t10.5 -28.5v-256q0 -39 -39 -39h-139v-550q0 -228 -126 -343t-373 -115h-12q-41 0 -41 41v261q0 41 41 41h10q55 0 81 19t26 61v69q-1 3 -1 11
v505h-79q-38 0 -38 39v256q0 39 38 39h79v83q0 248 137 390.5t377 142.5q125 0 218 -57q18 -12 18 -31z" />
    <glyph glyph-name="uni019D" unicode="&#x19d;" horiz-adv-x="1552" 
d="M1450 1416v-1372q0 -21 -12 -32.5t-32 -11.5h-336q-57 0 -89 53l-438 702v-714q0 -512 -558 -512h-14q-45 0 -45 46v292q0 46 45 46h12q62 0 90.5 21t28.5 68v1414q0 21 12 32.5t32 11.5h365q51 0 87 -54l412 -645v655q0 44 44 44h352q21 0 32.5 -12t11.5 -32z" />
    <glyph glyph-name="Gcaron" unicode="&#x1e6;" horiz-adv-x="1375" 
d="M885 416v204q0 26 17.5 43.5t43.5 17.5h318q25 0 42.5 -18t17.5 -43v-475q0 -18 -9.5 -36t-23.5 -26q-80 -48 -219 -83q-135 -34 -254 -34q-212 0 -390 101q-177 102 -280 277q-102 176 -102 385t102 385q104 176 279 276q178 101 390 101q112 0 235 -40q126 -39 198 -97
q25 -20 25 -50q0 -17 -10 -33l-182 -273q-14 -25 -44 -25q-21 0 -39 15q-31 26 -85 45q-51 19 -97 19q-136 2 -235 -94t-96 -229q-3 -133 96 -229t235 -94q21 0 67 10zM536 1762q0 11 11 27l49 65q14 17 33 17t38 -12l147 -94l148 94q19 11 37 11q22 0 35 -16l48 -63
q8 -14 8 -23q0 -20 -19 -33l-228 -166q-15 -12 -30 -12q-11 0 -29 12l-221 161q-27 17 -27 32z" />
    <glyph glyph-name="gcaron" unicode="&#x1e7;" horiz-adv-x="971" 
d="M971 827v-187q0 -24 -14 -38.5t-36 -12.5l-77 8q41 -55 41 -144q3 -148 -116 -252.5t-295 -101.5q-65 0 -130 20q-15 -4 -24 -14.5t-9 -22.5q0 -10 13 -20t29 -10l212 1q175 0 281.5 -82.5t106.5 -222.5q0 -172 -116 -274.5t-324 -102.5q-110 0 -235 20q-127 20 -196 50
q-28 13 -28 42q0 10 3 19l72 220q8 23 39 23q10 0 18 -2q120 -31 166 -37q56 -9 117 -9q140 0 140 42q0 32 -60 32h-200q-164 0 -249 75.5t-85 214.5q0 135 118 221q-62 100 -62 222q-2 180 112.5 295.5t292.5 113.5q82 0 175 -35h270q22 0 36 -14.5t14 -36.5zM565 507
q0 35 -26 61t-61 26q-36 0 -62 -26t-26 -61t26 -61t62 -26t61.5 25.5t25.5 61.5zM204 1236q0 16 12 32l52 78q14 20 36 20q18 0 40 -14l158 -113l159 113q17 13 39 13q23 0 38 -19l51 -75q9 -13 9 -28q0 -21 -20 -39l-245 -199q-17 -15 -32 -15q-11 0 -31 15l-237 193
q-29 17 -29 38z" />
    <glyph glyph-name="uni01EA" unicode="&#x1ea;" horiz-adv-x="1618" 
d="M958 -185q0 -38 31 -59.5t86 -21.5q42 0 112 14q2 1 9 1q28 0 32 -30l18 -128q6 -32 -30 -40q-73 -17 -157 -17q-141 0 -221.5 69t-80.5 189q0 97 50 174q-209 0 -385 102q-175 102 -275 276q-101 176 -101 384q0 210 101 385q102 176 277 276q175 102 385 102
q209 0 385 -102q176 -101 276 -276q102 -174 102 -385q2 -231 -125 -422.5t-332 -277.5q-74 -48 -115.5 -104t-41.5 -109zM809 407q133 -2 229 94t94 227q2 133 -94 229t-229 94q-133 2 -229 -94t-94 -229q-2 -131 94 -227t229 -94z" />
    <glyph glyph-name="uni01EB" unicode="&#x1eb;" horiz-adv-x="1011" 
d="M846 -288l18 -128q6 -32 -30 -40q-73 -17 -157 -17q-141 0 -221.5 69t-80.5 189q0 108 58 185q-174 23 -294 158.5t-117 307.5q0 128 65 238q64 108 176 172t244 64q127 2 240 -63t179 -175.5t63 -235.5q0 -132 -71 -245q-70 -112 -187 -172q-73 -48 -114 -103t-41 -108
q0 -38 31 -59.5t86 -21.5q42 0 112 14q2 1 9 1q28 0 32 -30zM404 438q0 -42 29.5 -71.5t71.5 -29.5t71 29.5t29 71.5q0 43 -29 72t-71 29t-71.5 -29t-29.5 -72z" />
    <glyph glyph-name="Aringacute" unicode="&#x1fa;" horiz-adv-x="1474" 
d="M1469 39q0 -18 -13 -29t-37 -11h-350q-26 0 -47 15.5t-29 40.5l-43 138h-426l-43 -137q-7 -24 -28.5 -40t-48.5 -16h-350q-49 0 -49 41q0 14 5 26l518 1337q11 26 33 41.5t47 15.5h260q25 0 46.5 -15.5t31.5 -41.5l517 -1338q6 -14 6 -27zM636 555h201l-101 323z
M957 1754q0 -91 -64 -153.5t-156 -62.5q-90 0 -153.5 63t-63.5 153t63.5 153.5t153.5 63.5q91 0 155.5 -63.5t64.5 -153.5zM664 1754q0 -31 21.5 -52.5t52.5 -21.5t53 21.5t22 52.5t-21.5 52t-53.5 21q-31 0 -52.5 -21t-21.5 -52zM590 1970q-28 0 -41 28l-32 64
q-11 24 -11 40q0 26 28 41l277 143q26 14 48 14q30 0 43 -28l50 -93q8 -16 8 -34q0 -38 -33 -49l-289 -114q-32 -12 -48 -12z" />
    <glyph glyph-name="aringacute" unicode="&#x1fb;" horiz-adv-x="1009" 
d="M947 562v-517q0 -21 -11 -33t-30 -12l-189 2q-20 0 -31 17l-39 61q-45 -51 -126 -83q-78 -31 -155 -31q-157 0 -244 75t-87 213q0 245 327 246l201 1v31q0 27 -27 42.5t-73 15.5q-132 0 -225 -34q-15 -6 -27 -6q-20 0 -31 23l-75 186q-6 15 -6 26q0 25 33 41
q63 32 170 59q104 26 181 26q216 0 340 -93.5t124 -255.5zM563 347h-79q-38 0 -56 -16t-18 -42t16 -41t45 -15q47 0 69 25.5t23 88.5zM789 1206q2 -107 -77 -185t-188 -76q-107 -2 -185.5 76t-76.5 185q0 109 76.5 185.5t185.5 76.5q109 2 188 -76.5t77 -185.5zM435 1207
q0 -37 26 -63.5t64 -26.5t64 26t26 63q0 38 -26 63.5t-64 25.5t-64 -25.5t-26 -62.5zM499 1511q-22 0 -37 21l-42 58q-19 28 -19 46q0 20 21 37l248 189q31 23 54 23q22 0 38 -21l66 -83q15 -19 15 -42q0 -30 -25 -44l-265 -163q-31 -21 -54 -21z" />
    <glyph glyph-name="AEacute" unicode="&#x1fc;" horiz-adv-x="2202" 
d="M2121 336v-275q0 -28 -17 -44.5t-45 -16.5h-970q-29 0 -45.5 16.5t-16.5 44.5v153h-386l-106 -159q-38 -55 -82 -55h-396q-24 0 -38 13t-14 33q0 16 11 36l920 1324q23 32 38.5 43.5t42.5 11.5h1023q29 0 45.5 -17t16.5 -46v-292q0 -29 -16.5 -46t-45.5 -17h-572v-154
h416q32 0 50 -17t18 -47v-199q0 -29 -18 -46t-50 -17h-416v-146h567q40 0 63 -22t23 -59zM862 544h165v248zM1501 1546q-28 0 -41 28l-32 64q-11 24 -11 40q0 26 28 41l277 143q26 14 48 14q30 0 43 -28l50 -93q8 -16 8 -34q0 -38 -33 -49l-289 -114q-31 -12 -48 -12z" />
    <glyph glyph-name="aeacute" unicode="&#x1fd;" horiz-adv-x="1551" 
d="M1417 354h-4h-462q10 -41 48 -66.5t91 -25.5q80 0 135 35q13 8 25 8q18 0 34 -21q32 -48 110 -158q10 -13 10 -28q0 -18 -18 -31q-132 -102 -305 -102q-162 0 -287 91q-129 -90 -349 -90q-209 0 -309.5 72t-100.5 216q0 73 23 123t70 78.5t110.5 41t154.5 13.5l160 1v20
q0 27 -18.5 42.5t-51.5 15.5q-113 0 -184 -30q-24 -8 -38 -8q-31 0 -42 21l-91 180q-8 18 -8 31q0 35 44 61q121 67 319 67q203 0 324 -82q120 81 271 81q196 3 324.5 -115t126.5 -294q0 -65 -28 -104t-84 -43zM953 510h231q-8 42 -39.5 67.5t-75.5 25.5q-41 0 -73 -26.5
t-43 -66.5zM553 310v27h-69q-23 0 -39 -10t-16 -23q0 -31 54 -31q32 0 51 10t19 27zM772 1014q-22 0 -37 21l-42 58q-19 28 -19 46q0 21 21 37l248 189q31 23 54 23q21 0 38 -21l66 -83q15 -20 15 -42q0 -30 -25 -44l-265 -163q-32 -21 -54 -21z" />
    <glyph glyph-name="Oslashacute" unicode="&#x1fe;" horiz-adv-x="1618" 
d="M1572 728q0 -210 -102 -385q-100 -174 -276 -276q-175 -101 -385 -101q-276 0 -484 169l-89 -89q-12 -12 -27 -12t-28 12l-53 54q-13 12 -13 27t13 28l88 88q-170 209 -170 485q0 210 101 385q102 176 277 276q175 102 385 102q275 0 486 -170l89 89q12 12 24 12
q14 0 28 -14l53 -53q15 -15 15 -29q0 -12 -12 -24l-89 -89q169 -208 169 -485zM533 560l445 444q-77 47 -169 47q-133 2 -229 -94t-94 -229q0 -92 47 -168zM1132 728q0 91 -46 168l-444 -444q77 -45 167 -45q133 -2 229 94t94 227zM718 1576q-28 0 -41 28l-32 64
q-11 24 -11 40q0 26 28 41l277 143q26 14 48 14q30 0 43 -28l50 -93q8 -16 8 -34q0 -38 -33 -49l-289 -114q-32 -12 -48 -12z" />
    <glyph glyph-name="oslashacute" unicode="&#x1ff;" horiz-adv-x="1011" 
d="M989 436q3 -124 -63.5 -234.5t-179 -174.5t-239.5 -62q-181 0 -314 111l-49 -41q-13 -10 -26 -10q-16 0 -29 15l-49 57q-10 13 -10 26q0 17 15 29l47 39q-70 115 -70 245q0 128 65 238q64 108 176 172t244 64q175 0 308 -109l48 40q10 10 25 10q16 0 29 -16l48 -57
q11 -14 11 -27q0 -15 -15 -27l-45 -38q73 -113 73 -250zM605 438q0 43 -29 72t-71 29t-71.5 -29t-29.5 -72q0 -42 29.5 -71.5t71.5 -29.5t71 29.5t29 71.5zM481 1002q-22 0 -37 21l-42 58q-19 28 -19 46q0 21 21 37l248 189q31 23 54 23q22 0 38 -21l66 -83q15 -20 15 -42
q0 -30 -25 -44l-265 -163q-31 -21 -54 -21z" />
    <glyph glyph-name="uni0218" unicode="&#x218;" horiz-adv-x="1261" 
d="M63 140q0 20 12 43l131 270q17 33 54 33q14 0 34 -7q119 -42 204 -59q88 -18 192 -18q34 0 54.5 15t20.5 38q-2 15 -7 24.5t-16 19t-38 20t-61 22t-95 29.5q-128 39 -208.5 77.5t-134.5 91.5t-76.5 119t-24.5 162q0 150 81 256t209 159q128 54 266 54q140 0 271 -48
q129 -46 209 -94q39 -25 39 -55q0 -16 -14 -46l-131 -277q-13 -28 -43 -28q-23 0 -59 17q-96 47 -168.5 69t-153.5 22q-34 0 -54 -15t-20 -38q0 -51 239 -122q150 -43 241 -87q92 -44 148 -125q58 -82 58 -219q2 -141 -71.5 -252.5t-200.5 -170.5t-282 -58q-146 0 -312 36
q-163 34 -266 97q-27 17 -27 45zM637 -75q79 0 132 -58t53 -137q0 -108 -37 -189.5t-118 -157.5q-14 -13 -29 -13q-14 0 -31 14l-50 43q-14 12 -14 27t17 35q39 43 51.5 60.5t12.5 31.5q0 20 -28 28q-56 15 -88 56.5t-32 99.5q0 66 47 113t114 47z" />
    <glyph glyph-name="uni0219" unicode="&#x219;" horiz-adv-x="874" 
d="M427 570q0 -23 62 -41q137 -36 205 -65q78 -32 117.5 -83.5t39.5 -131.5q0 -130 -113.5 -206.5t-310.5 -76.5q-114 0 -222 28q-109 29 -171 76q-25 18 -25 43q0 19 13 38l118 183q13 19 42 19q24 0 51 -12q129 -57 195 -57q34 0 34 22q0 15 -19 27t-69 26
q-104 29 -172 59q-137 64 -137 218q0 122 101 201t285 79q90 0 186 -26t158 -70q42 -30 42 -52q0 -17 -18 -44l-96 -145q-17 -27 -52 -27q-19 0 -40 8q-94 39 -169 39q-35 0 -35 -29zM421 -87q79 0 132 -58t53 -137q0 -108 -37 -189.5t-118 -157.5q-14 -13 -29 -13
q-14 0 -31 14l-50 43q-14 12 -14 27t17 35q39 43 51.5 60.5t12.5 31.5q0 20 -28 28q-56 15 -88 56.5t-32 99.5q0 66 47 113t114 47z" />
    <glyph glyph-name="uni021A" unicode="&#x21a;" horiz-adv-x="1205" 
d="M47 1105v293q0 30 16.5 46.5t45.5 16.5h988q28 0 44.5 -17t16.5 -46v-293q0 -29 -16.5 -46t-44.5 -17h-276v-996q0 -61 -62 -61h-316q-29 0 -45.5 16t-16.5 45v996h-272q-29 0 -45.5 16.5t-16.5 46.5zM597 -73q79 0 132 -58t53 -137q0 -108 -37 -189.5t-118 -157.5
q-14 -13 -29 -13q-14 0 -31 14l-50 43q-14 12 -14 27t17 35q39 43 51.5 60.5t12.5 31.5q0 20 -28 28q-56 15 -88 56.5t-32 99.5q0 66 47 113t114 47z" />
    <glyph glyph-name="uni021B" unicode="&#x21b;" horiz-adv-x="724" 
d="M13 583v256q0 18 10.5 28.5t28.5 10.5h79v153q0 35 33 47l314 124q7 4 18 4q29 0 29 -37v-291h140q38 0 38 -39v-256q0 -39 -38 -39h-139v-505q0 -39 -39 -39h-316q-39 0 -39 39v505h-80q-39 0 -39 39zM317 -58q79 0 132 -58t53 -137q0 -108 -37 -189.5t-118 -157.5
q-14 -13 -29 -13q-14 0 -31 14l-50 43q-14 12 -14 27t17 35q39 43 51.5 60.5t12.5 31.5q0 20 -28 28q-56 15 -88 56.5t-32 99.5q0 66 47 113t114 47z" />
    <glyph glyph-name="uni0232" unicode="&#x232;" horiz-adv-x="1392" 
d="M1397 1419q0 -13 -6 -29l-475 -845v-484q0 -28 -16 -44.5t-45 -16.5h-317q-29 0 -46 16.5t-17 44.5v486l-474 843q-6 16 -6 29q0 41 51 41h371q21 0 42.5 -16t34.5 -41l201 -399l203 401q27 55 78 55h370q51 0 51 -41zM469 1586v134q0 14 9 23t23 9h389q30 0 30 -30v-136
q0 -14 -9.5 -22t-22.5 -8h-389q-11 0 -20.5 8.5t-9.5 21.5z" />
    <glyph glyph-name="uni0233" unicode="&#x233;" horiz-adv-x="975" 
d="M982 843q0 -10 -5 -22l-313 -783l-1 -1l-173 -423q-14 -36 -52 -36h-283q-59 0 -59 40q0 14 9 35l181 450l-287 718q-5 12 -5 22q0 15 10 25t23 10h336q19 0 35 -10.5t20 -27.5l70 -326l70 326q4 17 20 27.5t35 10.5h336q13 0 23 -10t10 -25zM264 1040v134q0 14 9 23
t23 9h389q30 0 30 -30v-136q0 -14 -9.5 -22t-22.5 -8h-389q-11 0 -20.5 8.5t-9.5 21.5z" />
    <glyph glyph-name="uni0237" unicode="&#x237;" horiz-adv-x="536" 
d="M465 839v-845q0 -228 -126 -343t-373 -115h-12q-41 0 -41 41v261q0 41 41 41h10q55 0 81 19t26 61v880q0 39 39 39h316q39 0 39 -39z" />
    <glyph glyph-name="uni0259" unicode="&#x259;" horiz-adv-x="977" 
d="M955 442q2 -127 -63 -237.5t-177.5 -174.5t-241.5 -62q-196 -3 -324.5 115t-126.5 294q0 65 28 104t84 43h4h462q-10 41 -48 66.5t-91 25.5q-80 0 -135 -35q-13 -8 -25 -8q-17 0 -34 21q-32 48 -110 158q-10 13 -10 28q0 18 18 31q132 102 305 102q128 3 241.5 -61.5
t180 -174.5t63.5 -235zM598 368h-231q8 -42 39.5 -67.5t75.5 -25.5q41 0 73 26.5t43 66.5z" />
    <glyph glyph-name="uni0272" unicode="&#x272;" horiz-adv-x="1053" 
d="M991 477v-434q0 -41 -41 -41h-312q-41 0 -41 41v437q0 24 -18 39t-43 15q-31 0 -50.5 -20.5t-19.5 -58.5v-457q0 -228 -126 -343t-373 -115h-12q-41 0 -41 41v261q0 41 41 41h10q55 0 81 19t26 61v69q-1 2 -1 11v794q0 19 11.5 30.5t30.5 11.5h182q27 0 44 -25l45 -70
q108 126 264 126q175 0 259 -107.5t84 -325.5z" />
    <glyph glyph-name="uni02B0" unicode="&#x2b0;" horiz-adv-x="705" 
d="M690 1171l-4 -300q0 -29 -30 -29h-235q-31 0 -31 29v303q0 22 -20 22q-15 0 -21 -9t-6 -33v-286q0 -13 -8 -20.5t-21 -7.5h-238q-29 0 -29 28v864q0 28 29 28h238q13 0 21 -7.5t8 -20.5v-284q52 31 112 31q240 0 235 -308z" />
    <glyph glyph-name="uni02BC" unicode="&#x2bc;" horiz-adv-x="614" 
d="M303 1445q71 0 119 -52.5t48 -123.5q0 -97 -33.5 -170t-106.5 -142q-14 -11 -26 -11q-14 0 -28 12l-45 39q-12 11 -12 24q0 15 15 32q36 39 47 54.5t11 27.5q0 18 -25 26q-51 13 -79.5 50t-28.5 90q0 59 42 101.5t102 42.5z" />
    <glyph glyph-name="circumflex" unicode="&#x2c6;" horiz-adv-x="614" 
d="M119 1147l237 193q20 15 31 15q15 0 32 -15l245 -199q20 -18 20 -39q0 -14 -9 -28l-51 -75q-15 -19 -38 -19q-22 0 -39 13l-159 113l-158 -113q-22 -14 -40 -14q-22 0 -36 20l-52 78q-12 17 -12 32q0 13 11 23.5t18 14.5z" />
    <glyph glyph-name="caron" unicode="&#x2c7;" horiz-adv-x="614" 
d="M90 1224q0 16 12 32l52 78q14 20 36 20q18 0 40 -14l158 -113l159 113q17 13 39 13q23 0 38 -19l51 -75q9 -13 9 -28q0 -21 -20 -39l-245 -199q-17 -15 -32 -15q-11 0 -31 15l-237 193q-29 17 -29 38z" />
    <glyph glyph-name="uni02C9" unicode="&#x2c9;" horiz-adv-x="600" 
 />
    <glyph glyph-name="breve" unicode="&#x2d8;" horiz-adv-x="614" 
d="M26 1275q0 27 15 42t41 15h95q31 0 48.5 -17.5t17.5 -47.5q0 -27 21 -43t58 -16q35 0 54.5 16t19.5 43q0 30 17 47.5t46 17.5h95q28 0 43 -15t15 -42q0 -125 -78 -196t-215 -71q-135 0 -214 71.5t-79 195.5z" />
    <glyph glyph-name="dotaccent" unicode="&#x2d9;" horiz-adv-x="614" 
d="M71 1171q0 65 47 112t114 47q65 0 112.5 -47t47.5 -112q0 -67 -47 -114t-113 -47q-67 0 -114 47t-47 114z" />
    <glyph glyph-name="ring" unicode="&#x2da;" horiz-adv-x="614" 
d="M624 1182q2 -107 -77 -185t-188 -76q-107 -2 -185.5 76t-76.5 185q0 109 76.5 185.5t185.5 76.5q109 2 188 -76.5t77 -185.5zM270 1183q0 -37 26 -63.5t64 -26.5t64 26t26 63q0 38 -26 63.5t-64 25.5t-64 -25.5t-26 -62.5z" />
    <glyph glyph-name="ogonek" unicode="&#x2db;" horiz-adv-x="614" 
d="M295 30l162 -30q-81 -49 -126.5 -107.5t-45.5 -114.5q0 -38 31 -59.5t86 -21.5q42 0 112 14q2 1 9 1q27 0 32 -30l18 -128q6 -32 -30 -40q-73 -17 -157 -17q-141 0 -221.5 69t-80.5 189q0 78 33 144.5t91 104.5q43 27 74 27q10 0 13 -1z" />
    <glyph glyph-name="tilde" unicode="&#x2dc;" horiz-adv-x="614" 
d="M59 1170q0 21 23 50q67 83 167 83q39 0 125 -48q40 -21 61 -21q24 0 46 30q20 23 37 23q16 0 35 -19l67 -67q13 -13 13 -26q0 -10 -8 -21q-74 -111 -189 -111q-40 0 -120 44q-37 23 -66 23q-27 0 -57 -39q-8 -11 -22 -11q-18 0 -46 26l-46 46q-20 18 -20 38z" />
    <glyph glyph-name="hungarumlaut" unicode="&#x2dd;" horiz-adv-x="614" 
d="M290 1011h-79q-21 0 -34 11.5t-13 29.5q0 12 6 25l130 276q13 29 30.5 41t47.5 12h115q19 0 32.5 -14t13.5 -33q0 -13 -8 -27l-163 -270q-19 -31 -33.5 -41t-44.5 -10zM658 1011h-78q-21 0 -34 11.5t-13 29.5q0 12 6 25l130 276q13 29 30.5 41t46.5 12h115q19 0 33 -14
t14 -33q0 -13 -8 -27l-163 -271q-20 -36 -32.5 -43t-46.5 -7z" />
    <glyph glyph-name="uni02E1" unicode="&#x2e1;" horiz-adv-x="390" 
d="M343 1732v-864q0 -13 -8 -20.5t-21 -7.5h-238q-29 0 -29 28v864q0 28 29 28h238q13 0 21 -7.5t8 -20.5z" />
    <glyph glyph-name="uni02E2" unicode="&#x2e2;" horiz-adv-x="662" 
d="M318 1234q0 -10 10.5 -18t26.5 -10q120 -9 196 -61.5t76 -124.5q0 -92 -79.5 -150.5t-206.5 -58.5q-67 0 -149 17q-74 15 -136 43q-21 11 -21 36q0 11 5 23l59 135q9 21 38 21q17 0 31 -7q93 -39 164 -39q12 0 19.5 6t7.5 14q0 13 -8 20.5t-21 7.5q-7 0 -9 -1
q-6 -1 -26 -1q-102 0 -165 51.5t-63 136.5q0 92 74.5 150.5t193.5 58.5q60 0 135 -20t128 -50q22 -12 22 -37q0 -13 -6 -25l-60 -127q-6 -12 -27 -12q-15 0 -31 6l-35 10q-84 25 -117 25q-26 0 -26 -19z" />
    <glyph glyph-name="gravecomb" unicode="&#x300;" 
d="M-178 1011l-265 163q-25 14 -25 44q0 22 15 42l66 83q17 21 38 21q23 0 54 -23l248 -189q21 -16 21 -37q0 -18 -19 -46l-42 -58q-15 -21 -37 -21t-54 21z" />
    <glyph glyph-name="acutecomb" unicode="&#x301;" 
d="M-444 990q-22 0 -37 21l-42 58q-19 28 -19 46q0 21 21 37l248 189q31 23 54 23q21 0 38 -21l66 -83q15 -20 15 -42q0 -30 -25 -44l-265 -163q-32 -21 -54 -21z" />
    <glyph glyph-name="uni0302" unicode="&#x302;" 
d="M-664 1147l237 193q20 15 31 15q16 0 32 -15l245 -199q20 -18 20 -39q0 -14 -9 -28l-51 -75q-15 -19 -38 -19q-22 0 -39 13l-159 113l-158 -113q-22 -14 -40 -14q-22 0 -36 20l-52 78q-12 17 -12 32q0 13 10.5 23.5t18.5 14.5z" />
    <glyph glyph-name="tildecomb" unicode="&#x303;" 
d="M-555 1170q0 21 23 50q67 83 167 83q39 0 125 -48q41 -21 61 -21q24 0 46 30q20 23 37 23q16 0 35 -19l67 -67q13 -13 13 -26q0 -10 -8 -21q-74 -111 -189 -111q-40 0 -120 44q-37 23 -66 23q-27 0 -57 -39q-8 -11 -22 -11q-18 0 -46 26l-46 46q-20 18 -20 38z" />
    <glyph glyph-name="uni0304" unicode="&#x304;" 
d="M-735 1040v134q0 14 9 23t23 9h389q30 0 30 -30v-136q0 -14 -9.5 -22t-22.5 -8h-389q-11 0 -20.5 8.5t-9.5 21.5z" />
    <glyph glyph-name="uni0306" unicode="&#x306;" 
d="M-588 1275q0 27 15 42t41 15h95q31 0 48.5 -17.5t17.5 -47.5q0 -27 21 -43t58 -16q35 0 54.5 16t19.5 43q0 30 17 47.5t46 17.5h95q28 0 43 -15t15 -42q0 -125 -78 -196t-215 -71q-135 0 -214 71.5t-79 195.5z" />
    <glyph glyph-name="uni0307" unicode="&#x307;" 
d="M-393 1171q0 65 47 112t114 47q65 0 112.5 -47t47.5 -112q0 -67 -47 -114t-113 -47q-67 0 -114 47t-47 114z" />
    <glyph glyph-name="uni0308" unicode="&#x308;" 
d="M-822 1171q0 65 47 112t114 47q65 0 112.5 -47t47.5 -112q0 -67 -47.5 -114t-112.5 -47q-67 0 -114 47t-47 114zM-474 1171q0 65 47 112t114 47q65 0 112.5 -47t47.5 -112q0 -67 -47.5 -114t-112.5 -47q-67 0 -114 47t-47 114z" />
    <glyph glyph-name="hookabovecomb" unicode="&#x309;" 
d="M-138 1138q0 -85 -51 -134t-139 -49q-35 0 -40 22l-13 78q-1 3 -1 10q0 29 26 29q39 0 39 40q0 20 -21.5 32.5t-58.5 12.5h-18q-35 0 -37 29l-5 100q-2 32 23 32l36 1q122 0 191 -54t69 -149z" />
    <glyph glyph-name="uni030A" unicode="&#x30a;" 
d="M-97 1182q2 -107 -77 -185t-188 -76q-107 -2 -185.5 76t-76.5 185q0 109 76.5 185.5t185.5 76.5q109 2 188 -76.5t77 -185.5zM-451 1183q0 -37 26 -63.5t64 -26.5t64 26t26 63q0 38 -26 63.5t-64 25.5t-64 -25.5t-26 -62.5z" />
    <glyph glyph-name="uni030B" unicode="&#x30b;" 
d="M-781 1011h-79q-21 0 -34 11.5t-13 29.5q0 12 6 25l130 276q13 29 30.5 41t47.5 12h115q19 0 32.5 -14t13.5 -33q0 -13 -8 -27l-163 -270q-19 -31 -33.5 -41t-44.5 -10zM-413 1011h-78q-21 0 -34 11.5t-13 29.5q0 12 6 25l130 276q13 29 30.5 41t46.5 12h115q19 0 33 -14
t14 -33q0 -13 -8 -27l-163 -271q-20 -36 -32.5 -43t-46.5 -7z" />
    <glyph glyph-name="uni030C" unicode="&#x30c;" 
d="M-693 1224q0 16 12 32l52 78q14 20 36 20q18 0 40 -14l158 -113l159 113q17 13 39 13q23 0 38 -19l51 -75q9 -13 9 -28q0 -21 -20 -39l-245 -199q-17 -15 -32 -15q-11 0 -31 15l-237 193q-29 17 -29 38z" />
    <glyph glyph-name="uni0312" unicode="&#x312;" 
d="M-331 971q-79 0 -132 58t-53 137q0 108 37 189.5t118 157.5q14 13 29 13q14 0 31 -14l50 -43q14 -12 14 -27t-17 -35q-39 -43 -51.5 -60.5t-12.5 -31.5q0 -20 28 -28q56 -15 88 -56.5t32 -99.5q0 -66 -47 -113t-114 -47z" />
    <glyph glyph-name="uni031B" unicode="&#x31b;" 
d="M-248 1111q20 0 32.5 21.5t12.5 58.5v18q0 35 29 37l100 5q32 2 32 -23l1 -36q0 -122 -54 -191t-149 -69q-43 0 -80 14l50 172q10 -7 26 -7z" />
    <glyph glyph-name="dotbelowcomb" unicode="&#x323;" 
d="M-414 -275q0 65 47 112t114 47q65 0 112.5 -47t47.5 -112q0 -67 -47.5 -114t-112.5 -47q-67 0 -114 47t-47 114z" />
    <glyph glyph-name="uni0326" unicode="&#x326;" 
d="M-284 -58q79 0 132 -58t53 -137q0 -108 -37 -189.5t-118 -157.5q-14 -13 -29 -13q-14 0 -31 14l-50 43q-14 12 -14 27t17 35q39 43 51.5 60.5t12.5 31.5q0 20 -28 28q-56 15 -88 56.5t-32 99.5q0 66 47 113t114 47z" />
    <glyph glyph-name="uni0327" unicode="&#x327;" 
d="M-370 19h196l-14 -110q44 0 68 -30.5t24 -86.5q0 -2 -2 -34l-6 -52q-12 -99 -78.5 -155.5t-170.5 -56.5h-114q-18 0 -16 25l19 151q2 18 21 18h114q26 0 28 19l6 51l1 5q0 16 -22 16h-65q-18 0 -16 17z" />
    <glyph glyph-name="uni0328" unicode="&#x328;" 
d="M-319 30l162 -30q-81 -49 -126.5 -107.5t-45.5 -114.5q0 -38 31 -59.5t86 -21.5q42 0 112 14q2 1 9 1q27 0 32 -30l18 -128q6 -32 -30 -40q-73 -17 -157 -17q-141 0 -221.5 69t-80.5 189q0 78 33 144.5t91 104.5q44 27 74 27q10 0 13 -1z" />
    <glyph glyph-name="uni0331" unicode="&#x331;" 
d="M-513 -154h389q13 0 22.5 -8t9.5 -22v-136q0 -30 -30 -30h-389q-14 0 -23 9t-9 23v134q0 13 9.5 21.5t20.5 8.5z" />
    <glyph glyph-name="uni0335" unicode="&#x335;" 
d="M-78 1005h-568q-39 0 -39 39v75q0 39 39 39h568q38 0 38 -39v-75q0 -39 -38 -39z" />
    <glyph glyph-name="uni0336" unicode="&#x336;" 
d="M-177 403h-612q-18 0 -28.5 10.5t-10.5 28.5v75q0 18 10.5 28.5t28.5 10.5h612q38 0 38 -39v-75q0 -39 -38 -39z" />
    <glyph glyph-name="uni0337" unicode="&#x337;" 
d="M-186 564q0 -26 -30 -34l-485 -121q-10 -2 -12 -2q-27 0 -35 31l-18 72q0 3 -0.5 6t-1 4.5t-0.5 2.5q0 27 30 35l485 121q3 1 11 1q28 0 36 -30l18 -73q0 -3 0.5 -6t1 -4.5t0.5 -2.5z" />
    <glyph glyph-name="uni0338" unicode="&#x338;" 
d="M-64 751q0 -15 -15 -27l-229 -193q-14 -11 -26 -11q-16 0 -29 16l-48 58q-11 14 -11 26q0 16 16 29l229 192q10 10 25 10q16 0 29 -16l48 -57q11 -14 11 -27zM-648 259q0 -15 -16 -28l-232 -196q-13 -10 -26 -10q-16 0 -29 15l-49 57q-10 13 -10 26q0 17 15 29l233 196
q10 10 25 10q16 0 29 -16l48 -57q12 -13 12 -26z" />
    <glyph glyph-name="uni0374" unicode="&#x374;" horiz-adv-x="589" 
d="M103 1053l27 339q5 38 16.5 53.5t36.5 15.5h249q54 0 54 -46q0 -8 -4 -23l-83 -347q-9 -34 -18.5 -46.5t-29.5 -12.5h-204q-24 0 -35 18.5t-9 48.5z" />
    <glyph glyph-name="uni0375" unicode="&#x375;" horiz-adv-x="589" 
d="M103 -175l27 339q5 38 16.5 53.5t36.5 15.5h249q54 0 54 -46q0 -8 -4 -23l-83 -347q-9 -34 -18.5 -46.5t-29.5 -12.5h-204q-24 0 -35 18.5t-9 48.5z" />
    <glyph glyph-name="uni037E" unicode="&#x37e;" horiz-adv-x="627" 
d="M308 398q97 2 167.5 -78.5t68.5 -190.5q0 -140 -38.5 -245.5t-119.5 -192.5q-14 -14 -36 -14q-20 0 -34 11l-89 69q-12 11 -12 27q0 22 19 44q28 30 47 64t19 54q0 8 -4.5 14t-10.5 6h-17q-74 0 -126 61t-52 149q0 92 63.5 157t154.5 65zM83 694q0 92 65.5 157t157.5 65
q89 2 156 -65.5t65 -156.5q0 -91 -65.5 -156.5t-155.5 -65.5q-92 0 -157.5 65.5t-65.5 156.5z" />
    <glyph glyph-name="tonos" unicode="&#x384;" horiz-adv-x="507" 
d="M126 1084l20 218q3 24 12 34t27 10h182q40 0 40 -29q0 -7 -3 -15l-61 -223q-6 -22 -13 -30t-22 -8h-150q-17 0 -25.5 12t-6.5 31z" />
    <glyph glyph-name="dieresistonos" unicode="&#x385;" horiz-adv-x="873" 
d="M102 1171q0 65 47 112t114 47q65 0 112.5 -47t47.5 -112q0 -67 -47.5 -114t-112.5 -47q-67 0 -114 47t-47 114zM450 1171q0 65 47 112t114 47q65 0 112.5 -47t47.5 -112q0 -67 -47.5 -114t-112.5 -47q-67 0 -114 47t-47 114zM329 1365l20 218q3 24 12 34t27 10h182
q40 0 40 -29q0 -8 -3 -15l-61 -223q-6 -22 -13 -30t-22 -8h-150q-17 0 -25.5 12t-6.5 31z" />
    <glyph glyph-name="Alphatonos" unicode="&#x386;" horiz-adv-x="1474" 
d="M1469 39q0 -18 -13 -29t-37 -11h-350q-26 0 -47 15.5t-29 40.5l-43 138h-426l-43 -137q-7 -24 -28.5 -40t-48.5 -16h-350q-49 0 -49 41q0 14 5 26l518 1337q11 26 33 41.5t47 15.5h260q25 0 46.5 -15.5t31.5 -41.5l517 -1338q6 -14 6 -27zM636 555h201l-101 323z
M117 1197l20 218q3 24 12 34t27 10h182q40 0 40 -29q0 -8 -3 -15l-61 -223q-6 -22 -13 -30t-22 -8h-150q-17 0 -25.5 12t-6.5 31z" />
    <glyph glyph-name="anoteleia" unicode="&#x387;" horiz-adv-x="610" 
d="M83 440q0 92 65.5 157t157.5 65q89 2 156 -65.5t65 -156.5q0 -91 -65.5 -156.5t-155.5 -65.5q-92 0 -157.5 65.5t-65.5 156.5z" />
    <glyph glyph-name="Epsilontonos" unicode="&#x388;" horiz-adv-x="1481" 
d="M306 61v1337q0 30 16.5 46.5t45.5 16.5h951q29 0 45.5 -17t16.5 -46v-292q0 -29 -16.5 -46t-45.5 -17h-572v-154h416q32 0 50 -17t18 -47v-199q0 -29 -18 -46t-50 -17h-416v-146h567q40 0 63 -22t23 -59v-275q0 -28 -17 -44.5t-45 -16.5h-970q-29 0 -45.5 16.5
t-16.5 44.5zM0 1200l20 218q3 24 12 34t27 10h182q40 0 40 -29q0 -7 -3 -15l-61 -223q-6 -22 -13 -30t-22 -8h-150q-17 0 -25.5 12t-6.5 31z" />
    <glyph glyph-name="Etatonos" unicode="&#x389;" horiz-adv-x="1773" 
d="M1599 1416v-1372q0 -21 -12 -32.5t-32 -11.5h-353q-20 0 -32 12t-12 32v493h-411v-493q0 -20 -12 -32t-32 -12h-353q-20 0 -32 11.5t-12 32.5v1372q0 21 12 32.5t32 11.5h353q20 0 32 -12t12 -32v-495h411v495q0 20 12 32t32 12h353q20 0 32 -11.5t12 -32.5zM0 1199
l20 218q3 24 12 34t27 10h182q40 0 40 -29q0 -8 -3 -15l-61 -223q-6 -22 -13 -30t-22 -8h-150q-17 0 -25.5 12t-6.5 31z" />
    <glyph glyph-name="Iotatonos" unicode="&#x38a;" horiz-adv-x="900" 
d="M746 1417v-1373q0 -44 -44 -44h-352q-44 0 -44 44v1373q0 44 44 44h352q44 0 44 -44zM0 1200l20 218q3 24 12 34t27 10h182q40 0 40 -29q0 -7 -3 -15l-61 -223q-6 -22 -13 -30t-22 -8h-150q-17 0 -25.5 12t-6.5 31z" />
    <glyph glyph-name="Omicrontonos" unicode="&#x38c;" horiz-adv-x="1618" 
d="M809 1491q209 0 385 -102q176 -101 276 -276q102 -174 102 -385q0 -210 -102 -385q-100 -174 -276 -276q-175 -101 -385 -101t-386 101q-174 102 -276 276q-101 176 -101 385q0 210 101 385q102 176 277 276q175 102 385 102zM809 407q133 -2 229 94t94 227
q2 133 -94 229t-229 94q-133 2 -229 -94t-94 -229q-2 -131 94 -227t229 -94zM-41 1212l20 218q3 24 12 34t27 10h182q40 0 40 -29q0 -7 -3 -15l-61 -223q-6 -22 -13 -30t-22 -8h-150q-17 0 -25.5 12t-6.5 31z" />
    <glyph glyph-name="Upsilontonos" unicode="&#x38e;" horiz-adv-x="1627" 
d="M1684 1419q0 -13 -6 -29l-475 -845v-484q0 -28 -16 -44.5t-45 -16.5h-317q-29 0 -46 16.5t-17 44.5v486l-474 843q-6 16 -6 29q0 41 51 41h371q22 0 43 -16t34 -41l201 -399l203 401q27 55 78 55h370q51 0 51 -41zM-39 1200l20 218q3 24 12 34t27 10h182q40 0 40 -29
q0 -7 -3 -15l-61 -223q-6 -22 -13 -30t-22 -8h-150q-17 0 -25.5 12t-6.5 31z" />
    <glyph glyph-name="Omegatonos" unicode="&#x38f;" horiz-adv-x="1440" 
d="M1411 308v-238q0 -29 -20 -49.5t-49 -20.5h-479q-29 0 -49.5 20.5t-20.5 49.5v450q0 18 14 37t36 30q67 34 104 95.5t37 141.5q0 98 -72.5 167.5t-176.5 69.5q-104 2 -179.5 -69t-73.5 -167q0 -92 35 -155.5t99 -85.5q25 -9 41.5 -27t16.5 -37l-2 -378v-72
q0 -29 -20.5 -49.5t-49.5 -20.5h-479q-29 0 -50 20.5t-21 49.5v238q0 29 21 50.5t50 20.5l178 -4v17q-70 13 -129 78.5t-92.5 159.5t-32.5 192q0 188 91 340t249 241q157 88 348 88t348 -88q158 -89 249 -241q92 -154 92 -340q1 -96 -31 -191t-88.5 -161t-120.5 -75v-19
l158 3q28 1 48.5 -20.5t20.5 -50.5zM-139 1200l20 218q3 24 12 34t27 10h182q40 0 40 -29q0 -7 -3 -15l-61 -223q-6 -22 -13 -30t-22 -8h-150q-17 0 -25.5 12t-6.5 31z" />
    <glyph glyph-name="iotadieresistonos" unicode="&#x390;" horiz-adv-x="536" 
d="M465 839v-800q0 -39 -39 -39h-316q-39 0 -39 39v800q0 39 39 39h316q39 0 39 -39zM-68 1171q0 65 47 112t114 47q65 0 112.5 -47t47.5 -112q0 -67 -47.5 -114t-112.5 -47q-67 0 -114 47t-47 114zM280 1171q0 65 47 112t114 47q65 0 112.5 -47t47.5 -112q0 -67 -47.5 -114
t-112.5 -47q-67 0 -114 47t-47 114zM159 1365l20 218q3 24 12 34t27 10h182q40 0 40 -29q0 -8 -3 -15l-61 -223q-6 -22 -13 -30t-22 -8h-150q-17 0 -25.5 12t-6.5 31z" />
    <glyph glyph-name="Alpha" unicode="&#x391;" horiz-adv-x="1474" 
d="M1469 39q0 -18 -13 -29t-37 -11h-350q-26 0 -47 15.5t-29 40.5l-43 138h-426l-43 -137q-7 -24 -28.5 -40t-48.5 -16h-350q-49 0 -49 41q0 14 5 26l518 1337q11 26 33 41.5t47 15.5h260q25 0 46.5 -15.5t31.5 -41.5l517 -1338q6 -14 6 -27zM636 555h201l-101 323z" />
    <glyph glyph-name="Beta" unicode="&#x392;" horiz-adv-x="1306" 
d="M1260 453q0 -213 -141.5 -333t-394.5 -120h-578q-20 0 -32 11.5t-12 32.5v1373q0 21 12 32.5t32 11.5h536q242 0 378 -116t136 -321q0 -77 -32 -143t-89 -105q87 -46 136 -131.5t49 -191.5zM673 1067h-130v-159h130q40 0 62 21t22 59q0 37 -22 58t-62 21zM819 499
q0 46 -27.5 71.5t-77.5 25.5h-171v-201h171q49 0 77 27.5t28 76.5z" />
    <glyph glyph-name="Gamma" unicode="&#x393;" horiz-adv-x="1146" 
d="M1086 1416v-330q0 -20 -11.5 -32t-32.5 -12h-499v-998q0 -21 -12 -32.5t-32 -11.5h-353q-20 0 -32 11.5t-12 32.5v1372q0 21 12 32.5t32 11.5h896q44 0 44 -44z" />
    <glyph glyph-name="uni0394" unicode="&#x394;" horiz-adv-x="1474" 
d="M1469 40q0 -40 -50 -40h-1051q-12 0 -15 1h-299q-49 0 -49 41q0 14 5 26l516 1336q11 26 32.5 41.5t46.5 15.5h260q26 0 47.5 -15.5t31.5 -41.5l519 -1337q6 -15 6 -27zM734 866l-158 -505h319z" />
    <glyph glyph-name="Epsilon" unicode="&#x395;" horiz-adv-x="1277" 
d="M102 61v1337q0 30 16.5 46.5t45.5 16.5h951q29 0 45.5 -17t16.5 -46v-292q0 -29 -16.5 -46t-45.5 -17h-572v-154h416q32 0 50 -17t18 -47v-199q0 -29 -18 -46t-50 -17h-416v-146h567q40 0 63 -22t23 -59v-275q0 -28 -17 -44.5t-45 -16.5h-970q-29 0 -45.5 16.5
t-16.5 44.5z" />
    <glyph glyph-name="Zeta" unicode="&#x396;" horiz-adv-x="1408" 
d="M1347 382v-327q0 -26 -15.5 -41t-41.5 -15h-1163q-27 0 -42 15.5t-15 40.5v221q0 46 22 73l561 673h-518q-27 0 -42 15t-15 42v325q0 26 15 41.5t42 15.5h1114q28 0 43.5 -15.5t15.5 -41.5v-214q0 -40 -19 -58l-577 -694h578q26 0 41.5 -15t15.5 -41z" />
    <glyph glyph-name="Eta" unicode="&#x397;" horiz-adv-x="1497" 
d="M1395 1416v-1372q0 -21 -12 -32.5t-32 -11.5h-353q-20 0 -32 12t-12 32v493h-411v-493q0 -20 -12 -32t-32 -12h-353q-20 0 -32 11.5t-12 32.5v1372q0 21 12 32.5t32 11.5h353q20 0 32 -12t12 -32v-495h411v495q0 20 12 32t32 12h353q20 0 32 -11.5t12 -32.5z" />
    <glyph glyph-name="Theta" unicode="&#x398;" horiz-adv-x="1620" 
d="M786 1491q210 0 385 -102q175 -101 276 -276q102 -174 102 -385q0 -210 -102 -385q-101 -174 -276 -276q-175 -101 -385 -101t-386 101q-175 102 -275 276q-101 176 -101 385q0 210 101 385t276 276q175 102 385 102zM786 387q140 -3 242.5 99.5t99.5 241.5
q3 140 -99.5 242.5t-242.5 99.5q-140 3 -242.5 -99.5t-99.5 -242.5q-3 -139 99.5 -241.5t242.5 -99.5zM995 636h-422q-19 0 -30 11t-11 30v102q0 19 11 30t30 11h422q41 0 41 -41v-102q0 -41 -41 -41z" />
    <glyph glyph-name="Iota" unicode="&#x399;" horiz-adv-x="644" 
d="M542 1417v-1373q0 -44 -44 -44h-352q-44 0 -44 44v1373q0 44 44 44h352q44 0 44 -44z" />
    <glyph glyph-name="Kappa" unicode="&#x39a;" horiz-adv-x="1535" 
d="M1527 33q0 -33 -41 -33h-416q-37 0 -59 25l-296 473l-172 -211v-243q0 -21 -12 -32.5t-32 -11.5h-353q-20 0 -32 11.5t-12 32.5v1373q0 21 12 32.5t32 11.5h353q20 0 32 -11.5t12 -32.5v-526l377 528q18 24 37 32.5t53 8.5h404q41 0 41 -36q0 -21 -16 -40l-433 -530
l506 -780q15 -23 15 -41z" />
    <glyph glyph-name="Lambda" unicode="&#x39b;" horiz-adv-x="1474" 
d="M1469 40q0 -18 -13 -29t-37 -11h-350q-25 0 -46 15t-30 41l-259 750l-253 -748q-8 -26 -29 -41.5t-48 -15.5h-350q-49 0 -49 40q0 14 5 26l516 1338q9 24 31 40.5t48 16.5h260q25 0 47 -15.5t32 -41.5l519 -1338q6 -15 6 -27z" />
    <glyph glyph-name="Mu" unicode="&#x39c;" horiz-adv-x="1896" 
d="M1784 0h-331q-29 0 -43.5 14t-17.5 45l-71 656l-141 -667q-9 -34 -23.5 -47t-43.5 -13h-331q-28 0 -42.5 12.5t-23.5 47.5l-141 665l-71 -654q-6 -59 -62 -59h-330q-33 0 -50 16t-13 46l171 1339q8 60 62 60h423q57 0 71 -59l172 -787l171 787q14 59 72 59h423
q54 0 61 -60l171 -1339q4 -30 -12.5 -46t-49.5 -16z" />
    <glyph glyph-name="Nu" unicode="&#x39d;" horiz-adv-x="1552" 
d="M1450 1416v-1372q0 -21 -12 -32.5t-32 -11.5h-336q-57 0 -89 53l-438 702v-711q0 -21 -12 -32.5t-32 -11.5h-353q-20 0 -32 11.5t-12 32.5v1372q0 21 12 32.5t32 11.5h365q51 0 87 -54l412 -645v655q0 44 44 44h352q21 0 32.5 -12t11.5 -32z" />
    <glyph glyph-name="Xi" unicode="&#x39e;" horiz-adv-x="1287" 
d="M102 1103v297q0 29 16.5 45t45.5 16h957q30 0 47 -16.5t17 -44.5v-297q0 -29 -17 -45.5t-47 -16.5h-957q-29 0 -45.5 16.5t-16.5 45.5zM220 625v202q0 28 17 45.5t45 17.5h719q31 0 49 -18t18 -47v-200q0 -29 -17.5 -45.5t-49.5 -16.5h-719q-29 0 -45.5 16.5t-16.5 45.5z
M81 61v297q0 29 16 45.5t45 16.5h1002q29 0 45.5 -17t16.5 -45v-297q0 -29 -16.5 -45t-45.5 -16h-1002q-28 0 -44.5 16.5t-16.5 44.5z" />
    <glyph glyph-name="Omicron" unicode="&#x39f;" horiz-adv-x="1618" 
d="M809 1491q209 0 385 -102q176 -101 276 -276q102 -174 102 -385q0 -210 -102 -385q-100 -174 -276 -276q-175 -101 -385 -101t-386 101q-174 102 -276 276q-101 176 -101 385q0 210 101 385q102 176 277 276q175 102 385 102zM809 407q133 -2 229 94t94 227
q2 133 -94 229t-229 94q-133 2 -229 -94t-94 -229q-2 -131 94 -227t229 -94z" />
    <glyph glyph-name="Pi" unicode="&#x3a0;" horiz-adv-x="1466" 
d="M1364 1416v-1372q0 -44 -44 -44h-352q-20 0 -32 11.5t-12 32.5v996h-381v-996q0 -21 -12 -32.5t-32 -11.5h-353q-20 0 -32 11.5t-12 32.5v1372q0 21 12 32.5t32 11.5h1174q44 0 44 -44z" />
    <glyph glyph-name="Rho" unicode="&#x3a1;" horiz-adv-x="1235" 
d="M1205 942q3 -231 -148 -374t-388 -141h-126v-366q0 -28 -17.5 -44.5t-47.5 -16.5h-315q-61 0 -61 61v1336q0 28 17 45.5t44 17.5h160h157h189q237 3 388 -140.5t148 -377.5zM765 944q0 55 -37 92q-38 38 -90 38h-95v-260h95q53 0 90 37t37 93z" />
    <glyph glyph-name="Sigma" unicode="&#x3a3;" horiz-adv-x="1288" 
d="M113 330l398 401l-400 346q-30 29 -30 61v260q0 63 62 63h983q29 0 45.5 -17t16.5 -46v-295q0 -29 -16.5 -45.5t-45.5 -16.5h-425l173 -145q67 -57 67 -99v-117q0 -29 -15.5 -53t-51.5 -55l-173 -153h420q40 0 63 -21.5t23 -59.5v-277q0 -28 -16.5 -44.5t-45.5 -16.5
h-1002q-30 0 -46 16.5t-16 45.5v200q0 33 32 68z" />
    <glyph glyph-name="Tau" unicode="&#x3a4;" horiz-adv-x="1205" 
d="M47 1105v293q0 30 16.5 46.5t45.5 16.5h988q28 0 44.5 -17t16.5 -46v-293q0 -29 -16.5 -46t-44.5 -17h-276v-996q0 -61 -62 -61h-316q-29 0 -45.5 16t-16.5 45v996h-272q-29 0 -45.5 16.5t-16.5 46.5z" />
    <glyph glyph-name="Upsilon" unicode="&#x3a5;" horiz-adv-x="1392" 
d="M1397 1419q0 -13 -6 -29l-475 -845v-484q0 -28 -16 -44.5t-45 -16.5h-317q-29 0 -46 16.5t-17 44.5v486l-474 843q-6 16 -6 29q0 41 51 41h371q21 0 42.5 -16t34.5 -41l201 -399l203 401q27 55 78 55h370q51 0 51 -41z" />
    <glyph glyph-name="Phi" unicode="&#x3a6;" horiz-adv-x="1694" 
d="M1067 115v-54q0 -28 -16.5 -44.5t-44.5 -16.5h-317q-29 0 -45.5 16.5t-16.5 44.5v54q-119 5 -227.5 57.5t-186.5 136.5t-123.5 197t-43.5 233q0 161 76 297q76 135 210 218t295 93v51q0 29 16.5 46t45.5 17h317q28 0 44.5 -17t16.5 -46v-51q242 -11 413.5 -190
t167.5 -418q2 -120 -43.5 -233t-123.5 -197t-186.5 -136.5t-227.5 -57.5zM627 542v378q-61 -16 -102 -69q-39 -53 -39 -120q0 -69 39 -121q40 -51 102 -68zM1207 731q0 68 -40 120q-39 53 -100 69v-378q62 17 100 68q40 52 40 121z" />
    <glyph glyph-name="Chi" unicode="&#x3a7;" horiz-adv-x="1484" 
d="M1476 34q0 -34 -52 -34h-400q-21 0 -43.5 14.5t-36.5 38.5l-203 358l-201 -358q-14 -24 -36.5 -38.5t-43.5 -14.5h-401q-51 0 -51 33q0 14 14 37l445 683l-414 636q-15 23 -15 40q0 32 47 32h407q21 0 43.5 -15.5t35.5 -39.5l171 -309l170 309q14 23 37.5 39t42.5 16h407
q46 0 46 -32q0 -17 -14 -39l-394 -636l425 -684q14 -23 14 -36z" />
    <glyph glyph-name="Psi" unicode="&#x3a8;" horiz-adv-x="1625" 
d="M1578 1400v-428q3 -240 -152.5 -394.5t-403.5 -162.5v-353q0 -27 -17 -44.5t-44 -17.5h-296q-28 0 -45.5 17.5t-17.5 44.5v353q-248 8 -403.5 162.5t-152.5 394.5v428q0 28 18.5 44.5t48.5 16.5h307q30 0 48 -16.5t18 -44.5v-451q0 -56 31.5 -88t84.5 -32v570
q0 28 17.5 45t45.5 17h296q27 0 44 -17t17 -45v-570q54 0 85 31.5t31 88.5v451q0 28 18 44.5t48 16.5h307q30 0 48.5 -16.5t18.5 -44.5z" />
    <glyph glyph-name="uni03A9" unicode="&#x3a9;" horiz-adv-x="1471" 
d="M1411 308v-238q0 -29 -20 -49.5t-49 -20.5h-479q-29 0 -49.5 20.5t-20.5 49.5v450q0 18 14 37t36 30q67 34 104 95.5t37 141.5q0 98 -72.5 167.5t-176.5 69.5q-104 2 -179.5 -69t-73.5 -167q0 -92 35 -155.5t99 -85.5q25 -9 41.5 -27t16.5 -37l-2 -378v-72
q0 -29 -20.5 -49.5t-49.5 -20.5h-479q-29 0 -50 20.5t-21 49.5v238q0 29 21 50.5t50 20.5l178 -4v17q-70 13 -129 78.5t-92.5 159.5t-32.5 192q0 188 91 340t249 241q157 88 348 88t348 -88q158 -89 249 -241q92 -154 92 -340q1 -96 -31 -191t-88.5 -161t-120.5 -75v-19
l158 3q28 1 48.5 -20.5t20.5 -50.5z" />
    <glyph glyph-name="Iotadieresis" unicode="&#x3aa;" horiz-adv-x="644" 
d="M542 1417v-1373q0 -44 -44 -44h-352q-44 0 -44 44v1373q0 44 44 44h352q44 0 44 -44zM31 1697q0 52 37.5 89.5t90.5 37.5t90.5 -37.5t37.5 -89.5q0 -53 -37.5 -91t-90.5 -38t-90.5 38t-37.5 91zM377 1697q0 52 37.5 89.5t90.5 37.5t90.5 -37.5t37.5 -89.5
q0 -53 -37.5 -91t-90.5 -38t-90.5 38t-37.5 91z" />
    <glyph glyph-name="Upsilondieresis" unicode="&#x3ab;" horiz-adv-x="1392" 
d="M1397 1419q0 -13 -6 -29l-475 -845v-484q0 -28 -16 -44.5t-45 -16.5h-317q-29 0 -46 16.5t-17 44.5v486l-474 843q-6 16 -6 29q0 41 51 41h371q21 0 42.5 -16t34.5 -41l201 -399l203 401q27 55 78 55h370q51 0 51 -41zM394 1699q0 52 37.5 89.5t90.5 37.5t90.5 -37.5
t37.5 -89.5q0 -53 -37.5 -91t-90.5 -38t-90.5 38t-37.5 91zM740 1699q0 52 37.5 89.5t90.5 37.5t90.5 -37.5t37.5 -89.5q0 -53 -37.5 -91t-90.5 -38t-90.5 38t-37.5 91z" />
    <glyph glyph-name="alphatonos" unicode="&#x3ac;" horiz-adv-x="1048" 
d="M977 837v-793q0 -19 -11.5 -30.5t-30.5 -11.5h-231q-19 0 -29 16l-32 49q-86 -101 -230 -101q-171 -3 -282 131.5t-109 338.5q-2 206 109 341.5t282 132.5q140 0 228 -100l34 52q11 17 29 17h231q19 0 30.5 -11.5t11.5 -30.5zM593 438q0 43 -29.5 72t-71.5 29t-71 -29
t-29 -72q0 -42 29 -71.5t71 -29.5t71.5 29.5t29.5 71.5zM366 1112l20 218q3 24 12 34t27 10h182q40 0 40 -29q0 -7 -3 -15l-61 -223q-6 -22 -13 -30t-22 -8h-150q-17 0 -25.5 12t-6.5 31z" />
    <glyph glyph-name="epsilontonos" unicode="&#x3ad;" horiz-adv-x="871" 
d="M862 108q0 -30 -34 -49q-76 -43 -179.5 -68t-205.5 -25h-9q-193 0 -304 79t-111 218q0 75 34.5 124t97.5 64q-60 14 -93 57.5t-33 109.5q0 137 109 215t298 78h11q96 0 183.5 -25t143.5 -69q36 -27 36 -58q0 -13 -9 -27l-106 -152q-19 -28 -49 -28q-17 0 -33 8
q-54 28 -149 28h-18q-27 0 -27 -17q0 -14 26 -14h71q28 0 44.5 -14.5t16.5 -39.5v-126q0 -27 -15 -42.5t-41 -15.5h-76q-24 0 -24 -17q0 -13 24 -13h15q117 0 198 50q16 9 32 9q30 0 53 -35l112 -172q11 -17 11 -33zM346 1096l20 218q3 24 12 34t27 10h182q40 0 40 -29
q0 -7 -3 -15l-61 -223q-6 -22 -13 -30t-22 -8h-150q-17 0 -25.5 12t-6.5 31z" />
    <glyph glyph-name="etatonos" unicode="&#x3ae;" horiz-adv-x="1053" 
d="M991 477v-859q0 -39 -39 -39h-316q-39 0 -39 39v862q0 24 -18 39t-43 15q-31 0 -50.5 -20.5t-19.5 -58.5v-412q0 -41 -41 -41h-313q-41 0 -41 41v794q0 19 11.5 30.5t30.5 11.5h182q27 0 44 -25l45 -70q108 126 264 126q175 0 259 -107.5t84 -325.5zM401 1084l20 218
q3 24 12 34t27 10h182q40 0 40 -29q0 -7 -3 -15l-61 -223q-6 -22 -13 -30t-22 -8h-150q-17 0 -25.5 12t-6.5 31z" />
    <glyph glyph-name="iotatonos" unicode="&#x3af;" horiz-adv-x="536" 
d="M465 839v-800q0 -39 -39 -39h-316q-39 0 -39 39v800q0 39 39 39h316q39 0 39 -39zM161 1084l20 218q3 24 12 34t27 10h182q40 0 40 -29q0 -7 -3 -15l-61 -223q-6 -22 -13 -30t-22 -8h-150q-17 0 -25.5 12t-6.5 31z" />
    <glyph glyph-name="upsilondieresistonos" unicode="&#x3b0;" horiz-adv-x="966" 
d="M84 878h288q24 0 38.5 -13.5t14.5 -37.5v-413q0 -29 15.5 -45.5t42.5 -16.5t42.5 16.5t15.5 45.5v411q0 25 13.5 39t38.5 14h289q24 0 38.5 -14t14.5 -39v-410q0 -209 -120.5 -328.5t-331.5 -119.5q-210 0 -331 119.5t-121 327.5v413q0 24 14 37.5t39 13.5zM148 1170
q0 65 47 112t114 47q65 0 112.5 -47t47.5 -112q0 -66 -47.5 -113.5t-112.5 -47.5q-67 0 -114 47t-47 114zM496 1170q0 65 47 112t114 47q65 0 112.5 -47t47.5 -112q0 -66 -47.5 -113.5t-112.5 -47.5q-67 0 -114 47t-47 114zM375 1364l20 218q3 24 12 34t27 10h182
q40 0 40 -29q0 -7 -3 -15l-61 -223q-6 -22 -13 -30t-22 -8h-150q-17 0 -25.5 12t-6.5 31z" />
    <glyph glyph-name="alpha" unicode="&#x3b1;" horiz-adv-x="1048" 
d="M977 837v-793q0 -19 -11.5 -30.5t-30.5 -11.5h-231q-19 0 -29 16l-32 49q-86 -101 -230 -101q-171 -3 -282 131.5t-109 338.5q-2 206 109 341.5t282 132.5q140 0 228 -100l34 52q11 17 29 17h231q19 0 30.5 -11.5t11.5 -30.5zM593 438q0 43 -29.5 72t-71.5 29t-71 -29
t-29 -72q0 -42 29 -71.5t71 -29.5t71.5 29.5t29.5 71.5z" />
    <glyph glyph-name="beta" unicode="&#x3b2;" horiz-adv-x="1084" 
d="M1062 440q2 -129 -66 -240t-186 -175.5t-254 -62.5q-40 0 -90 8v-352q0 -16 -11.5 -27.5t-27.5 -11.5h-316q-16 0 -27.5 11.5t-11.5 27.5v772q-1 7 -1 30v615q-2 123 59 229t167 167.5t229 59.5q124 2 231 -59.5t169 -167.5t60 -229q0 -90 -41 -164t-103 -99
q93 -29 156.5 -124t63.5 -208zM668 441q0 53 -33 91q-31 37 -79 37h-27q-20 0 -33.5 15.5t-13.5 37.5v270q0 24 13.5 40t33.5 16q26 0 44.5 23t18.5 57q0 29 -18.5 49t-45.5 20q-26 0 -44.5 -20t-18.5 -49v-591q1 -2 1 -9v-19q5 -27 30.5 -45t59.5 -18q47 0 79.5 27.5
t32.5 67.5z" />
    <glyph glyph-name="gamma" unicode="&#x3b3;" horiz-adv-x="975" 
d="M982 843q0 -10 -5 -22l-312 -780v-374q0 -23 -13.5 -36.5t-36.5 -13.5h-258q-24 0 -37 13.5t-13 36.5v384l-308 770q-5 12 -5 22q0 15 10 25t23 10h336q19 0 35 -10.5t20 -27.5l70 -326l70 326q4 17 20 27.5t35 10.5h336q13 0 23 -10t10 -25z" />
    <glyph glyph-name="delta" unicode="&#x3b4;" horiz-adv-x="1011" 
d="M989 436q3 -124 -63.5 -234.5t-179 -174.5t-239.5 -62q-129 -3 -242 61t-179.5 174.5t-63.5 235.5q0 119 56 223q57 103 155 168q-106 109 -106 279q-2 164 125.5 272.5t332.5 106.5q68 0 165 -23q94 -22 180 -60q17 -8 17 -26q0 -12 -6 -25l-109 -260q-9 -21 -27 -21
q-12 0 -26 8q-26 15 -80 26q-53 11 -94 11q-83 0 -83 -51q0 -33 25 -64q24 -28 56 -52t100 -68l41 -26q28 -17 50 -36l-1 -1q92 -67 144 -167t52 -214zM605 438q0 43 -29 72t-71 29t-71.5 -29t-29.5 -72q0 -42 29.5 -71.5t71.5 -29.5t71 29.5t29 71.5z" />
    <glyph glyph-name="epsilon" unicode="&#x3b5;" horiz-adv-x="871" 
d="M862 108q0 -30 -34 -49q-76 -43 -179.5 -68t-205.5 -25h-9q-193 0 -304 79t-111 218q0 75 34.5 124t97.5 64q-60 14 -93 57.5t-33 109.5q0 137 109 215t298 78h11q96 0 183.5 -25t143.5 -69q36 -27 36 -58q0 -13 -9 -27l-106 -152q-19 -28 -49 -28q-17 0 -33 8
q-54 28 -149 28h-18q-27 0 -27 -17q0 -14 26 -14h71q28 0 44.5 -14.5t16.5 -39.5v-126q0 -27 -15 -42.5t-41 -15.5h-76q-24 0 -24 -17q0 -13 24 -13h15q117 0 198 50q16 9 32 9q30 0 53 -35l112 -172q11 -17 11 -33z" />
    <glyph glyph-name="zeta" unicode="&#x3b6;" horiz-adv-x="975" 
d="M575 335h54q163 0 257.5 -110.5t94.5 -301.5q0 -73 -42 -147.5t-116 -130.5q-23 -17 -45 -17q-30 0 -55 24l-148 141q-20 20 -20 42q0 20 16 42q30 30 30 46q0 27 -28 27h-36q-230 -2 -370.5 130t-138.5 354q0 161 85 304q86 144 227 254l95 75h-295q-43 0 -43 43v305
q0 46 42 46h733q22 0 34.5 -12t12.5 -34v-290q0 -48 -39 -89l-189 -193q-155 -159 -210 -245.5t-55 -164.5q0 -45 41 -71.5t108 -26.5z" />
    <glyph glyph-name="eta" unicode="&#x3b7;" horiz-adv-x="1053" 
d="M991 477v-859q0 -39 -39 -39h-316q-39 0 -39 39v862q0 24 -18 39t-43 15q-31 0 -50.5 -20.5t-19.5 -58.5v-412q0 -41 -41 -41h-313q-41 0 -41 41v794q0 19 11.5 30.5t30.5 11.5h182q27 0 44 -25l45 -70q108 126 264 126q175 0 259 -107.5t84 -325.5z" />
    <glyph glyph-name="theta" unicode="&#x3b8;" horiz-adv-x="1153" 
d="M1122 728q0 -391 -132.5 -576t-412.5 -185q-281 0 -413.5 185t-132.5 576t132.5 576t413.5 185q280 0 412.5 -185t132.5 -576zM423 806h310q-7 157 -44.5 231t-110.5 74t-110.5 -74t-44.5 -231zM733 652h-310q7 -158 44.5 -233t110.5 -75t110.5 75t44.5 233z" />
    <glyph glyph-name="iota" unicode="&#x3b9;" horiz-adv-x="536" 
d="M465 839v-800q0 -39 -39 -39h-316q-39 0 -39 39v800q0 39 39 39h316q39 0 39 -39z" />
    <glyph glyph-name="kappa" unicode="&#x3ba;" horiz-adv-x="1074" 
d="M1070 31q0 -14 -9.5 -22.5t-25.5 -8.5h-354q-36 0 -54 39l-118 226l-44 -49v-177q0 -39 -39 -39h-316q-39 0 -39 39v800q0 39 39 39h316q39 0 39 -39v-213l1 7l157 217q14 18 28 23t43 5h338q38 0 38 -29q0 -15 -10 -28l-268 -308l269 -452q9 -17 9 -30z" />
    <glyph glyph-name="lambda" unicode="&#x3bb;" horiz-adv-x="975" 
d="M982 35q0 -15 -10 -25t-23 -10h-336q-19 0 -35 10.5t-20 27.5l-70 327l-70 -327q-4 -17 -20 -27.5t-35 -10.5h-336q-13 0 -23 10t-10 25q0 10 5 22l286 715l-113 272q-14 36 -24.5 48t-25.5 12q-23 0 -37.5 11.5t-14.5 28.5l1 273q0 43 35 43q151 0 232 -37
q81 -35 119 -96t81 -175q2 -4 11.5 -29t15.5 -40l99 -242v-1l313 -783q5 -12 5 -22z" />
    <glyph glyph-name="uni03BC" unicode="&#x3bc;" horiz-adv-x="1038" 
d="M637 -33q-89 0 -172 53v-565q0 -39 -39 -39h-316q-39 0 -39 39v1384q0 39 39 39h316q39 0 39 -39v-416q0 -79 59 -79q52 0 52 53v438q0 41 40 41h313q41 0 41 -41l6 -435q3 -213 -83 -323t-256 -110z" />
    <glyph glyph-name="nu" unicode="&#x3bd;" horiz-adv-x="975" 
d="M982 843q0 -10 -5 -22l-313 -783q-7 -17 -25 -27.5t-40 -10.5h-222q-22 0 -40 10.5t-25 27.5l-313 783q-5 12 -5 22q0 15 10 25t23 10h336q19 0 35 -10.5t20 -27.5l70 -326l70 326q4 17 20 27.5t35 10.5h336q13 0 23 -10t10 -25z" />
    <glyph glyph-name="xi" unicode="&#x3be;" horiz-adv-x="981" 
d="M981 -31q0 -87 -42 -169.5t-116 -139.5q-19 -16 -45 -16q-29 0 -55 23l-148 142q-22 22 -22 44q0 21 18 39q30 30 30 47q0 26 -28 26h-51q-244 0 -372 109t-128 328q0 116 71.5 209t191.5 125q-75 24 -116 79t-41 134q0 84 83 144l-96 -15q-18 -3 -28.5 7.5t-10.5 31.5
v306q0 39 39 39h661q39 0 39 -39v-306q0 -39 -39 -39h-188q-36 -4 -56 -24.5t-20 -53.5q0 -37 24.5 -58t68.5 -21h109q19 0 30 -15.5t11 -41.5v-270q0 -52 -39 -52h-189q-52 0 -81.5 -24.5t-29.5 -66.5q0 -43 28.5 -67.5t77.5 -24.5h107q164 0 258 -104.5t94 -285.5z" />
    <glyph glyph-name="omicron" unicode="&#x3bf;" horiz-adv-x="1011" 
d="M507 910q127 2 240 -63t179 -175.5t63 -235.5q3 -124 -63.5 -234.5t-179 -174.5t-239.5 -62q-129 -3 -242 61t-179.5 174.5t-63.5 235.5q0 128 65 238q64 108 176 172t244 64zM505 337q42 0 71 29.5t29 71.5q0 43 -29 72t-71 29t-71.5 -29t-29.5 -72q0 -42 29.5 -71.5
t71.5 -29.5z" />
    <glyph glyph-name="pi" unicode="&#x3c0;" horiz-adv-x="1042" 
d="M971 839v-800q0 -39 -39 -39h-317q-38 0 -38 39v444h-112v-444q0 -39 -39 -39h-316q-39 0 -39 39v800q0 39 39 39h822q18 0 28.5 -10.5t10.5 -28.5z" />
    <glyph glyph-name="rho" unicode="&#x3c1;" horiz-adv-x="1045" 
d="M1023 441q2 -206 -109 -341.5t-282 -132.5q-101 0 -175 52v-399q0 -19 -11 -30.5t-28 -11.5h-314q-19 0 -30.5 11.5t-11.5 30.5v802q-2 140 64.5 253.5t179.5 175.5t247 60q95 2 182.5 -35.5t151 -101t101 -151t35.5 -182.5zM637 439q0 37 -26.5 64t-63.5 27t-64 -26.5
t-27 -64.5q0 -37 27 -63.5t64 -26.5t63.5 26.5t26.5 63.5z" />
    <glyph glyph-name="uni03C2" unicode="&#x3c2;" horiz-adv-x="950" 
d="M804 809q18 -14 18 -31q0 -12 -9 -26l-157 -240q-11 -20 -31 -20q-12 0 -27 9q-50 27 -85 27q-36 0 -62 -26.5t-26 -63.5t26 -64t62 -27h85q164 0 258 -108.5t94 -299.5q0 -74 -42 -148t-115 -131q-23 -17 -45 -17q-29 0 -56 24l-147 142q-22 19 -22 44q0 21 18 39
q29 32 29 47q0 26 -27 26h-37q-130 -2 -243 62t-178 173.5t-63 235.5q0 128 65 238q64 108 176 172t244 64q169 0 297 -101z" />
    </font>
</defs>
</svg>
